<?xml version="1.0" encoding="utf-8" standalone="no"?>
<!DOCTYPE svg PUBLIC "-//W3C//DTD SVG 1.1//EN"
  "http://www.w3.org/Graphics/SVG/1.1/DTD/svg11.dtd">
<svg xmlns:xlink="http://www.w3.org/1999/xlink" width="423.213114pt" height="329.17793pt" viewBox="0 0 423.213114 329.17793" xmlns="http://www.w3.org/2000/svg" version="1.1">
 <metadata>
  <rdf:RDF xmlns:dc="http://purl.org/dc/elements/1.1/" xmlns:cc="http://creativecommons.org/ns#" xmlns:rdf="http://www.w3.org/1999/02/22-rdf-syntax-ns#">
   <cc:Work>
    <dc:type rdf:resource="http://purl.org/dc/dcmitype/StillImage"/>
    <dc:date>2023-02-26T16:48:31.313711</dc:date>
    <dc:format>image/svg+xml</dc:format>
    <dc:creator>
     <cc:Agent>
      <dc:title>Matplotlib v3.6.2, https://matplotlib.org/</dc:title>
     </cc:Agent>
    </dc:creator>
   </cc:Work>
  </rdf:RDF>
 </metadata>
 <defs>
  <style type="text/css">*{stroke-linejoin: round; stroke-linecap: butt}</style>
 </defs>
 <g id="figure_1">
  <g id="patch_1">
   <path d="M 0 329.17793 
L 423.213114 329.17793 
L 423.213114 0 
L 0 0 
z
" style="fill: #ffffff"/>
  </g>
  <g id="axes_1">
   <g id="patch_2">
    <path d="M 58.893114 291.7653 
L 416.013114 291.7653 
L 416.013114 25.6533 
L 58.893114 25.6533 
z
" style="fill: #ffffff"/>
   </g>
   <g id="matplotlib.axis_1">
    <g id="xtick_1">
     <g id="line2d_1">
      <path d="M 75.125841 291.7653 
L 75.125841 25.6533 
" clip-path="url(#pcade6dc55e)" style="fill: none; stroke: #cccccc; stroke-width: 1.5; stroke-linecap: round"/>
     </g>
     <g id="line2d_2">
      <defs>
       <path id="mac506bebce" d="M 0 0 
L 0 9 
" style="stroke: #262626; stroke-width: 1.875"/>
      </defs>
      <g>
       <use xlink:href="#mac506bebce" x="75.125841" y="291.7653" style="fill: #262626; stroke: #262626; stroke-width: 1.875"/>
      </g>
     </g>
     <g id="text_1">
      <!-- $\mathdefault{−1.0}$ -->
      <g style="fill: #262626" transform="translate(55.529284 318.102297) scale(0.2 -0.2)">
       <defs>
        <path id="CMSY10-0" d="M 4218 1472 
C 4326 1472 4442 1472 4442 1600 
C 4442 1728 4326 1728 4218 1728 
L 755 1728 
C 646 1728 531 1728 531 1600 
C 531 1472 646 1472 755 1472 
L 4218 1472 
z
" transform="scale(0.015625)"/>
        <path id="CMR17-31" d="M 1702 4083 
C 1702 4217 1696 4224 1606 4224 
C 1357 3927 979 3833 621 3820 
C 602 3820 570 3820 563 3808 
C 557 3795 557 3782 557 3648 
C 755 3648 1088 3686 1344 3839 
L 1344 467 
C 1344 243 1331 166 781 166 
L 589 166 
L 589 0 
C 896 6 1216 12 1523 12 
C 1830 12 2150 6 2458 0 
L 2458 166 
L 2266 166 
C 1715 166 1702 236 1702 467 
L 1702 4083 
z
" transform="scale(0.015625)"/>
        <path id="CMMI12-3a" d="M 1178 307 
C 1178 492 1024 620 870 620 
C 685 620 557 467 557 313 
C 557 128 710 0 864 0 
C 1050 0 1178 153 1178 307 
z
" transform="scale(0.015625)"/>
        <path id="CMR17-30" d="M 2688 2038 
C 2688 2430 2682 3099 2413 3613 
C 2176 4063 1798 4224 1466 4224 
C 1158 4224 768 4082 525 3620 
C 269 3137 243 2539 243 2038 
C 243 1671 250 1112 448 623 
C 723 -39 1216 -128 1466 -128 
C 1760 -128 2208 -7 2470 604 
C 2662 1048 2688 1568 2688 2038 
z
M 1466 -26 
C 1056 -26 813 328 723 816 
C 653 1196 653 1749 653 2109 
C 653 2604 653 3015 736 3407 
C 858 3954 1216 4121 1466 4121 
C 1728 4121 2067 3947 2189 3420 
C 2272 3054 2278 2623 2278 2109 
C 2278 1691 2278 1176 2202 797 
C 2067 96 1690 -26 1466 -26 
z
" transform="scale(0.015625)"/>
       </defs>
       <use xlink:href="#CMSY10-0" transform="scale(0.996264)"/>
       <use xlink:href="#CMR17-31" transform="translate(77.487468 0) scale(0.996264)"/>
       <use xlink:href="#CMMI12-3a" transform="translate(123.177945 0) scale(0.996264)"/>
       <use xlink:href="#CMR17-30" transform="translate(150.275122 0) scale(0.996264)"/>
      </g>
     </g>
    </g>
    <g id="xtick_2">
     <g id="line2d_3">
      <path d="M 156.289477 291.7653 
L 156.289477 25.6533 
" clip-path="url(#pcade6dc55e)" style="fill: none; stroke: #cccccc; stroke-width: 1.5; stroke-linecap: round"/>
     </g>
     <g id="line2d_4">
      <g>
       <use xlink:href="#mac506bebce" x="156.289477" y="291.7653" style="fill: #262626; stroke: #262626; stroke-width: 1.875"/>
      </g>
     </g>
     <g id="text_2">
      <!-- $\mathdefault{−0.5}$ -->
      <g style="fill: #262626" transform="translate(136.69292 318.102297) scale(0.2 -0.2)">
       <defs>
        <path id="CMR17-35" d="M 730 3750 
C 794 3724 1056 3641 1325 3641 
C 1920 3641 2246 3961 2432 4140 
C 2432 4191 2432 4224 2394 4224 
C 2387 4224 2374 4224 2323 4198 
C 2099 4102 1837 4032 1517 4032 
C 1325 4032 1037 4055 723 4191 
C 653 4224 640 4224 634 4224 
C 602 4224 595 4217 595 4090 
L 595 2231 
C 595 2113 595 2080 659 2080 
C 691 2080 704 2093 736 2139 
C 941 2435 1222 2560 1542 2560 
C 1766 2560 2246 2415 2246 1293 
C 2246 1087 2246 716 2054 422 
C 1894 159 1645 25 1370 25 
C 947 25 518 319 403 812 
C 429 806 480 793 506 793 
C 589 793 749 838 749 1036 
C 749 1209 627 1280 506 1280 
C 358 1280 262 1190 262 1011 
C 262 454 704 -128 1382 -128 
C 2042 -128 2669 441 2669 1267 
C 2669 2054 2170 2662 1549 2662 
C 1222 2662 947 2540 730 2304 
L 730 3750 
z
" transform="scale(0.015625)"/>
       </defs>
       <use xlink:href="#CMSY10-0" transform="scale(0.996264)"/>
       <use xlink:href="#CMR17-30" transform="translate(77.487468 0) scale(0.996264)"/>
       <use xlink:href="#CMMI12-3a" transform="translate(123.177945 0) scale(0.996264)"/>
       <use xlink:href="#CMR17-35" transform="translate(150.275122 0) scale(0.996264)"/>
      </g>
     </g>
    </g>
    <g id="xtick_3">
     <g id="line2d_5">
      <path d="M 237.453114 291.7653 
L 237.453114 25.6533 
" clip-path="url(#pcade6dc55e)" style="fill: none; stroke: #cccccc; stroke-width: 1.5; stroke-linecap: round"/>
     </g>
     <g id="line2d_6">
      <g>
       <use xlink:href="#mac506bebce" x="237.453114" y="291.7653" style="fill: #262626; stroke: #262626; stroke-width: 1.875"/>
      </g>
     </g>
     <g id="text_3">
      <!-- $\mathdefault{0.0}$ -->
      <g style="fill: #262626" transform="translate(225.605301 318.102297) scale(0.2 -0.2)">
       <use xlink:href="#CMR17-30" transform="scale(0.996264)"/>
       <use xlink:href="#CMMI12-3a" transform="translate(45.690477 0) scale(0.996264)"/>
       <use xlink:href="#CMR17-30" transform="translate(72.787654 0) scale(0.996264)"/>
      </g>
     </g>
    </g>
    <g id="xtick_4">
     <g id="line2d_7">
      <path d="M 318.61675 291.7653 
L 318.61675 25.6533 
" clip-path="url(#pcade6dc55e)" style="fill: none; stroke: #cccccc; stroke-width: 1.5; stroke-linecap: round"/>
     </g>
     <g id="line2d_8">
      <g>
       <use xlink:href="#mac506bebce" x="318.61675" y="291.7653" style="fill: #262626; stroke: #262626; stroke-width: 1.875"/>
      </g>
     </g>
     <g id="text_4">
      <!-- $\mathdefault{0.5}$ -->
      <g style="fill: #262626" transform="translate(306.768937 318.102297) scale(0.2 -0.2)">
       <use xlink:href="#CMR17-30" transform="scale(0.996264)"/>
       <use xlink:href="#CMMI12-3a" transform="translate(45.690477 0) scale(0.996264)"/>
       <use xlink:href="#CMR17-35" transform="translate(72.787654 0) scale(0.996264)"/>
      </g>
     </g>
    </g>
    <g id="xtick_5">
     <g id="line2d_9">
      <path d="M 399.780386 291.7653 
L 399.780386 25.6533 
" clip-path="url(#pcade6dc55e)" style="fill: none; stroke: #cccccc; stroke-width: 1.5; stroke-linecap: round"/>
     </g>
     <g id="line2d_10">
      <g>
       <use xlink:href="#mac506bebce" x="399.780386" y="291.7653" style="fill: #262626; stroke: #262626; stroke-width: 1.875"/>
      </g>
     </g>
     <g id="text_5">
      <!-- $\mathdefault{1.0}$ -->
      <g style="fill: #262626" transform="translate(387.932573 318.102297) scale(0.2 -0.2)">
       <use xlink:href="#CMR17-31" transform="scale(0.996264)"/>
       <use xlink:href="#CMMI12-3a" transform="translate(45.690477 0) scale(0.996264)"/>
       <use xlink:href="#CMR17-30" transform="translate(72.787654 0) scale(0.996264)"/>
      </g>
     </g>
    </g>
   </g>
   <g id="matplotlib.axis_2">
    <g id="ytick_1">
     <g id="line2d_11">
      <path d="M 58.893114 291.7653 
L 416.013114 291.7653 
" clip-path="url(#pcade6dc55e)" style="fill: none; stroke: #cccccc; stroke-width: 1.5; stroke-linecap: round"/>
     </g>
     <g id="line2d_12">
      <defs>
       <path id="m5b0bef0a14" d="M 0 0 
L -9 0 
" style="stroke: #262626; stroke-width: 1.875"/>
      </defs>
      <g>
       <use xlink:href="#m5b0bef0a14" x="58.893114" y="291.7653" style="fill: #262626; stroke: #262626; stroke-width: 1.875"/>
      </g>
     </g>
     <g id="text_6">
      <!-- $\mathdefault{−1.0}$ -->
      <g style="fill: #262626" transform="translate(7.2 298.683799) scale(0.2 -0.2)">
       <use xlink:href="#CMSY10-0" transform="scale(0.996264)"/>
       <use xlink:href="#CMR17-31" transform="translate(77.487468 0) scale(0.996264)"/>
       <use xlink:href="#CMMI12-3a" transform="translate(123.177945 0) scale(0.996264)"/>
       <use xlink:href="#CMR17-30" transform="translate(150.275122 0) scale(0.996264)"/>
      </g>
     </g>
    </g>
    <g id="ytick_2">
     <g id="line2d_13">
      <path d="M 58.893114 225.2373 
L 416.013114 225.2373 
" clip-path="url(#pcade6dc55e)" style="fill: none; stroke: #cccccc; stroke-width: 1.5; stroke-linecap: round"/>
     </g>
     <g id="line2d_14">
      <g>
       <use xlink:href="#m5b0bef0a14" x="58.893114" y="225.2373" style="fill: #262626; stroke: #262626; stroke-width: 1.875"/>
      </g>
     </g>
     <g id="text_7">
      <!-- $\mathdefault{−0.5}$ -->
      <g style="fill: #262626" transform="translate(7.2 232.155799) scale(0.2 -0.2)">
       <use xlink:href="#CMSY10-0" transform="scale(0.996264)"/>
       <use xlink:href="#CMR17-30" transform="translate(77.487468 0) scale(0.996264)"/>
       <use xlink:href="#CMMI12-3a" transform="translate(123.177945 0) scale(0.996264)"/>
       <use xlink:href="#CMR17-35" transform="translate(150.275122 0) scale(0.996264)"/>
      </g>
     </g>
    </g>
    <g id="ytick_3">
     <g id="line2d_15">
      <path d="M 58.893114 158.7093 
L 416.013114 158.7093 
" clip-path="url(#pcade6dc55e)" style="fill: none; stroke: #cccccc; stroke-width: 1.5; stroke-linecap: round"/>
     </g>
     <g id="line2d_16">
      <g>
       <use xlink:href="#m5b0bef0a14" x="58.893114" y="158.7093" style="fill: #262626; stroke: #262626; stroke-width: 1.875"/>
      </g>
     </g>
     <g id="text_8">
      <!-- $\mathdefault{0.0}$ -->
      <g style="fill: #262626" transform="translate(22.697487 165.627799) scale(0.2 -0.2)">
       <use xlink:href="#CMR17-30" transform="scale(0.996264)"/>
       <use xlink:href="#CMMI12-3a" transform="translate(45.690477 0) scale(0.996264)"/>
       <use xlink:href="#CMR17-30" transform="translate(72.787654 0) scale(0.996264)"/>
      </g>
     </g>
    </g>
    <g id="ytick_4">
     <g id="line2d_17">
      <path d="M 58.893114 92.1813 
L 416.013114 92.1813 
" clip-path="url(#pcade6dc55e)" style="fill: none; stroke: #cccccc; stroke-width: 1.5; stroke-linecap: round"/>
     </g>
     <g id="line2d_18">
      <g>
       <use xlink:href="#m5b0bef0a14" x="58.893114" y="92.1813" style="fill: #262626; stroke: #262626; stroke-width: 1.875"/>
      </g>
     </g>
     <g id="text_9">
      <!-- $\mathdefault{0.5}$ -->
      <g style="fill: #262626" transform="translate(22.697487 99.099799) scale(0.2 -0.2)">
       <use xlink:href="#CMR17-30" transform="scale(0.996264)"/>
       <use xlink:href="#CMMI12-3a" transform="translate(45.690477 0) scale(0.996264)"/>
       <use xlink:href="#CMR17-35" transform="translate(72.787654 0) scale(0.996264)"/>
      </g>
     </g>
    </g>
    <g id="ytick_5">
     <g id="line2d_19">
      <path d="M 58.893114 25.6533 
L 416.013114 25.6533 
" clip-path="url(#pcade6dc55e)" style="fill: none; stroke: #cccccc; stroke-width: 1.5; stroke-linecap: round"/>
     </g>
     <g id="line2d_20">
      <g>
       <use xlink:href="#m5b0bef0a14" x="58.893114" y="25.6533" style="fill: #262626; stroke: #262626; stroke-width: 1.875"/>
      </g>
     </g>
     <g id="text_10">
      <!-- $\mathdefault{1.0}$ -->
      <g style="fill: #262626" transform="translate(22.697487 32.571799) scale(0.2 -0.2)">
       <use xlink:href="#CMR17-31" transform="scale(0.996264)"/>
       <use xlink:href="#CMMI12-3a" transform="translate(45.690477 0) scale(0.996264)"/>
       <use xlink:href="#CMR17-30" transform="translate(72.787654 0) scale(0.996264)"/>
      </g>
     </g>
    </g>
   </g>
   <g id="PolyCollection_1">
    <defs>
     <path id="m8d4bf6816d" d="M 75.125841 -303.606907 
L 75.125841 -358.31607 
L 76.757271 -346.775877 
L 78.388701 -335.415551 
L 80.020131 -324.275137 
L 81.65156 -313.395625 
L 83.28299 -302.819092 
L 84.91442 -292.588504 
L 86.54585 -282.74653 
L 88.17728 -273.332419 
L 89.80871 -264.376049 
L 91.44014 -255.889898 
L 93.07157 -247.862955 
L 94.703 -240.262068 
L 96.334429 -233.041685 
L 97.965859 -226.156233 
L 99.597289 -219.568622 
L 101.228719 -213.253097 
L 102.860149 -207.194283 
L 104.491579 -201.384779 
L 106.123009 -195.822688 
L 107.754439 -190.509587 
L 109.385868 -185.44904 
L 111.017298 -180.645565 
L 112.648728 -176.103992 
L 114.280158 -171.829157 
L 115.911588 -167.82603 
L 117.543018 -164.100632 
L 119.174448 -160.663018 
L 120.805878 -157.537411 
L 122.437307 -154.801501 
L 124.068737 -152.698243 
L 125.700167 -151.434521 
L 127.331597 -150.73347 
L 128.963027 -150.366977 
L 130.594457 -150.247994 
L 132.225887 -150.331922 
L 133.857317 -150.586625 
L 135.488746 -150.984581 
L 137.120176 -151.500502 
L 138.751606 -152.110551 
L 140.383036 -152.792095 
L 142.014466 -153.523669 
L 143.645896 -154.285025 
L 145.277326 -155.057206 
L 146.908756 -155.822637 
L 148.540185 -156.565211 
L 150.171615 -157.270359 
L 151.803045 -157.92512 
L 153.434475 -158.518187 
L 155.065905 -159.03994 
L 156.697335 -159.482464 
L 158.328765 -159.83955 
L 159.960195 -160.106679 
L 161.591624 -160.28099 
L 163.223054 -160.361237 
L 164.854484 -160.347726 
L 166.485914 -160.242242 
L 168.117344 -160.047964 
L 169.748774 -159.769366 
L 171.380204 -159.412113 
L 173.011634 -158.982947 
L 174.643063 -158.489561 
L 176.274493 -157.940477 
L 177.905923 -157.344912 
L 179.537353 -156.712643 
L 181.168783 -156.05387 
L 182.800213 -155.379081 
L 184.431643 -154.698904 
L 186.063073 -154.023977 
L 187.694502 -153.364804 
L 189.325932 -152.731621 
L 190.957362 -152.134261 
L 192.588792 -151.58203 
L 194.220222 -151.083592 
L 195.851652 -150.646861 
L 197.483082 -150.278926 
L 199.114512 -149.985985 
L 200.745941 -149.77332 
L 202.377371 -149.645297 
L 204.008801 -149.605401 
L 205.640231 -149.656311 
L 207.271661 -149.799998 
L 208.903091 -150.037858 
L 210.534521 -150.370868 
L 212.165951 -150.799754 
L 213.797381 -151.325172 
L 215.42881 -151.947872 
L 217.06024 -152.668838 
L 218.69167 -153.489372 
L 220.3231 -154.41108 
L 221.95453 -155.435746 
L 223.58596 -156.565073 
L 225.21739 -157.800296 
L 226.84882 -159.14173 
L 228.480249 -160.588319 
L 230.111679 -162.13729 
L 231.743109 -163.783958 
L 233.374539 -165.521711 
L 235.005969 -167.342153 
L 236.637399 -169.235334 
L 238.268829 -171.190033 
L 239.900259 -173.194027 
L 241.531688 -175.234336 
L 243.163118 -177.297436 
L 244.794548 -179.36943 
L 246.425978 -181.436189 
L 248.057408 -183.483481 
L 249.688838 -185.497076 
L 251.320268 -187.462849 
L 252.951698 -189.366874 
L 254.583127 -191.195518 
L 256.214557 -192.935535 
L 257.845987 -194.574153 
L 259.477417 -196.09917 
L 261.108847 -197.499042 
L 262.740277 -198.762972 
L 264.371707 -199.880998 
L 266.003137 -200.844079 
L 267.634566 -201.644176 
L 269.265996 -202.274331 
L 270.897426 -202.728737 
L 272.528856 -203.002814 
L 274.160286 -203.093264 
L 275.791716 -202.998133 
L 277.423146 -202.716858 
L 279.054576 -202.250308 
L 280.686005 -201.600821 
L 282.317435 -200.772227 
L 283.948865 -199.769865 
L 285.580295 -198.600586 
L 287.211725 -197.272754 
L 288.843155 -195.796227 
L 290.474585 -194.182326 
L 292.106015 -192.443798 
L 293.737444 -190.594752 
L 295.368874 -188.650592 
L 297.000304 -186.627916 
L 298.631734 -184.544403 
L 300.263164 -182.418669 
L 301.894594 -180.270102 
L 303.526024 -178.118657 
L 305.157454 -175.984625 
L 306.788883 -173.888367 
L 308.420313 -171.85001 
L 310.051743 -169.889129 
L 311.683173 -168.024404 
L 313.314603 -166.273278 
L 314.946033 -164.651638 
L 316.577463 -163.173534 
L 318.208893 -161.850971 
L 319.840322 -160.693783 
L 321.471752 -159.70961 
L 323.103182 -158.903982 
L 324.734612 -158.280495 
L 326.366042 -157.84107 
L 327.997472 -157.586271 
L 329.628902 -157.515642 
L 331.260332 -157.628055 
L 332.891761 -157.922034 
L 334.523191 -158.396048 
L 336.154621 -159.048761 
L 337.786051 -159.879236 
L 339.417481 -160.887106 
L 341.048911 -162.072692 
L 342.680341 -163.437104 
L 344.311771 -164.982306 
L 345.943201 -166.711174 
L 347.57463 -168.627521 
L 349.20606 -170.73612 
L 350.83749 -173.042701 
L 352.46892 -175.553917 
L 354.10035 -178.277264 
L 355.73178 -181.22092 
L 357.36321 -184.393458 
L 358.99464 -187.803387 
L 360.626069 -191.458461 
L 362.257499 -195.364737 
L 363.888929 -199.525393 
L 365.520359 -203.939453 
L 367.151789 -208.600619 
L 368.783219 -213.496509 
L 370.414649 -218.608525 
L 372.046079 -223.912442 
L 373.677508 -229.37959 
L 375.308938 -234.978386 
L 376.940368 -240.675919 
L 378.571798 -246.439402 
L 380.203228 -252.237411 
L 381.834658 -258.040923 
L 383.466088 -263.824261 
L 385.097518 -269.566049 
L 386.728947 -275.250309 
L 388.360377 -280.867803 
L 389.991807 -286.417673 
L 391.623237 -291.909316 
L 393.254667 -297.364142 
L 394.886097 -302.816424 
L 396.517527 -308.311861 
L 398.148957 -313.902413 
L 399.780386 -319.637225 
L 399.780386 -292.44217 
L 399.780386 -292.44217 
L 398.148957 -287.907333 
L 396.517527 -282.966935 
L 394.886097 -277.698949 
L 393.254667 -272.184958 
L 391.623237 -266.50095 
L 389.991807 -260.712026 
L 388.360377 -254.870829 
L 386.728947 -249.018253 
L 385.097518 -243.185072 
L 383.466088 -237.393672 
L 381.834658 -231.65956 
L 380.203228 -225.992563 
L 378.571798 -220.397797 
L 376.940368 -214.876493 
L 375.308938 -209.426806 
L 373.677508 -204.044742 
L 372.046079 -198.725269 
L 370.414649 -193.463662 
L 368.783219 -188.256981 
L 367.151789 -183.105501 
L 365.520359 -178.013807 
L 363.888929 -172.991292 
L 362.257499 -168.051954 
L 360.626069 -163.213559 
L 358.99464 -158.496423 
L 357.36321 -153.922074 
L 355.73178 -149.512038 
L 354.10035 -145.286858 
L 352.46892 -141.265379 
L 350.83749 -137.464273 
L 349.20606 -133.897747 
L 347.57463 -130.577382 
L 345.943201 -127.512064 
L 344.311771 -124.707962 
L 342.680341 -122.168559 
L 341.048911 -119.894697 
L 339.417481 -117.884653 
L 337.786051 -116.134233 
L 336.154621 -114.636896 
L 334.523191 -113.383905 
L 332.891761 -112.364515 
L 331.260332 -111.566209 
L 329.628902 -110.974969 
L 327.997472 -110.575608 
L 326.366042 -110.352135 
L 324.734612 -110.288169 
L 323.103182 -110.367357 
L 321.471752 -110.573813 
L 319.840322 -110.892512 
L 318.208893 -111.309636 
L 316.577463 -111.812851 
L 314.946033 -112.391469 
L 313.314603 -113.036521 
L 311.683173 -113.740723 
L 310.051743 -114.498352 
L 308.420313 -115.305059 
L 306.788883 -116.157638 
L 305.157454 -117.053771 
L 303.526024 -117.991776 
L 301.894594 -118.970372 
L 300.263164 -119.988458 
L 298.631734 -121.044936 
L 297.000304 -122.138558 
L 295.368874 -123.267803 
L 293.737444 -124.430791 
L 292.106015 -125.625215 
L 290.474585 -126.8483 
L 288.843155 -128.096783 
L 287.211725 -129.366905 
L 285.580295 -130.654422 
L 283.948865 -131.95463 
L 282.317435 -133.262393 
L 280.686005 -134.572187 
L 279.054576 -135.878149 
L 277.423146 -137.174133 
L 275.791716 -138.453771 
L 274.160286 -139.710536 
L 272.528856 -140.937816 
L 270.897426 -142.128982 
L 269.265996 -143.277457 
L 267.634566 -144.376798 
L 266.003137 -145.420761 
L 264.371707 -146.403372 
L 262.740277 -147.319001 
L 261.108847 -148.162421 
L 259.477417 -148.92887 
L 257.845987 -149.614105 
L 256.214557 -150.214452 
L 254.583127 -150.726845 
L 252.951698 -151.148857 
L 251.320268 -151.47873 
L 249.688838 -151.715386 
L 248.057408 -151.858437 
L 246.425978 -151.908183 
L 244.794548 -151.86561 
L 243.163118 -151.732377 
L 241.531688 -151.510812 
L 239.900259 -151.203911 
L 238.268829 -150.815356 
L 236.637399 -150.349549 
L 235.005969 -149.811689 
L 233.374539 -149.20787 
L 231.743109 -148.54522 
L 230.111679 -147.832029 
L 228.480249 -147.077845 
L 226.84882 -146.293468 
L 225.21739 -145.490807 
L 223.58596 -144.682548 
L 221.95453 -143.881682 
L 220.3231 -143.100936 
L 218.69167 -142.352213 
L 217.06024 -141.646105 
L 215.42881 -140.991547 
L 213.797381 -140.395615 
L 212.165951 -139.863454 
L 210.534521 -139.398315 
L 208.903091 -139.001668 
L 207.271661 -138.67335 
L 205.640231 -138.411755 
L 204.008801 -138.214022 
L 202.377371 -138.076234 
L 200.745941 -137.993606 
L 199.114512 -137.960671 
L 197.483082 -137.971437 
L 195.851652 -138.019547 
L 194.220222 -138.098402 
L 192.588792 -138.201281 
L 190.957362 -138.321443 
L 189.325932 -138.452218 
L 187.694502 -138.587089 
L 186.063073 -138.719774 
L 184.431643 -138.844304 
L 182.800213 -138.955101 
L 181.168783 -139.047063 
L 179.537353 -139.115636 
L 177.905923 -139.156903 
L 176.274493 -139.167652 
L 174.643063 -139.145457 
L 173.011634 -139.08874 
L 171.380204 -138.996839 
L 169.748774 -138.870053 
L 168.117344 -138.709692 
L 166.485914 -138.518108 
L 164.854484 -138.298715 
L 163.223054 -138.056002 
L 161.591624 -137.795533 
L 159.960195 -137.523928 
L 158.328765 -137.248844 
L 156.697335 -136.97893 
L 155.065905 -136.723784 
L 153.434475 -136.493887 
L 151.803045 -136.30053 
L 150.171615 -136.155733 
L 148.540185 -136.072146 
L 146.908756 -136.062948 
L 145.277326 -136.141731 
L 143.645896 -136.322376 
L 142.014466 -136.618914 
L 140.383036 -137.045386 
L 138.751606 -137.615671 
L 137.120176 -138.343299 
L 135.488746 -139.241213 
L 133.857317 -140.321435 
L 132.225887 -141.594513 
L 130.594457 -143.068418 
L 128.963027 -144.745856 
L 127.331597 -146.616087 
L 125.700167 -148.624627 
L 124.068737 -150.574313 
L 122.437307 -152.217313 
L 120.805878 -153.787327 
L 119.174448 -155.551625 
L 117.543018 -157.609448 
L 115.911588 -160.003547 
L 114.280158 -162.759265 
L 112.648728 -165.894457 
L 111.017298 -169.422298 
L 109.385868 -173.352043 
L 107.754439 -177.689031 
L 106.123009 -182.434284 
L 104.491579 -187.583802 
L 102.860149 -193.127495 
L 101.228719 -199.047693 
L 99.597289 -205.317149 
L 97.965859 -211.896631 
L 96.334429 -218.732605 
L 94.703 -225.756409 
L 93.07157 -232.887256 
L 91.44014 -240.040916 
L 89.80871 -247.142306 
L 88.17728 -254.135463 
L 86.54585 -260.985145 
L 84.91442 -267.671017 
L 83.28299 -274.179921 
L 81.65156 -280.500227 
L 80.020131 -286.619038 
L 78.388701 -292.521337 
L 76.757271 -298.190123 
L 75.125841 -303.606907 
z
" style="stroke: #feb308; stroke-opacity: 0.2; stroke-width: 1.5"/>
    </defs>
    <g clip-path="url(#pcade6dc55e)">
     <use xlink:href="#m8d4bf6816d" x="0" y="329.17793" style="fill: #feb308; fill-opacity: 0.2; stroke: #feb308; stroke-opacity: 0.2; stroke-width: 1.5"/>
    </g>
   </g>
   <g id="LineCollection_1">
    <path d="M 91.358568 82.778839 
L 91.358568 74.597376 
" clip-path="url(#pcade6dc55e)" style="fill: none; stroke: #1f77b4; stroke-width: 2.25"/>
    <path d="M 123.824023 177.956092 
L 123.824023 176.873068 
" clip-path="url(#pcade6dc55e)" style="fill: none; stroke: #1f77b4; stroke-width: 2.25"/>
    <path d="M 140.05675 173.922711 
L 140.05675 161.603112 
" clip-path="url(#pcade6dc55e)" style="fill: none; stroke: #1f77b4; stroke-width: 2.25"/>
    <path d="M 180.638568 184.204668 
L 180.638568 170.578987 
" clip-path="url(#pcade6dc55e)" style="fill: none; stroke: #1f77b4; stroke-width: 2.25"/>
    <path d="M 188.754932 198.256145 
L 188.754932 187.303248 
" clip-path="url(#pcade6dc55e)" style="fill: none; stroke: #1f77b4; stroke-width: 2.25"/>
    <path d="M 213.104023 185.141981 
L 213.104023 179.087389 
" clip-path="url(#pcade6dc55e)" style="fill: none; stroke: #1f77b4; stroke-width: 2.25"/>
    <path d="M 221.220386 185.846449 
L 221.220386 159.033339 
" clip-path="url(#pcade6dc55e)" style="fill: none; stroke: #1f77b4; stroke-width: 2.25"/>
    <path d="M 237.453114 175.922345 
L 237.453114 165.338724 
" clip-path="url(#pcade6dc55e)" style="fill: none; stroke: #1f77b4; stroke-width: 2.25"/>
    <path d="M 318.61675 204.154807 
L 318.61675 177.598701 
" clip-path="url(#pcade6dc55e)" style="fill: none; stroke: #1f77b4; stroke-width: 2.25"/>
    <path d="M 367.314932 140.747604 
L 367.314932 127.555902 
" clip-path="url(#pcade6dc55e)" style="fill: none; stroke: #1f77b4; stroke-width: 2.25"/>
    <path d="M 399.780386 28.672393 
L 399.780386 14.675273 
" clip-path="url(#pcade6dc55e)" style="fill: none; stroke: #1f77b4; stroke-width: 2.25"/>
   </g>
   <g id="line2d_21">
    <path d="M 75.125841 25.6533 
L 78.388701 42.401805 
L 81.65156 57.916167 
L 84.91442 72.251407 
L 88.17728 85.461404 
L 91.44014 97.598897 
L 94.703 108.715484 
L 97.965859 118.861625 
L 101.228719 128.086638 
L 104.491579 136.4387 
L 107.754439 143.964849 
L 111.017298 150.710983 
L 114.280158 156.721859 
L 117.543018 162.041092 
L 120.805878 166.71116 
L 124.068737 170.773399 
L 127.331597 174.268005 
L 130.594457 177.234032 
L 133.857317 179.709397 
L 137.120176 181.730874 
L 140.383036 183.334097 
L 143.645896 184.553561 
L 146.908756 185.42262 
L 150.171615 185.973488 
L 153.434475 186.237237 
L 156.697335 186.243801 
L 159.960195 186.021973 
L 163.223054 185.599404 
L 166.485914 185.002608 
L 171.380204 183.835925 
L 176.274493 182.414868 
L 182.800213 180.25331 
L 205.640231 172.345168 
L 212.165951 170.486386 
L 217.06024 169.315242 
L 221.95453 168.365659 
L 226.84882 167.658803 
L 231.743109 167.21007 
L 236.637399 167.02908 
L 241.531688 167.119682 
L 246.425978 167.479951 
L 251.320268 168.102191 
L 256.214557 168.972932 
L 261.108847 170.072931 
L 266.003137 171.377172 
L 272.528856 173.379825 
L 280.686005 176.178605 
L 297.000304 181.897792 
L 301.894594 183.386678 
L 306.788883 184.646847 
L 310.051743 185.321172 
L 313.314603 185.834097 
L 316.577463 186.159681 
L 319.840322 186.270841 
L 323.103182 186.139354 
L 326.366042 185.735859 
L 329.628902 185.029851 
L 332.891761 183.989688 
L 336.154621 182.582584 
L 339.417481 180.774618 
L 342.680341 178.530722 
L 345.943201 175.814695 
L 349.20606 172.589189 
L 352.46892 168.81572 
L 355.73178 164.454662 
L 358.99464 159.465249 
L 362.257499 153.805575 
L 365.520359 147.432594 
L 368.783219 140.302118 
L 372.046079 132.368821 
L 375.308938 123.586235 
L 378.571798 113.906751 
L 381.834658 103.281623 
L 385.097518 91.660962 
L 388.360377 78.993738 
L 391.623237 65.227783 
L 394.886097 50.309789 
L 398.148957 34.185304 
L 399.780386 25.6533 
L 399.780386 25.6533 
" clip-path="url(#pcade6dc55e)" style="fill: none; stroke: #000000; stroke-linecap: round"/>
   </g>
   <g id="line2d_22">
    <path d="M 75.276613 -1 
L 86.54585 57.312093 
L 91.44014 81.212523 
L 94.703 96.168692 
L 97.965859 110.151499 
L 101.228719 123.027535 
L 104.491579 134.69364 
L 107.754439 145.078622 
L 111.017298 154.143999 
L 112.648728 158.178706 
L 114.280158 161.88372 
L 115.911588 165.263142 
L 117.543018 168.322891 
L 119.174448 171.070609 
L 120.805878 173.515562 
L 122.437307 175.668523 
L 124.068737 177.541652 
L 125.700167 179.148357 
L 127.331597 180.503152 
L 128.963027 181.621514 
L 130.594457 182.519724 
L 132.225887 183.214713 
L 133.857317 183.7239 
L 135.488746 184.065033 
L 137.120176 184.25603 
L 138.751606 184.31482 
L 142.014466 184.106639 
L 145.277326 183.578462 
L 150.171615 182.464885 
L 156.697335 180.947233 
L 159.960195 180.362627 
L 163.223054 179.969311 
L 166.485914 179.797756 
L 169.748774 179.858221 
L 173.011634 180.142087 
L 176.274493 180.623866 
L 181.168783 181.627464 
L 194.220222 184.586934 
L 197.483082 185.052749 
L 200.745941 185.294467 
L 204.008801 185.268219 
L 207.271661 184.941256 
L 210.534521 184.293339 
L 213.797381 183.317537 
L 217.06024 182.020459 
L 220.3231 180.421923 
L 223.58596 178.55412 
L 226.84882 176.460331 
L 231.743109 173.013341 
L 243.163118 164.663024 
L 246.425978 162.505744 
L 249.688838 160.571699 
L 252.951698 158.920065 
L 256.214557 157.602937 
L 259.477417 156.66391 
L 262.740277 156.136944 
L 266.003137 156.045511 
L 267.634566 156.167443 
L 269.265996 156.402037 
L 272.528856 157.207615 
L 275.791716 158.451978 
L 279.054576 160.113702 
L 282.317435 162.16062 
L 285.580295 164.550427 
L 288.843155 167.231425 
L 293.737444 171.665159 
L 308.420313 185.600396 
L 311.683173 188.295367 
L 314.946033 190.656377 
L 318.208893 192.597627 
L 319.840322 193.384783 
L 321.471752 194.036219 
L 323.103182 194.542261 
L 324.734612 194.893599 
L 326.366042 195.081328 
L 327.997472 195.096991 
L 329.628902 194.932625 
L 331.260332 194.580798 
L 332.891761 194.034656 
L 334.523191 193.287954 
L 336.154621 192.335102 
L 337.786051 191.171196 
L 339.417481 189.792051 
L 341.048911 188.194236 
L 342.680341 186.375099 
L 344.311771 184.332796 
L 345.943201 182.066312 
L 347.57463 179.575479 
L 349.20606 176.860997 
L 352.46892 170.768283 
L 355.73178 163.811451 
L 358.99464 156.028026 
L 362.257499 147.469585 
L 365.520359 138.201301 
L 368.783219 128.301186 
L 373.677508 112.465764 
L 378.571798 95.759331 
L 394.886097 38.920244 
L 399.780386 23.138233 
L 399.780386 23.138233 
" clip-path="url(#pcade6dc55e)" style="fill: none; stroke: #ff7f0e; stroke-width: 2.25; stroke-linecap: round"/>
   </g>
   <g id="line2d_23">
    <defs>
     <path id="m4b42f9dba7" d="M 0 2.5 
C 0.663008 2.5 1.29895 2.236584 1.767767 1.767767 
C 2.236584 1.29895 2.5 0.663008 2.5 0 
C 2.5 -0.663008 2.236584 -1.29895 1.767767 -1.767767 
C 1.29895 -2.236584 0.663008 -2.5 0 -2.5 
C -0.663008 -2.5 -1.29895 -2.236584 -1.767767 -1.767767 
C -2.236584 -1.29895 -2.5 -0.663008 -2.5 0 
C -2.5 0.663008 -2.236584 1.29895 -1.767767 1.767767 
C -1.29895 2.236584 -0.663008 2.5 0 2.5 
z
" style="stroke: #1f77b4"/>
    </defs>
    <g clip-path="url(#pcade6dc55e)">
     <use xlink:href="#m4b42f9dba7" x="91.358568" y="78.688107" style="fill: #1f77b4; stroke: #1f77b4"/>
     <use xlink:href="#m4b42f9dba7" x="123.824023" y="177.41458" style="fill: #1f77b4; stroke: #1f77b4"/>
     <use xlink:href="#m4b42f9dba7" x="140.05675" y="167.762912" style="fill: #1f77b4; stroke: #1f77b4"/>
     <use xlink:href="#m4b42f9dba7" x="180.638568" y="177.391828" style="fill: #1f77b4; stroke: #1f77b4"/>
     <use xlink:href="#m4b42f9dba7" x="188.754932" y="192.779696" style="fill: #1f77b4; stroke: #1f77b4"/>
     <use xlink:href="#m4b42f9dba7" x="213.104023" y="182.114685" style="fill: #1f77b4; stroke: #1f77b4"/>
     <use xlink:href="#m4b42f9dba7" x="221.220386" y="172.439894" style="fill: #1f77b4; stroke: #1f77b4"/>
     <use xlink:href="#m4b42f9dba7" x="237.453114" y="170.630535" style="fill: #1f77b4; stroke: #1f77b4"/>
     <use xlink:href="#m4b42f9dba7" x="318.61675" y="190.876754" style="fill: #1f77b4; stroke: #1f77b4"/>
     <use xlink:href="#m4b42f9dba7" x="367.314932" y="134.151753" style="fill: #1f77b4; stroke: #1f77b4"/>
     <use xlink:href="#m4b42f9dba7" x="399.780386" y="21.673833" style="fill: #1f77b4; stroke: #1f77b4"/>
    </g>
   </g>
   <g id="patch_3">
    <path d="M 58.893114 291.7653 
L 58.893114 25.6533 
" style="fill: none; stroke: #262626; stroke-width: 1.875; stroke-linejoin: miter; stroke-linecap: square"/>
   </g>
   <g id="patch_4">
    <path d="M 416.013114 291.7653 
L 416.013114 25.6533 
" style="fill: none; stroke: #262626; stroke-width: 1.875; stroke-linejoin: miter; stroke-linecap: square"/>
   </g>
   <g id="patch_5">
    <path d="M 58.893114 291.7653 
L 416.013114 291.7653 
" style="fill: none; stroke: #262626; stroke-width: 1.875; stroke-linejoin: miter; stroke-linecap: square"/>
   </g>
   <g id="patch_6">
    <path d="M 58.893114 25.6533 
L 416.013114 25.6533 
" style="fill: none; stroke: #262626; stroke-width: 1.875; stroke-linejoin: miter; stroke-linecap: square"/>
   </g>
   <g id="text_11">
    <!-- Gaussian Process Interpolation -->
    <g style="fill: #262626" transform="translate(125.911457 19.6533) scale(0.18 -0.18)">
     <defs>
      <path id="CMR17-47" d="M 3974 1258 
C 3974 1503 3994 1536 4390 1536 
L 4390 1702 
C 4237 1689 3891 1689 3718 1689 
C 3539 1689 3040 1696 2797 1702 
L 2797 1536 
L 2989 1536 
C 3539 1536 3552 1464 3552 1232 
L 3552 806 
C 3552 96 2720 38 2522 38 
C 1862 38 781 496 781 2179 
C 781 3862 1843 4313 2464 4313 
C 3187 4313 3712 3681 3834 2785 
C 3846 2708 3846 2695 3904 2695 
C 3974 2695 3974 2708 3974 2824 
L 3974 4351 
C 3974 4467 3968 4473 3930 4473 
C 3904 4473 3898 4467 3853 4390 
L 3571 3849 
C 3258 4249 2874 4480 2381 4480 
C 1286 4480 294 3507 294 2179 
C 294 858 1267 -128 2394 -128 
C 2912 -128 3418 57 3616 425 
C 3725 161 3904 -20 3936 -20 
C 3968 -20 3974 -13 3974 102 
L 3974 1258 
z
" transform="scale(0.015625)"/>
      <path id="CMR17-61" d="M 2304 1656 
C 2304 2048 2304 2275 2035 2534 
C 1798 2751 1523 2816 1306 2816 
C 800 2816 435 2408 435 1977 
C 435 1740 627 1728 666 1728 
C 749 1728 896 1779 896 1958 
C 896 2118 774 2188 666 2188 
C 640 2188 608 2182 589 2176 
C 723 2594 1069 2713 1293 2713 
C 1613 2713 1965 2421 1965 1875 
L 1965 1632 
C 1587 1619 1133 1568 774 1373 
C 371 1147 256 822 256 576 
C 256 77 832 -64 1171 -64 
C 1523 -64 1850 135 1990 505 
C 2003 219 2182 -39 2464 -39 
C 2598 -39 2938 51 2938 563 
L 2938 926 
L 2822 926 
L 2822 557 
C 2822 161 2650 109 2566 109 
C 2304 109 2304 446 2304 732 
L 2304 1656 
z
M 1965 887 
C 1965 323 1568 38 1216 38 
C 896 38 646 278 646 576 
C 646 771 730 1114 1101 1322 
C 1408 1497 1760 1523 1965 1536 
L 1965 887 
z
" transform="scale(0.015625)"/>
      <path id="CMR17-75" d="M 1882 2745 
L 1882 2579 
C 2259 2579 2317 2540 2317 2229 
L 2317 1053 
C 2317 510 2029 38 1555 38 
C 1030 38 986 355 986 691 
L 986 2816 
L 211 2745 
L 211 2579 
C 467 2579 640 2579 646 2320 
L 646 1079 
C 646 646 646 368 813 187 
C 896 103 1056 -64 1517 -64 
C 2061 -64 2272 400 2323 536 
L 2330 536 
L 2330 -64 
L 3091 -13 
L 3091 154 
C 2714 154 2656 193 2656 503 
L 2656 2816 
L 1882 2745 
z
" transform="scale(0.015625)"/>
      <path id="CMR17-73" d="M 1978 2688 
C 1978 2803 1971 2809 1933 2809 
C 1907 2809 1901 2803 1824 2707 
C 1805 2681 1747 2617 1728 2592 
C 1523 2809 1235 2816 1126 2816 
C 416 2816 160 2444 160 2073 
C 160 1497 813 1363 998 1324 
C 1402 1241 1542 1216 1677 1100 
C 1760 1024 1901 883 1901 652 
C 1901 384 1747 38 1158 38 
C 602 38 403 460 288 1024 
C 269 1113 269 1120 218 1120 
C 166 1120 160 1113 160 985 
L 160 64 
C 160 -52 166 -58 205 -58 
C 237 -58 243 -52 275 0 
C 314 57 410 211 448 275 
C 576 102 800 -64 1158 -64 
C 1792 -64 2131 281 2131 780 
C 2131 1107 1958 1280 1875 1356 
C 1683 1555 1459 1600 1190 1651 
C 838 1728 390 1817 390 2208 
C 390 2374 480 2726 1126 2726 
C 1811 2726 1850 2086 1862 1881 
C 1869 1849 1901 1843 1920 1843 
C 1978 1843 1978 1862 1978 1971 
L 1978 2688 
z
" transform="scale(0.015625)"/>
      <path id="CMR17-69" d="M 992 3961 
C 992 4102 877 4224 730 4224 
C 589 4224 467 4108 467 3961 
C 467 3820 582 3699 730 3699 
C 870 3699 992 3814 992 3961 
z
M 243 2745 
L 243 2579 
C 602 2579 653 2540 653 2231 
L 653 443 
C 653 198 627 166 218 166 
L 218 0 
C 371 12 646 12 806 12 
C 960 12 1222 12 1370 0 
L 1370 166 
C 992 166 979 205 979 436 
L 979 2816 
L 243 2745 
z
" transform="scale(0.015625)"/>
      <path id="CMR17-6e" d="M 2656 1954 
C 2656 2282 2592 2816 1837 2816 
C 1331 2816 1069 2424 973 2166 
L 966 2166 
L 966 2816 
L 211 2745 
L 211 2578 
C 589 2578 646 2540 646 2231 
L 646 443 
C 646 198 621 166 211 166 
L 211 0 
C 365 12 646 12 813 12 
C 979 12 1267 12 1421 0 
L 1421 166 
C 1011 166 986 192 986 443 
L 986 1678 
C 986 2269 1344 2713 1792 2713 
C 2266 2713 2317 2289 2317 1980 
L 2317 443 
C 2317 198 2291 166 1882 166 
L 1882 0 
C 2035 12 2317 12 2483 12 
C 2650 12 2938 12 3091 0 
L 3091 166 
C 2682 166 2656 192 2656 443 
L 2656 1954 
z
" transform="scale(0.015625)"/>
      <path id="CMR17-50" d="M 1267 2048 
L 2291 2048 
C 3117 2048 3718 2583 3718 3187 
C 3718 3791 3130 4352 2291 4352 
L 333 4352 
L 333 4185 
C 774 4185 845 4185 845 3899 
L 845 453 
C 845 166 774 166 333 166 
L 333 0 
C 518 12 858 12 1056 12 
C 1254 12 1594 12 1779 0 
L 1779 166 
C 1338 166 1267 166 1267 453 
L 1267 2048 
z
M 1254 2182 
L 1254 3937 
C 1254 4153 1267 4185 1523 4185 
L 2170 4185 
C 2995 4185 3232 3715 3232 3187 
C 3232 2608 2950 2182 2170 2182 
L 1254 2182 
z
" transform="scale(0.015625)"/>
      <path id="CMR17-72" d="M 960 1517 
C 960 2134 1222 2713 1702 2713 
C 1747 2713 1792 2707 1837 2687 
C 1837 2687 1696 2642 1696 2475 
C 1696 2321 1818 2257 1914 2257 
C 1990 2257 2131 2302 2131 2482 
C 2131 2687 1926 2816 1709 2816 
C 1222 2816 1011 2340 947 2115 
L 941 2115 
L 941 2816 
L 198 2745 
L 198 2578 
C 576 2578 634 2540 634 2231 
L 634 443 
C 634 198 608 166 198 166 
L 198 0 
C 352 12 646 12 813 12 
C 998 12 1325 12 1498 0 
L 1498 166 
C 1037 166 960 166 960 455 
L 960 1517 
z
" transform="scale(0.015625)"/>
      <path id="CMR17-6f" d="M 2758 1356 
C 2758 2176 2163 2816 1466 2816 
C 768 2816 173 2176 173 1356 
C 173 550 768 -64 1466 -64 
C 2163 -64 2758 550 2758 1356 
z
M 1466 51 
C 1165 51 909 230 762 480 
C 602 768 582 1126 582 1408 
C 582 1676 595 2009 762 2297 
C 890 2508 1139 2713 1466 2713 
C 1754 2713 1997 2553 2150 2329 
C 2349 2028 2349 1606 2349 1408 
C 2349 1158 2336 774 2163 467 
C 1984 172 1709 51 1466 51 
z
" transform="scale(0.015625)"/>
      <path id="CMR17-63" d="M 2234 2240 
C 2112 2240 1933 2240 1933 2015 
C 1933 1836 2080 1785 2163 1785 
C 2208 1785 2394 1804 2394 2028 
C 2394 2476 1958 2816 1466 2816 
C 787 2816 211 2201 211 1379 
C 211 521 813 -64 1466 -64 
C 2259 -64 2458 676 2458 747 
C 2458 773 2451 792 2406 792 
C 2362 792 2355 786 2330 702 
C 2163 180 1798 51 1523 51 
C 1114 51 621 431 621 1385 
C 621 2358 1094 2700 1472 2700 
C 1722 2700 2093 2582 2234 2240 
z
" transform="scale(0.015625)"/>
      <path id="CMR17-65" d="M 2438 1503 
C 2464 1529 2464 1542 2464 1606 
C 2464 2251 2118 2816 1389 2816 
C 710 2816 173 2175 173 1394 
C 173 554 781 -64 1459 -64 
C 2176 -64 2458 619 2458 755 
C 2458 800 2419 800 2406 800 
C 2362 800 2355 787 2330 709 
C 2189 270 1837 51 1504 51 
C 1229 51 954 206 781 490 
C 582 819 582 1200 582 1503 
L 2438 1503 
z
M 589 1600 
C 634 2511 1126 2713 1382 2713 
C 1818 2713 2112 2308 2118 1600 
L 589 1600 
z
" transform="scale(0.015625)"/>
      <path id="CMR17-49" d="M 1261 3898 
C 1261 4185 1338 4185 1798 4185 
L 1798 4352 
C 1594 4339 1267 4339 1050 4339 
C 832 4339 506 4339 301 4352 
L 301 4185 
C 762 4185 838 4185 838 3898 
L 838 453 
C 838 166 762 166 301 166 
L 301 0 
C 506 12 832 12 1050 12 
C 1267 12 1594 12 1798 0 
L 1798 166 
C 1338 166 1261 166 1261 453 
L 1261 3898 
z
" transform="scale(0.015625)"/>
      <path id="CMR17-74" d="M 966 2585 
L 1862 2585 
L 1862 2752 
L 966 2752 
L 966 3968 
L 851 3968 
C 838 3292 614 2700 70 2687 
L 70 2585 
L 627 2585 
L 627 778 
C 627 655 627 -64 1370 -64 
C 1747 -64 1965 308 1965 784 
L 1965 1151 
L 1850 1151 
L 1850 790 
C 1850 347 1677 51 1408 51 
C 1222 51 966 179 966 765 
L 966 2585 
z
" transform="scale(0.015625)"/>
      <path id="CMR17-70" d="M 1408 -1114 
C 998 -1114 973 -1088 973 -834 
L 973 380 
C 1158 109 1427 -64 1766 -64 
C 2406 -64 3053 503 3053 1382 
C 3053 2196 2496 2816 1837 2816 
C 1453 2816 1139 2603 960 2345 
L 960 2816 
L 198 2745 
L 198 2577 
C 576 2577 634 2539 634 2228 
L 634 -834 
C 634 -1081 608 -1114 198 -1114 
L 198 -1280 
C 352 -1268 634 -1268 800 -1268 
C 966 -1268 1254 -1268 1408 -1280 
L 1408 -1114 
z
M 973 2015 
C 973 2106 973 2241 1222 2481 
C 1254 2506 1472 2700 1792 2700 
C 2259 2700 2643 2112 2643 1376 
C 2643 639 2234 38 1728 38 
C 1498 38 1248 148 1056 451 
C 973 594 973 632 973 736 
L 973 2015 
z
" transform="scale(0.015625)"/>
      <path id="CMR17-6c" d="M 979 4416 
L 218 4345 
L 218 4179 
C 595 4179 653 4141 653 3835 
L 653 439 
C 653 198 627 166 218 166 
L 218 0 
C 371 12 653 12 813 12 
C 979 12 1261 12 1414 0 
L 1414 166 
C 1005 166 979 191 979 439 
L 979 4416 
z
" transform="scale(0.015625)"/>
     </defs>
     <use xlink:href="#CMR17-47" transform="scale(0.996264)"/>
     <use xlink:href="#CMR17-61" transform="translate(72.355346 0) scale(0.996264)"/>
     <use xlink:href="#CMR17-75" transform="translate(118.045823 0) scale(0.996264)"/>
     <use xlink:href="#CMR17-73" transform="translate(168.941193 0) scale(0.996264)"/>
     <use xlink:href="#CMR17-73" transform="translate(204.74253 0) scale(0.996264)"/>
     <use xlink:href="#CMR17-69" transform="translate(240.543868 0) scale(0.996264)"/>
     <use xlink:href="#CMR17-61" transform="translate(265.414927 0) scale(0.996264)"/>
     <use xlink:href="#CMR17-6e" transform="translate(311.105404 0) scale(0.996264)"/>
     <use xlink:href="#CMR17-50" transform="translate(392.07674 0) scale(0.996264)"/>
     <use xlink:href="#CMR17-72" transform="translate(454.66304 0) scale(0.996264)"/>
     <use xlink:href="#CMR17-6f" transform="translate(489.943808 0) scale(0.996264)"/>
     <use xlink:href="#CMR17-63" transform="translate(538.236724 0) scale(0.996264)"/>
     <use xlink:href="#CMR17-65" transform="translate(578.722384 0) scale(0.996264)"/>
     <use xlink:href="#CMR17-73" transform="translate(619.208045 0) scale(0.996264)"/>
     <use xlink:href="#CMR17-73" transform="translate(655.009383 0) scale(0.996264)"/>
     <use xlink:href="#CMR17-49" transform="translate(720.886687 0) scale(0.996264)"/>
     <use xlink:href="#CMR17-6e" transform="translate(753.525096 0) scale(0.996264)"/>
     <use xlink:href="#CMR17-74" transform="translate(801.818012 0) scale(0.996264)"/>
     <use xlink:href="#CMR17-65" transform="translate(837.098779 0) scale(0.996264)"/>
     <use xlink:href="#CMR17-72" transform="translate(877.58444 0) scale(0.996264)"/>
     <use xlink:href="#CMR17-70" transform="translate(912.865208 0) scale(0.996264)"/>
     <use xlink:href="#CMR17-6f" transform="translate(966.363016 0) scale(0.996264)"/>
     <use xlink:href="#CMR17-6c" transform="translate(1012.053493 0) scale(0.996264)"/>
     <use xlink:href="#CMR17-61" transform="translate(1036.924552 0) scale(0.996264)"/>
     <use xlink:href="#CMR17-74" transform="translate(1082.615029 0) scale(0.996264)"/>
     <use xlink:href="#CMR17-69" transform="translate(1117.895797 0) scale(0.996264)"/>
     <use xlink:href="#CMR17-6f" transform="translate(1142.766855 0) scale(0.996264)"/>
     <use xlink:href="#CMR17-6e" transform="translate(1188.457332 0) scale(0.996264)"/>
    </g>
   </g>
   <g id="legend_1">
    <g id="patch_7">
     <path d="M 67.293114 285.7653 
L 286.366425 285.7653 
Q 288.766425 285.7653 288.766425 283.3653 
L 288.766425 251.116109 
Q 288.766425 248.716109 286.366425 248.716109 
L 67.293114 248.716109 
Q 64.893114 248.716109 64.893114 251.116109 
L 64.893114 283.3653 
Q 64.893114 285.7653 67.293114 285.7653 
z
" style="fill: #ffffff; opacity: 0.8; stroke: #cccccc; stroke-width: 1.5; stroke-linejoin: miter"/>
    </g>
    <g id="line2d_24">
     <path d="M 69.693114 257.716109 
L 81.693114 257.716109 
L 93.693114 257.716109 
" style="fill: none; stroke: #000000; stroke-linecap: round"/>
    </g>
    <g id="text_12">
     <!-- Function -->
     <g style="fill: #262626" transform="translate(103.293114 261.916109) scale(0.12 -0.12)">
      <defs>
       <path id="CMR17-46" d="M 3482 4339 
L 326 4339 
L 326 4172 
C 768 4172 838 4172 838 3883 
L 838 450 
C 838 166 768 166 326 166 
L 326 0 
C 512 12 870 12 1069 12 
C 1331 12 1638 12 1901 0 
L 1901 166 
L 1760 166 
C 1274 166 1261 229 1261 456 
L 1261 2073 
L 1837 2073 
C 2432 2073 2490 1865 2490 1334 
L 2605 1334 
L 2605 2991 
L 2490 2991 
C 2490 2451 2432 2240 1837 2240 
L 1261 2240 
L 1261 3922 
C 1261 4140 1274 4172 1530 4172 
L 2355 4172 
C 3322 4172 3430 3774 3520 2920 
L 3635 2920 
L 3482 4339 
z
" transform="scale(0.015625)"/>
      </defs>
      <use xlink:href="#CMR17-46" transform="scale(0.996264)"/>
      <use xlink:href="#CMR17-75" transform="translate(52.176591 0) scale(0.996264)"/>
      <use xlink:href="#CMR17-6e" transform="translate(103.071961 0) scale(0.996264)"/>
      <use xlink:href="#CMR17-63" transform="translate(153.967331 0) scale(0.996264)"/>
      <use xlink:href="#CMR17-74" transform="translate(194.452991 0) scale(0.996264)"/>
      <use xlink:href="#CMR17-69" transform="translate(229.733759 0) scale(0.996264)"/>
      <use xlink:href="#CMR17-6f" transform="translate(254.604818 0) scale(0.996264)"/>
      <use xlink:href="#CMR17-6e" transform="translate(300.295295 0) scale(0.996264)"/>
     </g>
    </g>
    <g id="line2d_25">
     <path d="M 69.693114 274.440704 
L 81.693114 274.440704 
L 93.693114 274.440704 
" style="fill: none; stroke: #ff7f0e; stroke-width: 2.25; stroke-linecap: round"/>
    </g>
    <g id="text_13">
     <!-- GP -->
     <g style="fill: #262626" transform="translate(103.293114 278.640704) scale(0.12 -0.12)">
      <use xlink:href="#CMR17-47" transform="scale(0.996264)"/>
      <use xlink:href="#CMR17-50" transform="translate(72.355346 0) scale(0.996264)"/>
     </g>
    </g>
    <g id="patch_8">
     <path d="M 172.326555 261.916109 
L 196.326555 261.916109 
L 196.326555 253.516109 
L 172.326555 253.516109 
z
" style="fill: #feb308; fill-opacity: 0.2; stroke: #feb308; stroke-opacity: 0.2; stroke-width: 1.5; stroke-linejoin: miter"/>
    </g>
    <g id="text_14">
     <!-- 95\% confidence -->
     <g style="fill: #262626" transform="translate(205.926555 261.916109) scale(0.12 -0.12)">
      <defs>
       <path id="CMR17-39" d="M 2253 1871 
C 2253 448 1670 25 1190 25 
C 1043 25 685 43 538 281 
C 704 256 826 345 826 505 
C 826 678 685 736 595 736 
C 538 736 365 710 365 492 
C 365 68 742 -128 1203 -128 
C 1939 -128 2688 665 2688 2090 
C 2688 3857 1971 4224 1485 4224 
C 851 4224 243 3664 243 2800 
C 243 2000 762 1408 1414 1408 
C 1952 1408 2189 1910 2253 2122 
L 2253 1871 
z
M 1427 1510 
C 1254 1510 1011 1542 813 1929 
C 678 2181 678 2477 678 2793 
C 678 3174 678 3438 858 3722 
C 947 3857 1114 4076 1485 4076 
C 2240 4076 2240 2909 2240 2651 
C 2240 2193 2035 1510 1427 1510 
z
" transform="scale(0.015625)"/>
       <path id="CMR17-25" d="M 4640 928 
C 4640 1670 4275 2214 3846 2214 
C 3411 2214 2970 1708 2970 928 
C 2970 147 3405 -359 3846 -359 
C 4275 -359 4640 179 4640 928 
z
M 3853 -256 
C 3686 -256 3270 -103 3270 928 
C 3270 1964 3686 2112 3853 2112 
C 4205 2112 4525 1606 4525 928 
C 4525 249 4205 -256 3853 -256 
z
M 4083 4572 
C 4128 4644 4134 4651 4134 4684 
C 4134 4761 4077 4800 4026 4800 
C 3962 4800 3936 4755 3891 4703 
C 3520 4155 3008 4096 2746 4096 
C 2106 4096 1715 4479 1594 4598 
C 1510 4677 1389 4800 1171 4800 
C 736 4800 294 4281 294 3496 
C 294 2718 730 2214 1171 2214 
C 1600 2214 1965 2750 1965 3496 
C 1965 3936 1830 4241 1811 4281 
C 2202 4025 2586 3993 2752 3993 
C 3162 3993 3456 4148 3616 4261 
L 3622 4254 
L 858 -122 
C 800 -212 800 -224 800 -244 
C 800 -314 858 -359 915 -359 
C 973 -359 992 -327 1037 -256 
L 4083 4572 
z
M 1178 2316 
C 1011 2316 595 2469 595 3496 
C 595 4545 1011 4697 1178 4697 
C 1530 4697 1850 4175 1850 3496 
C 1850 2820 1530 2316 1178 2316 
z
" transform="scale(0.015625)"/>
       <path id="CMR17-c" d="M 2554 2816 
C 2400 2809 1926 2777 1805 2764 
C 1766 2758 1754 2758 1677 2758 
L 947 2758 
L 947 3517 
C 947 4127 1434 4416 1818 4416 
C 1939 4416 2214 4383 2355 4160 
C 2291 4160 2086 4160 2086 3935 
C 2086 3782 2189 3705 2317 3705 
C 2432 3705 2547 3769 2547 3942 
C 2547 4265 2240 4518 1843 4518 
C 1338 4518 634 4225 634 3517 
L 634 2758 
L 122 2758 
L 122 2591 
L 634 2591 
L 634 442 
C 634 198 608 166 198 166 
L 198 0 
C 352 12 634 12 794 12 
C 960 12 1242 12 1395 0 
L 1395 166 
C 986 166 960 192 960 442 
L 960 2591 
L 1901 2591 
C 2176 2591 2227 2534 2227 2251 
L 2227 442 
C 2227 198 2202 166 1792 166 
L 1792 0 
C 1946 12 2227 12 2387 12 
C 2554 12 2835 12 2989 0 
L 2989 166 
C 2579 166 2554 192 2554 442 
L 2554 2816 
z
" transform="scale(0.015625)"/>
       <path id="CMR17-64" d="M 1869 4345 
L 1869 4179 
C 2246 4179 2304 4141 2304 3843 
L 2304 2371 
C 2278 2403 2016 2816 1498 2816 
C 845 2816 211 2228 211 1376 
C 211 529 806 -64 1434 -64 
C 1978 -64 2259 361 2291 406 
L 2291 -64 
L 3066 -13 
L 3066 154 
C 2688 154 2630 193 2630 503 
L 2630 4416 
L 1869 4345 
z
M 2291 762 
C 2291 568 2176 393 2029 264 
C 1811 70 1594 38 1472 38 
C 1286 38 621 135 621 1369 
C 621 2636 1363 2713 1530 2713 
C 1824 2713 2061 2545 2208 2313 
C 2291 2177 2291 2157 2291 2041 
L 2291 762 
z
" transform="scale(0.015625)"/>
      </defs>
      <use xlink:href="#CMR17-39" transform="scale(0.996264)"/>
      <use xlink:href="#CMR17-35" transform="translate(45.690477 0) scale(0.996264)"/>
      <use xlink:href="#CMR17-25" transform="translate(91.380954 0) scale(0.996264)"/>
      <use xlink:href="#CMR17-63" transform="translate(198.37651 0) scale(0.996264)"/>
      <use xlink:href="#CMR17-6f" transform="translate(238.862171 0) scale(0.996264)"/>
      <use xlink:href="#CMR17-6e" transform="translate(284.552648 0) scale(0.996264)"/>
      <use xlink:href="#CMR17-c" transform="translate(335.448018 0) scale(0.996264)"/>
      <use xlink:href="#CMR17-64" transform="translate(385.190241 0) scale(0.996264)"/>
      <use xlink:href="#CMR17-65" transform="translate(436.085611 0) scale(0.996264)"/>
      <use xlink:href="#CMR17-6e" transform="translate(476.571271 0) scale(0.996264)"/>
      <use xlink:href="#CMR17-63" transform="translate(527.466641 0) scale(0.996264)"/>
      <use xlink:href="#CMR17-65" transform="translate(567.952302 0) scale(0.996264)"/>
     </g>
    </g>
    <g id="LineCollection_2">
     <path d="M 184.326555 280.440704 
L 184.326555 268.440704 
" style="fill: none; stroke: #1f77b4; stroke-width: 2.25"/>
    </g>
    <g id="line2d_26"/>
    <g id="line2d_27">
     <g>
      <use xlink:href="#m4b42f9dba7" x="184.326555" y="274.440704" style="fill: #1f77b4; stroke: #1f77b4"/>
     </g>
    </g>
    <g id="text_15">
     <!-- Samples -->
     <g style="fill: #262626" transform="translate(205.926555 278.640704) scale(0.12 -0.12)">
      <defs>
       <path id="CMR17-53" d="M 2803 4351 
C 2803 4467 2797 4473 2758 4473 
C 2720 4473 2707 4447 2682 4390 
L 2490 3965 
C 2246 4320 1875 4480 1472 4480 
C 819 4480 294 3958 294 3301 
C 294 3101 339 2817 557 2546 
C 794 2250 1018 2198 1530 2063 
C 1722 2011 2042 1927 2106 1901 
C 2470 1747 2662 1360 2662 999 
C 2662 534 2336 38 1779 38 
C 1094 38 454 425 410 1328 
C 403 1431 397 1437 352 1437 
C 301 1437 294 1431 294 1302 
L 294 0 
C 294 -116 301 -122 339 -122 
C 384 -122 397 -90 486 109 
C 493 128 493 141 614 386 
C 934 -39 1472 -128 1779 -128 
C 2477 -128 2970 457 2970 1141 
C 2970 1476 2848 1734 2778 1850 
C 2509 2263 2221 2340 1914 2417 
C 1869 2437 1856 2437 1498 2527 
C 1152 2617 1005 2662 845 2836 
C 666 3036 602 3243 602 3449 
C 602 3868 934 4326 1478 4326 
C 2157 4326 2579 3842 2675 3036 
C 2694 2920 2701 2914 2746 2914 
C 2803 2914 2803 2933 2803 3043 
L 2803 4351 
z
" transform="scale(0.015625)"/>
       <path id="CMR17-6d" d="M 4326 1954 
C 4326 2276 4269 2816 3507 2816 
C 3072 2816 2771 2520 2656 2173 
L 2650 2173 
C 2573 2700 2195 2816 1837 2816 
C 1331 2816 1069 2424 973 2166 
L 966 2166 
L 966 2816 
L 211 2745 
L 211 2578 
C 589 2578 646 2540 646 2231 
L 646 443 
C 646 198 621 166 211 166 
L 211 0 
C 365 12 646 12 813 12 
C 979 12 1267 12 1421 0 
L 1421 166 
C 1011 166 986 192 986 443 
L 986 1678 
C 986 2269 1344 2713 1792 2713 
C 2266 2713 2317 2289 2317 1980 
L 2317 443 
C 2317 198 2291 166 1882 166 
L 1882 0 
C 2035 12 2317 12 2483 12 
C 2650 12 2938 12 3091 0 
L 3091 166 
C 2682 166 2656 192 2656 443 
L 2656 1678 
C 2656 2269 3014 2713 3462 2713 
C 3936 2713 3987 2289 3987 1980 
L 3987 443 
C 3987 198 3962 166 3552 166 
L 3552 0 
C 3706 12 3987 12 4154 12 
C 4320 12 4608 12 4762 0 
L 4762 166 
C 4352 166 4326 192 4326 443 
L 4326 1954 
z
" transform="scale(0.015625)"/>
      </defs>
      <use xlink:href="#CMR17-53" transform="scale(0.996264)"/>
      <use xlink:href="#CMR17-61" transform="translate(50.89537 0) scale(0.996264)"/>
      <use xlink:href="#CMR17-6d" transform="translate(96.585847 0) scale(0.996264)"/>
      <use xlink:href="#CMR17-70" transform="translate(173.505437 0) scale(0.996264)"/>
      <use xlink:href="#CMR17-6c" transform="translate(224.400807 0) scale(0.996264)"/>
      <use xlink:href="#CMR17-65" transform="translate(249.271865 0) scale(0.996264)"/>
      <use xlink:href="#CMR17-73" transform="translate(289.757525 0) scale(0.996264)"/>
     </g>
    </g>
   </g>
  </g>
 </g>
 <defs>
  <clipPath id="pcade6dc55e">
   <rect x="58.893114" y="25.6533" width="357.12" height="266.112"/>
  </clipPath>
 </defs>
</svg>
