<?xml version="1.0" encoding="utf-8" standalone="no"?>
<!DOCTYPE svg PUBLIC "-//W3C//DTD SVG 1.1//EN"
  "http://www.w3.org/Graphics/SVG/1.1/DTD/svg11.dtd">
<svg xmlns:xlink="http://www.w3.org/1999/xlink" width="416.853722pt" height="334.615296pt" viewBox="0 0 416.853722 334.615296" xmlns="http://www.w3.org/2000/svg" version="1.1">
 <metadata>
  <rdf:RDF xmlns:dc="http://purl.org/dc/elements/1.1/" xmlns:cc="http://creativecommons.org/ns#" xmlns:rdf="http://www.w3.org/1999/02/22-rdf-syntax-ns#">
   <cc:Work>
    <dc:type rdf:resource="http://purl.org/dc/dcmitype/StillImage"/>
    <dc:date>2023-02-26T16:48:29.095860</dc:date>
    <dc:format>image/svg+xml</dc:format>
    <dc:creator>
     <cc:Agent>
      <dc:title>Matplotlib v3.6.2, https://matplotlib.org/</dc:title>
     </cc:Agent>
    </dc:creator>
   </cc:Work>
  </rdf:RDF>
 </metadata>
 <defs>
  <style type="text/css">*{stroke-linejoin: round; stroke-linecap: butt}</style>
 </defs>
 <g id="figure_1">
  <g id="patch_1">
   <path d="M 0 334.615296 
L 416.853722 334.615296 
L 416.853722 -0 
L 0 -0 
z
" style="fill: #ffffff"/>
  </g>
  <g id="axes_1">
   <g id="patch_2">
    <path d="M 52.533722 273.312 
L 409.653722 273.312 
L 409.653722 7.2 
L 52.533722 7.2 
z
" style="fill: #ffffff"/>
   </g>
   <g id="matplotlib.axis_1">
    <g id="xtick_1">
     <g id="line2d_1">
      <defs>
       <path id="md2d3ebb335" d="M 0 0 
L 0 9 
" style="stroke: #262626; stroke-width: 1.875"/>
      </defs>
      <g>
       <use xlink:href="#md2d3ebb335" x="68.766449" y="273.312" style="fill: #262626; stroke: #262626; stroke-width: 1.875"/>
      </g>
     </g>
     <g id="text_1">
      <!-- $\mathdefault{200}$ -->
      <g style="fill: #262626" transform="translate(55.059306 299.648997) scale(0.2 -0.2)">
       <defs>
        <path id="CMR17-32" d="M 2669 990 
L 2554 990 
C 2490 537 2438 460 2413 422 
C 2381 371 1920 371 1830 371 
L 602 371 
C 832 620 1280 1073 1824 1596 
C 2214 1966 2669 2400 2669 3033 
C 2669 3788 2067 4224 1395 4224 
C 691 4224 262 3603 262 3027 
C 262 2777 448 2745 525 2745 
C 589 2745 781 2783 781 3007 
C 781 3206 614 3264 525 3264 
C 486 3264 448 3257 422 3244 
C 544 3788 915 4057 1306 4057 
C 1862 4057 2227 3616 2227 3033 
C 2227 2477 1901 1998 1536 1583 
L 262 147 
L 262 0 
L 2515 0 
L 2669 990 
z
" transform="scale(0.015625)"/>
        <path id="CMR17-30" d="M 2688 2038 
C 2688 2430 2682 3099 2413 3613 
C 2176 4063 1798 4224 1466 4224 
C 1158 4224 768 4082 525 3620 
C 269 3137 243 2539 243 2038 
C 243 1671 250 1112 448 623 
C 723 -39 1216 -128 1466 -128 
C 1760 -128 2208 -7 2470 604 
C 2662 1048 2688 1568 2688 2038 
z
M 1466 -26 
C 1056 -26 813 328 723 816 
C 653 1196 653 1749 653 2109 
C 653 2604 653 3015 736 3407 
C 858 3954 1216 4121 1466 4121 
C 1728 4121 2067 3947 2189 3420 
C 2272 3054 2278 2623 2278 2109 
C 2278 1691 2278 1176 2202 797 
C 2067 96 1690 -26 1466 -26 
z
" transform="scale(0.015625)"/>
       </defs>
       <use xlink:href="#CMR17-32" transform="scale(0.996264)"/>
       <use xlink:href="#CMR17-30" transform="translate(45.690477 0) scale(0.996264)"/>
       <use xlink:href="#CMR17-30" transform="translate(91.380954 0) scale(0.996264)"/>
      </g>
     </g>
    </g>
    <g id="xtick_2">
     <g id="line2d_2">
      <g>
       <use xlink:href="#md2d3ebb335" x="176.984631" y="273.312" style="fill: #262626; stroke: #262626; stroke-width: 1.875"/>
      </g>
     </g>
     <g id="text_2">
      <!-- $\mathdefault{220}$ -->
      <g style="fill: #262626" transform="translate(163.277488 299.648997) scale(0.2 -0.2)">
       <use xlink:href="#CMR17-32" transform="scale(0.996264)"/>
       <use xlink:href="#CMR17-32" transform="translate(45.690477 0) scale(0.996264)"/>
       <use xlink:href="#CMR17-30" transform="translate(91.380954 0) scale(0.996264)"/>
      </g>
     </g>
    </g>
    <g id="xtick_3">
     <g id="line2d_3">
      <g>
       <use xlink:href="#md2d3ebb335" x="285.202813" y="273.312" style="fill: #262626; stroke: #262626; stroke-width: 1.875"/>
      </g>
     </g>
     <g id="text_3">
      <!-- $\mathdefault{240}$ -->
      <g style="fill: #262626" transform="translate(271.495669 299.648997) scale(0.2 -0.2)">
       <defs>
        <path id="CMR17-34" d="M 2150 4147 
C 2150 4281 2144 4288 2029 4288 
L 128 1254 
L 128 1088 
L 1779 1088 
L 1779 460 
C 1779 230 1766 166 1318 166 
L 1197 166 
L 1197 0 
C 1402 12 1747 12 1965 12 
C 2182 12 2528 12 2733 0 
L 2733 166 
L 2611 166 
C 2163 166 2150 230 2150 460 
L 2150 1088 
L 2803 1088 
L 2803 1254 
L 2150 1254 
L 2150 4147 
z
M 1798 3723 
L 1798 1254 
L 256 1254 
L 1798 3723 
z
" transform="scale(0.015625)"/>
       </defs>
       <use xlink:href="#CMR17-32" transform="scale(0.996264)"/>
       <use xlink:href="#CMR17-34" transform="translate(45.690477 0) scale(0.996264)"/>
       <use xlink:href="#CMR17-30" transform="translate(91.380954 0) scale(0.996264)"/>
      </g>
     </g>
    </g>
    <g id="xtick_4">
     <g id="line2d_4">
      <g>
       <use xlink:href="#md2d3ebb335" x="393.420994" y="273.312" style="fill: #262626; stroke: #262626; stroke-width: 1.875"/>
      </g>
     </g>
     <g id="text_4">
      <!-- $\mathdefault{260}$ -->
      <g style="fill: #262626" transform="translate(379.713851 299.648997) scale(0.2 -0.2)">
       <defs>
        <path id="CMR17-36" d="M 678 2198 
C 678 3712 1395 4076 1811 4076 
C 1946 4076 2272 4049 2400 3782 
C 2298 3782 2106 3782 2106 3558 
C 2106 3385 2246 3328 2336 3328 
C 2394 3328 2566 3353 2566 3571 
C 2566 3987 2246 4224 1805 4224 
C 1043 4224 243 3411 243 2011 
C 243 257 966 -128 1478 -128 
C 2099 -128 2688 431 2688 1295 
C 2688 2101 2170 2688 1517 2688 
C 1126 2688 838 2430 678 1979 
L 678 2198 
z
M 1478 25 
C 691 25 691 1212 691 1450 
C 691 1914 909 2585 1504 2585 
C 1613 2585 1926 2585 2138 2140 
C 2253 1889 2253 1624 2253 1302 
C 2253 954 2253 696 2118 438 
C 1978 173 1773 25 1478 25 
z
" transform="scale(0.015625)"/>
       </defs>
       <use xlink:href="#CMR17-32" transform="scale(0.996264)"/>
       <use xlink:href="#CMR17-36" transform="translate(45.690477 0) scale(0.996264)"/>
       <use xlink:href="#CMR17-30" transform="translate(91.380954 0) scale(0.996264)"/>
      </g>
     </g>
    </g>
    <g id="text_5">
     <!-- Energy (MeV) -->
     <g style="fill: #262626" transform="translate(173.282347 322.450652) scale(0.2 -0.2)">
      <defs>
       <path id="CMR17-45" d="M 3885 1614 
L 3770 1614 
C 3629 676 3546 166 2419 166 
L 1530 166 
C 1274 166 1261 198 1261 415 
L 1261 2176 
L 1862 2176 
C 2464 2176 2522 1959 2522 1429 
L 2637 1429 
L 2637 3086 
L 2522 3086 
C 2522 2558 2464 2342 1862 2342 
L 1261 2342 
L 1261 3924 
C 1261 4141 1274 4172 1530 4172 
L 2406 4172 
C 3398 4172 3514 3778 3603 2933 
L 3718 2933 
L 3565 4339 
L 326 4339 
L 326 4172 
C 768 4172 838 4172 838 3886 
L 838 453 
C 838 166 768 166 326 166 
L 326 0 
L 3654 0 
L 3885 1614 
z
" transform="scale(0.015625)"/>
       <path id="CMR17-6e" d="M 2656 1954 
C 2656 2282 2592 2816 1837 2816 
C 1331 2816 1069 2424 973 2166 
L 966 2166 
L 966 2816 
L 211 2745 
L 211 2578 
C 589 2578 646 2540 646 2231 
L 646 443 
C 646 198 621 166 211 166 
L 211 0 
C 365 12 646 12 813 12 
C 979 12 1267 12 1421 0 
L 1421 166 
C 1011 166 986 192 986 443 
L 986 1678 
C 986 2269 1344 2713 1792 2713 
C 2266 2713 2317 2289 2317 1980 
L 2317 443 
C 2317 198 2291 166 1882 166 
L 1882 0 
C 2035 12 2317 12 2483 12 
C 2650 12 2938 12 3091 0 
L 3091 166 
C 2682 166 2656 192 2656 443 
L 2656 1954 
z
" transform="scale(0.015625)"/>
       <path id="CMR17-65" d="M 2438 1503 
C 2464 1529 2464 1542 2464 1606 
C 2464 2251 2118 2816 1389 2816 
C 710 2816 173 2175 173 1394 
C 173 554 781 -64 1459 -64 
C 2176 -64 2458 619 2458 755 
C 2458 800 2419 800 2406 800 
C 2362 800 2355 787 2330 709 
C 2189 270 1837 51 1504 51 
C 1229 51 954 206 781 490 
C 582 819 582 1200 582 1503 
L 2438 1503 
z
M 589 1600 
C 634 2511 1126 2713 1382 2713 
C 1818 2713 2112 2308 2118 1600 
L 589 1600 
z
" transform="scale(0.015625)"/>
       <path id="CMR17-72" d="M 960 1517 
C 960 2134 1222 2713 1702 2713 
C 1747 2713 1792 2707 1837 2687 
C 1837 2687 1696 2642 1696 2475 
C 1696 2321 1818 2257 1914 2257 
C 1990 2257 2131 2302 2131 2482 
C 2131 2687 1926 2816 1709 2816 
C 1222 2816 1011 2340 947 2115 
L 941 2115 
L 941 2816 
L 198 2745 
L 198 2578 
C 576 2578 634 2540 634 2231 
L 634 443 
C 634 198 608 166 198 166 
L 198 0 
C 352 12 646 12 813 12 
C 998 12 1325 12 1498 0 
L 1498 166 
C 1037 166 960 166 960 455 
L 960 1517 
z
" transform="scale(0.015625)"/>
       <path id="CMR17-67" d="M 710 1165 
C 832 1068 1043 960 1299 960 
C 1805 960 2240 1359 2240 1895 
C 2240 2063 2189 2321 1997 2521 
C 2176 2713 2438 2777 2586 2777 
C 2611 2777 2650 2777 2682 2758 
C 2656 2751 2598 2726 2598 2623 
C 2598 2540 2656 2483 2739 2483 
C 2835 2483 2886 2547 2886 2630 
C 2886 2751 2790 2880 2586 2880 
C 2330 2880 2106 2758 1926 2591 
C 1734 2764 1504 2828 1299 2828 
C 794 2828 358 2431 358 1895 
C 358 1527 570 1294 634 1230 
C 442 1004 442 742 442 710 
C 442 544 506 300 723 166 
C 390 82 128 -184 128 -517 
C 128 -996 736 -1344 1466 -1344 
C 2170 -1344 2803 -1009 2803 -510 
C 2803 384 1856 384 1363 384 
C 1216 384 954 384 922 390 
C 723 422 589 601 589 825 
C 589 883 589 1024 710 1165 
z
M 1299 1068 
C 736 1068 736 1766 736 1895 
C 736 2024 736 2719 1299 2719 
C 1862 2719 1862 2024 1862 1895 
C 1862 1766 1862 1068 1299 1068 
z
M 1466 -1236 
C 826 -1236 384 -883 384 -517 
C 384 -311 493 -118 634 -11 
C 794 102 858 102 1293 102 
C 1818 102 2547 102 2547 -517 
C 2547 -883 2106 -1236 1466 -1236 
z
" transform="scale(0.015625)"/>
       <path id="CMR17-79" d="M 2496 2183 
C 2656 2579 2944 2585 3034 2585 
L 3034 2752 
C 2912 2745 2752 2739 2630 2739 
C 2496 2739 2285 2739 2157 2752 
L 2157 2585 
C 2400 2566 2406 2384 2406 2332 
C 2406 2268 2394 2235 2362 2158 
L 1664 409 
L 902 2300 
C 870 2378 870 2423 870 2430 
C 870 2572 1018 2585 1171 2585 
L 1171 2752 
C 1018 2739 742 2739 582 2739 
C 410 2739 205 2739 64 2752 
L 64 2585 
C 410 2585 448 2553 531 2345 
L 1485 -31 
C 1197 -795 1030 -1242 627 -1242 
C 557 -1242 397 -1223 282 -1106 
C 429 -1093 493 -1002 493 -892 
C 493 -782 416 -685 288 -685 
C 147 -685 77 -782 77 -899 
C 77 -1158 339 -1344 627 -1344 
C 998 -1344 1229 -983 1357 -659 
L 2496 2183 
z
" transform="scale(0.015625)"/>
       <path id="CMR17-28" d="M 1958 -1562 
C 1958 -1556 1958 -1543 1939 -1524 
C 1645 -1223 858 -403 858 1596 
C 858 3595 1632 4408 1946 4729 
C 1946 4735 1958 4748 1958 4767 
C 1958 4787 1939 4800 1914 4800 
C 1843 4800 1299 4325 986 3620 
C 666 2909 576 2218 576 1603 
C 576 1141 621 360 1005 -467 
C 1312 -1133 1837 -1600 1914 -1600 
C 1946 -1600 1958 -1588 1958 -1562 
z
" transform="scale(0.015625)"/>
       <path id="CMR17-4d" d="M 1338 4249 
C 1299 4345 1293 4352 1158 4352 
L 339 4352 
L 339 4185 
C 781 4185 851 4185 851 3898 
L 851 624 
C 851 465 851 166 339 166 
L 339 0 
C 486 12 755 12 915 12 
C 1075 12 1344 12 1491 0 
L 1491 166 
C 979 166 979 465 979 624 
L 979 4159 
L 986 4159 
L 2490 102 
C 2515 38 2528 0 2579 0 
C 2630 0 2643 38 2669 102 
L 4186 4191 
L 4192 4191 
L 4192 453 
C 4192 166 4122 166 3680 166 
L 3680 0 
C 3853 12 4198 12 4384 12 
C 4570 12 4922 12 5094 0 
L 5094 166 
C 4653 166 4582 166 4582 453 
L 4582 3898 
C 4582 4185 4653 4185 5094 4185 
L 5094 4352 
L 4282 4352 
C 4147 4352 4141 4345 4102 4249 
L 2720 516 
L 1338 4249 
z
" transform="scale(0.015625)"/>
       <path id="CMR17-56" d="M 3776 3762 
C 3834 3903 3936 4179 4365 4185 
L 4365 4352 
C 4218 4339 4051 4339 3891 4339 
C 3738 4339 3475 4339 3328 4352 
L 3328 4185 
C 3648 4166 3661 3942 3661 3903 
C 3661 3833 3642 3788 3622 3737 
L 2362 448 
L 1043 3903 
C 1024 3948 1011 3980 1011 4012 
C 1011 4185 1267 4185 1402 4185 
L 1402 4352 
C 1197 4339 896 4339 685 4339 
C 518 4339 218 4339 64 4352 
L 64 4185 
C 435 4185 506 4160 582 3955 
L 2106 -26 
C 2138 -116 2144 -128 2214 -128 
C 2285 -128 2291 -116 2323 -26 
L 3776 3762 
z
" transform="scale(0.015625)"/>
       <path id="CMR17-29" d="M 1683 1596 
C 1683 2057 1638 2839 1254 3665 
C 947 4332 422 4800 346 4800 
C 326 4800 301 4793 301 4761 
C 301 4748 307 4742 314 4729 
C 621 4408 1402 3595 1402 1603 
C 1402 -396 627 -1210 314 -1530 
C 307 -1543 301 -1549 301 -1562 
C 301 -1594 326 -1600 346 -1600 
C 416 -1600 960 -1127 1274 -422 
C 1594 289 1683 981 1683 1596 
z
" transform="scale(0.015625)"/>
      </defs>
      <use xlink:href="#CMR17-45" transform="scale(0.996264)"/>
      <use xlink:href="#CMR17-6e" transform="translate(62.586301 0) scale(0.996264)"/>
      <use xlink:href="#CMR17-65" transform="translate(113.48167 0) scale(0.996264)"/>
      <use xlink:href="#CMR17-72" transform="translate(153.967331 0) scale(0.996264)"/>
      <use xlink:href="#CMR17-67" transform="translate(189.248099 0) scale(0.996264)"/>
      <use xlink:href="#CMR17-79" transform="translate(234.938576 0) scale(0.996264)"/>
      <use xlink:href="#CMR17-28" transform="translate(313.307458 0) scale(0.996264)"/>
      <use xlink:href="#CMR17-4d" transform="translate(348.588226 0) scale(0.996264)"/>
      <use xlink:href="#CMR17-65" transform="translate(433.275166 0) scale(0.996264)"/>
      <use xlink:href="#CMR17-56" transform="translate(473.760827 0) scale(0.996264)"/>
      <use xlink:href="#CMR17-29" transform="translate(542.833257 0) scale(0.996264)"/>
     </g>
    </g>
   </g>
   <g id="matplotlib.axis_2">
    <g id="ytick_1">
     <g id="line2d_5">
      <defs>
       <path id="m5a6b91e936" d="M 0 0 
L -9 0 
" style="stroke: #262626; stroke-width: 1.875"/>
      </defs>
      <g>
       <use xlink:href="#m5a6b91e936" x="52.533722" y="261.216" style="fill: #262626; stroke: #262626; stroke-width: 1.875"/>
      </g>
     </g>
     <g id="text_6">
      <!-- $\mathdefault{0.00}$ -->
      <g style="fill: #262626" transform="translate(7.2 268.134498) scale(0.2 -0.2)">
       <defs>
        <path id="CMMI12-3a" d="M 1178 307 
C 1178 492 1024 620 870 620 
C 685 620 557 467 557 313 
C 557 128 710 0 864 0 
C 1050 0 1178 153 1178 307 
z
" transform="scale(0.015625)"/>
       </defs>
       <use xlink:href="#CMR17-30" transform="scale(0.996264)"/>
       <use xlink:href="#CMMI12-3a" transform="translate(45.690477 0) scale(0.996264)"/>
       <use xlink:href="#CMR17-30" transform="translate(72.787654 0) scale(0.996264)"/>
       <use xlink:href="#CMR17-30" transform="translate(118.478131 0) scale(0.996264)"/>
      </g>
     </g>
    </g>
    <g id="ytick_2">
     <g id="line2d_6">
      <g>
       <use xlink:href="#m5a6b91e936" x="52.533722" y="215.33801" style="fill: #262626; stroke: #262626; stroke-width: 1.875"/>
      </g>
     </g>
     <g id="text_7">
      <!-- $\mathdefault{0.02}$ -->
      <g style="fill: #262626" transform="translate(7.2 222.256508) scale(0.2 -0.2)">
       <use xlink:href="#CMR17-30" transform="scale(0.996264)"/>
       <use xlink:href="#CMMI12-3a" transform="translate(45.690477 0) scale(0.996264)"/>
       <use xlink:href="#CMR17-30" transform="translate(72.787654 0) scale(0.996264)"/>
       <use xlink:href="#CMR17-32" transform="translate(118.478131 0) scale(0.996264)"/>
      </g>
     </g>
    </g>
    <g id="ytick_3">
     <g id="line2d_7">
      <g>
       <use xlink:href="#m5a6b91e936" x="52.533722" y="169.46002" style="fill: #262626; stroke: #262626; stroke-width: 1.875"/>
      </g>
     </g>
     <g id="text_8">
      <!-- $\mathdefault{0.04}$ -->
      <g style="fill: #262626" transform="translate(7.2 176.378518) scale(0.2 -0.2)">
       <use xlink:href="#CMR17-30" transform="scale(0.996264)"/>
       <use xlink:href="#CMMI12-3a" transform="translate(45.690477 0) scale(0.996264)"/>
       <use xlink:href="#CMR17-30" transform="translate(72.787654 0) scale(0.996264)"/>
       <use xlink:href="#CMR17-34" transform="translate(118.478131 0) scale(0.996264)"/>
      </g>
     </g>
    </g>
    <g id="ytick_4">
     <g id="line2d_8">
      <g>
       <use xlink:href="#m5a6b91e936" x="52.533722" y="123.58203" style="fill: #262626; stroke: #262626; stroke-width: 1.875"/>
      </g>
     </g>
     <g id="text_9">
      <!-- $\mathdefault{0.06}$ -->
      <g style="fill: #262626" transform="translate(7.2 130.500529) scale(0.2 -0.2)">
       <use xlink:href="#CMR17-30" transform="scale(0.996264)"/>
       <use xlink:href="#CMMI12-3a" transform="translate(45.690477 0) scale(0.996264)"/>
       <use xlink:href="#CMR17-30" transform="translate(72.787654 0) scale(0.996264)"/>
       <use xlink:href="#CMR17-36" transform="translate(118.478131 0) scale(0.996264)"/>
      </g>
     </g>
    </g>
    <g id="ytick_5">
     <g id="line2d_9">
      <g>
       <use xlink:href="#m5a6b91e936" x="52.533722" y="77.70404" style="fill: #262626; stroke: #262626; stroke-width: 1.875"/>
      </g>
     </g>
     <g id="text_10">
      <!-- $\mathdefault{0.08}$ -->
      <g style="fill: #262626" transform="translate(7.2 84.622539) scale(0.2 -0.2)">
       <defs>
        <path id="CMR17-38" d="M 1741 2289 
C 2144 2494 2554 2803 2554 3298 
C 2554 3884 1990 4224 1472 4224 
C 890 4224 378 3800 378 3215 
C 378 3054 416 2777 666 2533 
C 730 2469 998 2276 1171 2154 
C 883 2006 211 1652 211 945 
C 211 282 838 -128 1459 -128 
C 2144 -128 2720 366 2720 1022 
C 2720 1607 2330 1877 2074 2051 
L 1741 2289 
z
M 902 2855 
C 851 2887 595 3086 595 3388 
C 595 3781 998 4076 1459 4076 
C 1965 4076 2336 3716 2336 3298 
C 2336 2700 1670 2359 1638 2359 
C 1632 2359 1626 2359 1574 2398 
L 902 2855 
z
M 2080 1536 
C 2176 1466 2483 1253 2483 861 
C 2483 385 2010 25 1472 25 
C 890 25 448 443 448 951 
C 448 1459 838 1884 1280 2083 
L 2080 1536 
z
" transform="scale(0.015625)"/>
       </defs>
       <use xlink:href="#CMR17-30" transform="scale(0.996264)"/>
       <use xlink:href="#CMMI12-3a" transform="translate(45.690477 0) scale(0.996264)"/>
       <use xlink:href="#CMR17-30" transform="translate(72.787654 0) scale(0.996264)"/>
       <use xlink:href="#CMR17-38" transform="translate(118.478131 0) scale(0.996264)"/>
      </g>
     </g>
    </g>
    <g id="ytick_6">
     <g id="line2d_10">
      <g>
       <use xlink:href="#m5a6b91e936" x="52.533722" y="31.82605" style="fill: #262626; stroke: #262626; stroke-width: 1.875"/>
      </g>
     </g>
     <g id="text_11">
      <!-- $\mathdefault{0.10}$ -->
      <g style="fill: #262626" transform="translate(7.2 38.744549) scale(0.2 -0.2)">
       <defs>
        <path id="CMR17-31" d="M 1702 4083 
C 1702 4217 1696 4224 1606 4224 
C 1357 3927 979 3833 621 3820 
C 602 3820 570 3820 563 3808 
C 557 3795 557 3782 557 3648 
C 755 3648 1088 3686 1344 3839 
L 1344 467 
C 1344 243 1331 166 781 166 
L 589 166 
L 589 0 
C 896 6 1216 12 1523 12 
C 1830 12 2150 6 2458 0 
L 2458 166 
L 2266 166 
C 1715 166 1702 236 1702 467 
L 1702 4083 
z
" transform="scale(0.015625)"/>
       </defs>
       <use xlink:href="#CMR17-30" transform="scale(0.996264)"/>
       <use xlink:href="#CMMI12-3a" transform="translate(45.690477 0) scale(0.996264)"/>
       <use xlink:href="#CMR17-31" transform="translate(72.787654 0) scale(0.996264)"/>
       <use xlink:href="#CMR17-30" transform="translate(118.478131 0) scale(0.996264)"/>
      </g>
     </g>
    </g>
   </g>
   <g id="PolyCollection_1">
    <defs>
     <path id="m7efab39dd2" d="M 68.766449 -73.399296 
L 68.766449 -73.599481 
L 71.471904 -73.637467 
L 74.177358 -73.681955 
L 76.882813 -73.733914 
L 79.588267 -73.794436 
L 82.293722 -73.864739 
L 84.999176 -73.946182 
L 87.704631 -74.040271 
L 90.410085 -74.148672 
L 93.11554 -74.273217 
L 95.820994 -74.415918 
L 98.526449 -74.578966 
L 101.231904 -74.764747 
L 103.937358 -74.97584 
L 106.642813 -75.215021 
L 109.348267 -75.485268 
L 112.053722 -75.789754 
L 114.759176 -76.131845 
L 117.464631 -76.515093 
L 120.170085 -76.943221 
L 122.87554 -77.420112 
L 125.580994 -77.949786 
L 128.286449 -78.536376 
L 130.991904 -79.184102 
L 133.697358 -79.897234 
L 136.402813 -80.680053 
L 139.108267 -81.536811 
L 141.813722 -82.471678 
L 144.519176 -83.488691 
L 147.224631 -84.591695 
L 149.930085 -85.784281 
L 152.63554 -87.069723 
L 155.340994 -88.450905 
L 158.046449 -89.930254 
L 160.751904 -91.509669 
L 163.457358 -93.190446 
L 166.162813 -94.973209 
L 168.868267 -96.857842 
L 171.573722 -98.843421 
L 174.279176 -100.928155 
L 176.984631 -103.109331 
L 179.690085 -105.383267 
L 182.39554 -107.745272 
L 185.100994 -110.18962 
L 187.806449 -112.709529 
L 190.511904 -115.297161 
L 193.217358 -117.943626 
L 195.922813 -120.639006 
L 198.628267 -123.372396 
L 201.333722 -126.131949 
L 204.039176 -128.904948 
L 206.744631 -131.67789 
L 209.450085 -134.436578 
L 212.15554 -137.166235 
L 214.860994 -139.851627 
L 217.566449 -142.477197 
L 220.271904 -145.02721 
L 222.977358 -147.485909 
L 225.682813 -149.837671 
L 228.388267 -152.06717 
L 231.093722 -154.159544 
L 233.799176 -156.100558 
L 236.504631 -157.876765 
L 239.210085 -159.47566 
L 241.91554 -160.885828 
L 244.620994 -162.097076 
L 247.326449 -163.10056 
L 250.031904 -163.88889 
L 252.737358 -164.456221 
L 255.442813 -164.798326 
L 258.148267 -164.912646 
L 260.853722 -164.798326 
L 263.559176 -164.456221 
L 266.264631 -163.88889 
L 268.970085 -163.10056 
L 271.67554 -162.097076 
L 274.380994 -160.885828 
L 277.086449 -159.47566 
L 279.791904 -157.876765 
L 282.497358 -156.100558 
L 285.202813 -154.159544 
L 287.908267 -152.06717 
L 290.613722 -149.837671 
L 293.319176 -147.485909 
L 296.024631 -145.02721 
L 298.730085 -142.477197 
L 301.43554 -139.851627 
L 304.140994 -137.166235 
L 306.846449 -134.436578 
L 309.551904 -131.67789 
L 312.257358 -128.904948 
L 314.962813 -126.131949 
L 317.668267 -123.372396 
L 320.373722 -120.639006 
L 323.079176 -117.943626 
L 325.784631 -115.297161 
L 328.490085 -112.709529 
L 331.19554 -110.18962 
L 333.900994 -107.745272 
L 336.606449 -105.383267 
L 339.311904 -103.109331 
L 342.017358 -100.928155 
L 344.722813 -98.843421 
L 347.428267 -96.857842 
L 350.133722 -94.973209 
L 352.839176 -93.190446 
L 355.544631 -91.509669 
L 358.250085 -89.930254 
L 360.95554 -88.450905 
L 363.660994 -87.069723 
L 366.366449 -85.784281 
L 369.071904 -84.591695 
L 371.777358 -83.488691 
L 374.482813 -82.471678 
L 377.188267 -81.536811 
L 379.893722 -80.680053 
L 382.599176 -79.897234 
L 385.304631 -79.184102 
L 388.010085 -78.536376 
L 390.71554 -77.949786 
L 393.420994 -77.420112 
L 393.420994 -73.399296 
L 393.420994 -73.399296 
L 390.71554 -73.399296 
L 388.010085 -73.399296 
L 385.304631 -73.399296 
L 382.599176 -73.399296 
L 379.893722 -73.399296 
L 377.188267 -73.399296 
L 374.482813 -73.399296 
L 371.777358 -73.399296 
L 369.071904 -73.399296 
L 366.366449 -73.399296 
L 363.660994 -73.399296 
L 360.95554 -73.399296 
L 358.250085 -73.399296 
L 355.544631 -73.399296 
L 352.839176 -73.399296 
L 350.133722 -73.399296 
L 347.428267 -73.399296 
L 344.722813 -73.399296 
L 342.017358 -73.399296 
L 339.311904 -73.399296 
L 336.606449 -73.399296 
L 333.900994 -73.399296 
L 331.19554 -73.399296 
L 328.490085 -73.399296 
L 325.784631 -73.399296 
L 323.079176 -73.399296 
L 320.373722 -73.399296 
L 317.668267 -73.399296 
L 314.962813 -73.399296 
L 312.257358 -73.399296 
L 309.551904 -73.399296 
L 306.846449 -73.399296 
L 304.140994 -73.399296 
L 301.43554 -73.399296 
L 298.730085 -73.399296 
L 296.024631 -73.399296 
L 293.319176 -73.399296 
L 290.613722 -73.399296 
L 287.908267 -73.399296 
L 285.202813 -73.399296 
L 282.497358 -73.399296 
L 279.791904 -73.399296 
L 277.086449 -73.399296 
L 274.380994 -73.399296 
L 271.67554 -73.399296 
L 268.970085 -73.399296 
L 266.264631 -73.399296 
L 263.559176 -73.399296 
L 260.853722 -73.399296 
L 258.148267 -73.399296 
L 255.442813 -73.399296 
L 252.737358 -73.399296 
L 250.031904 -73.399296 
L 247.326449 -73.399296 
L 244.620994 -73.399296 
L 241.91554 -73.399296 
L 239.210085 -73.399296 
L 236.504631 -73.399296 
L 233.799176 -73.399296 
L 231.093722 -73.399296 
L 228.388267 -73.399296 
L 225.682813 -73.399296 
L 222.977358 -73.399296 
L 220.271904 -73.399296 
L 217.566449 -73.399296 
L 214.860994 -73.399296 
L 212.15554 -73.399296 
L 209.450085 -73.399296 
L 206.744631 -73.399296 
L 204.039176 -73.399296 
L 201.333722 -73.399296 
L 198.628267 -73.399296 
L 195.922813 -73.399296 
L 193.217358 -73.399296 
L 190.511904 -73.399296 
L 187.806449 -73.399296 
L 185.100994 -73.399296 
L 182.39554 -73.399296 
L 179.690085 -73.399296 
L 176.984631 -73.399296 
L 174.279176 -73.399296 
L 171.573722 -73.399296 
L 168.868267 -73.399296 
L 166.162813 -73.399296 
L 163.457358 -73.399296 
L 160.751904 -73.399296 
L 158.046449 -73.399296 
L 155.340994 -73.399296 
L 152.63554 -73.399296 
L 149.930085 -73.399296 
L 147.224631 -73.399296 
L 144.519176 -73.399296 
L 141.813722 -73.399296 
L 139.108267 -73.399296 
L 136.402813 -73.399296 
L 133.697358 -73.399296 
L 130.991904 -73.399296 
L 128.286449 -73.399296 
L 125.580994 -73.399296 
L 122.87554 -73.399296 
L 120.170085 -73.399296 
L 117.464631 -73.399296 
L 114.759176 -73.399296 
L 112.053722 -73.399296 
L 109.348267 -73.399296 
L 106.642813 -73.399296 
L 103.937358 -73.399296 
L 101.231904 -73.399296 
L 98.526449 -73.399296 
L 95.820994 -73.399296 
L 93.11554 -73.399296 
L 90.410085 -73.399296 
L 87.704631 -73.399296 
L 84.999176 -73.399296 
L 82.293722 -73.399296 
L 79.588267 -73.399296 
L 76.882813 -73.399296 
L 74.177358 -73.399296 
L 71.471904 -73.399296 
L 68.766449 -73.399296 
z
" style="stroke: #3778bf; stroke-opacity: 0.5; stroke-width: 1.5"/>
    </defs>
    <g clip-path="url(#pb428fc7c28)">
     <use xlink:href="#m7efab39dd2" x="0" y="334.615296" style="fill: #3778bf; fill-opacity: 0.5; stroke: #3778bf; stroke-opacity: 0.5; stroke-width: 1.5"/>
    </g>
   </g>
   <g id="PolyCollection_2">
    <defs>
     <path id="m3ba262e128" d="M 68.766449 -73.399296 
L 68.766449 -73.399296 
L 71.471904 -73.399296 
L 74.177358 -73.399296 
L 76.882813 -73.399296 
L 79.588267 -73.399296 
L 82.293722 -73.399296 
L 84.999176 -73.399296 
L 87.704631 -73.399296 
L 90.410085 -73.399296 
L 93.11554 -73.399296 
L 95.820994 -73.399296 
L 98.526449 -73.399296 
L 101.231904 -73.399296 
L 103.937358 -73.399296 
L 106.642813 -73.399296 
L 109.348267 -73.399296 
L 112.053722 -73.399296 
L 114.759176 -73.399296 
L 117.464631 -73.399296 
L 120.170085 -73.399296 
L 122.87554 -73.399296 
L 125.580994 -73.399296 
L 128.286449 -73.399296 
L 130.991904 -73.399296 
L 133.697358 -73.399296 
L 136.402813 -73.399296 
L 139.108267 -73.399296 
L 141.813722 -73.399296 
L 144.519176 -73.399296 
L 147.224631 -73.399296 
L 149.930085 -73.399296 
L 152.63554 -73.399296 
L 155.340994 -73.399296 
L 158.046449 -73.399296 
L 160.751904 -73.399296 
L 163.457358 -73.399296 
L 166.162813 -73.399296 
L 168.868267 -73.399296 
L 171.573722 -73.399297 
L 174.279176 -73.399298 
L 176.984631 -73.3993 
L 179.690085 -73.399305 
L 182.39554 -73.399316 
L 185.100994 -73.399338 
L 187.806449 -73.399383 
L 190.511904 -73.399472 
L 193.217358 -73.399649 
L 195.922813 -73.39999 
L 198.628267 -73.400637 
L 201.333722 -73.401845 
L 204.039176 -73.404054 
L 206.744631 -73.408025 
L 209.450085 -73.415034 
L 212.15554 -73.427176 
L 214.860994 -73.447832 
L 217.566449 -73.482328 
L 220.271904 -73.538877 
L 222.977358 -73.629873 
L 225.682813 -73.77359 
L 228.388267 -73.996354 
L 231.093722 -74.33519 
L 233.799176 -74.840892 
L 236.504631 -75.581358 
L 239.210085 -76.644916 
L 241.91554 -78.143188 
L 244.620994 -80.212929 
L 247.326449 -83.01607 
L 250.031904 -86.737177 
L 252.737358 -91.5775 
L 255.442813 -97.744972 
L 258.148267 -105.439808 
L 260.853722 -114.835866 
L 263.559176 -126.058571 
L 266.264631 -139.160944 
L 268.970085 -154.099984 
L 271.67554 -170.716253 
L 274.380994 -188.719802 
L 277.086449 -207.685467 
L 279.791904 -227.059986 
L 282.497358 -246.182293 
L 285.202813 -264.316893 
L 287.908267 -280.698509 
L 290.613722 -294.584505 
L 293.319176 -305.31024 
L 296.024631 -312.341652 
L 298.730085 -315.319296 
L 301.43554 -314.088794 
L 304.140994 -308.714097 
L 306.846449 -299.471975 
L 309.551904 -286.828406 
L 312.257358 -271.399647 
L 314.962813 -253.902536 
L 317.668267 -235.099579 
L 320.373722 -215.744648 
L 323.079176 -196.534586 
L 325.784631 -178.070813 
L 328.490085 -160.833475 
L 331.19554 -145.168923 
L 333.900994 -131.289739 
L 336.606449 -119.285253 
L 339.311904 -109.1397 
L 342.017358 -100.754871 
L 344.722813 -93.974255 
L 347.428267 -88.606131 
L 350.133722 -84.44378 
L 352.839176 -81.281701 
L 355.544631 -78.927433 
L 358.250085 -77.209126 
L 360.95554 -75.979412 
L 363.660994 -75.116332 
L 366.366449 -74.522158 
L 369.071904 -74.120869 
L 371.777358 -73.854956 
L 374.482813 -73.68205 
L 377.188267 -73.571714 
L 379.893722 -73.502611 
L 382.599176 -73.460131 
L 385.304631 -73.434496 
L 388.010085 -73.419311 
L 390.71554 -73.410479 
L 393.420994 -73.405436 
L 393.420994 -73.399296 
L 393.420994 -73.399296 
L 390.71554 -73.399296 
L 388.010085 -73.399296 
L 385.304631 -73.399296 
L 382.599176 -73.399296 
L 379.893722 -73.399296 
L 377.188267 -73.399296 
L 374.482813 -73.399296 
L 371.777358 -73.399296 
L 369.071904 -73.399296 
L 366.366449 -73.399296 
L 363.660994 -73.399296 
L 360.95554 -73.399296 
L 358.250085 -73.399296 
L 355.544631 -73.399296 
L 352.839176 -73.399296 
L 350.133722 -73.399296 
L 347.428267 -73.399296 
L 344.722813 -73.399296 
L 342.017358 -73.399296 
L 339.311904 -73.399296 
L 336.606449 -73.399296 
L 333.900994 -73.399296 
L 331.19554 -73.399296 
L 328.490085 -73.399296 
L 325.784631 -73.399296 
L 323.079176 -73.399296 
L 320.373722 -73.399296 
L 317.668267 -73.399296 
L 314.962813 -73.399296 
L 312.257358 -73.399296 
L 309.551904 -73.399296 
L 306.846449 -73.399296 
L 304.140994 -73.399296 
L 301.43554 -73.399296 
L 298.730085 -73.399296 
L 296.024631 -73.399296 
L 293.319176 -73.399296 
L 290.613722 -73.399296 
L 287.908267 -73.399296 
L 285.202813 -73.399296 
L 282.497358 -73.399296 
L 279.791904 -73.399296 
L 277.086449 -73.399296 
L 274.380994 -73.399296 
L 271.67554 -73.399296 
L 268.970085 -73.399296 
L 266.264631 -73.399296 
L 263.559176 -73.399296 
L 260.853722 -73.399296 
L 258.148267 -73.399296 
L 255.442813 -73.399296 
L 252.737358 -73.399296 
L 250.031904 -73.399296 
L 247.326449 -73.399296 
L 244.620994 -73.399296 
L 241.91554 -73.399296 
L 239.210085 -73.399296 
L 236.504631 -73.399296 
L 233.799176 -73.399296 
L 231.093722 -73.399296 
L 228.388267 -73.399296 
L 225.682813 -73.399296 
L 222.977358 -73.399296 
L 220.271904 -73.399296 
L 217.566449 -73.399296 
L 214.860994 -73.399296 
L 212.15554 -73.399296 
L 209.450085 -73.399296 
L 206.744631 -73.399296 
L 204.039176 -73.399296 
L 201.333722 -73.399296 
L 198.628267 -73.399296 
L 195.922813 -73.399296 
L 193.217358 -73.399296 
L 190.511904 -73.399296 
L 187.806449 -73.399296 
L 185.100994 -73.399296 
L 182.39554 -73.399296 
L 179.690085 -73.399296 
L 176.984631 -73.399296 
L 174.279176 -73.399296 
L 171.573722 -73.399296 
L 168.868267 -73.399296 
L 166.162813 -73.399296 
L 163.457358 -73.399296 
L 160.751904 -73.399296 
L 158.046449 -73.399296 
L 155.340994 -73.399296 
L 152.63554 -73.399296 
L 149.930085 -73.399296 
L 147.224631 -73.399296 
L 144.519176 -73.399296 
L 141.813722 -73.399296 
L 139.108267 -73.399296 
L 136.402813 -73.399296 
L 133.697358 -73.399296 
L 130.991904 -73.399296 
L 128.286449 -73.399296 
L 125.580994 -73.399296 
L 122.87554 -73.399296 
L 120.170085 -73.399296 
L 117.464631 -73.399296 
L 114.759176 -73.399296 
L 112.053722 -73.399296 
L 109.348267 -73.399296 
L 106.642813 -73.399296 
L 103.937358 -73.399296 
L 101.231904 -73.399296 
L 98.526449 -73.399296 
L 95.820994 -73.399296 
L 93.11554 -73.399296 
L 90.410085 -73.399296 
L 87.704631 -73.399296 
L 84.999176 -73.399296 
L 82.293722 -73.399296 
L 79.588267 -73.399296 
L 76.882813 -73.399296 
L 74.177358 -73.399296 
L 71.471904 -73.399296 
L 68.766449 -73.399296 
z
" style="stroke: #feb308; stroke-opacity: 0.5; stroke-width: 1.5"/>
    </defs>
    <g clip-path="url(#pb428fc7c28)">
     <use xlink:href="#m3ba262e128" x="0" y="334.615296" style="fill: #feb308; fill-opacity: 0.5; stroke: #feb308; stroke-opacity: 0.5; stroke-width: 1.5"/>
    </g>
   </g>
   <g id="line2d_11">
    <path d="M 299.293747 273.312 
L 299.293747 7.2 
" clip-path="url(#pb428fc7c28)" style="fill: none; stroke: #feb308; stroke-width: 2.25; stroke-linecap: round"/>
   </g>
   <g id="patch_3">
    <path d="M 52.533722 273.312 
L 52.533722 7.2 
" style="fill: none; stroke: #262626; stroke-width: 1.875; stroke-linejoin: miter; stroke-linecap: square"/>
   </g>
   <g id="patch_4">
    <path d="M 409.653722 273.312 
L 409.653722 7.2 
" style="fill: none; stroke: #262626; stroke-width: 1.875; stroke-linejoin: miter; stroke-linecap: square"/>
   </g>
   <g id="patch_5">
    <path d="M 52.533722 273.312 
L 409.653722 273.312 
" style="fill: none; stroke: #262626; stroke-width: 1.875; stroke-linejoin: miter; stroke-linecap: square"/>
   </g>
   <g id="patch_6">
    <path d="M 52.533722 7.2 
L 409.653722 7.2 
" style="fill: none; stroke: #262626; stroke-width: 1.875; stroke-linejoin: miter; stroke-linecap: square"/>
   </g>
   <g id="patch_7">
    <path d="M 286.83372 37.444642 
Q 289.726702 41.092458 292.619684 44.740273 
L 294.970212 42.876133 
Q 297.131979 48.820589 299.293747 54.765045 
Q 293.997941 51.306109 288.702136 47.847172 
L 291.052665 45.983032 
Q 288.159683 42.335217 285.266701 38.687402 
L 286.83372 37.444642 
z
" style="stroke: #ffffff; stroke-width: 1.5; stroke-linecap: round"/>
   </g>
   <g id="text_12">
    <!-- Adjusted energy:  242.60 MeV -->
    <g transform="translate(68.766449 31.82605) scale(0.18 -0.18)">
     <defs>
      <path id="CMR17-41" d="M 2323 4441 
C 2291 4524 2278 4544 2214 4544 
C 2150 4544 2138 4524 2106 4441 
L 749 580 
C 627 236 371 166 147 166 
L 147 0 
C 262 12 518 12 640 12 
C 800 12 1056 12 1210 0 
L 1210 166 
C 909 179 864 382 864 459 
C 864 516 877 548 890 586 
L 1229 1536 
L 2906 1536 
L 3290 453 
C 3322 376 3322 363 3322 338 
C 3322 166 3046 166 2925 166 
L 2925 0 
C 3110 12 3443 12 3642 12 
C 3808 12 4128 12 4282 0 
L 4282 166 
C 3942 166 3827 166 3744 402 
L 2323 4441 
z
M 2067 3924 
L 2848 1702 
L 1286 1702 
L 2067 3924 
z
" transform="scale(0.015625)"/>
      <path id="CMR17-64" d="M 1869 4345 
L 1869 4179 
C 2246 4179 2304 4141 2304 3843 
L 2304 2371 
C 2278 2403 2016 2816 1498 2816 
C 845 2816 211 2228 211 1376 
C 211 529 806 -64 1434 -64 
C 1978 -64 2259 361 2291 406 
L 2291 -64 
L 3066 -13 
L 3066 154 
C 2688 154 2630 193 2630 503 
L 2630 4416 
L 1869 4345 
z
M 2291 762 
C 2291 568 2176 393 2029 264 
C 1811 70 1594 38 1472 38 
C 1286 38 621 135 621 1369 
C 621 2636 1363 2713 1530 2713 
C 1824 2713 2061 2545 2208 2313 
C 2291 2177 2291 2157 2291 2041 
L 2291 762 
z
" transform="scale(0.015625)"/>
      <path id="CMR17-6a" d="M 1165 3961 
C 1165 4102 1050 4224 902 4224 
C 762 4224 640 4108 640 3961 
C 640 3820 755 3699 902 3699 
C 1043 3699 1165 3814 1165 3961 
z
M 365 2745 
L 365 2579 
C 787 2579 838 2533 838 2221 
L 838 -410 
C 838 -735 781 -1242 403 -1242 
C 358 -1242 186 -1236 45 -1145 
C 90 -1138 250 -1093 250 -911 
C 250 -787 166 -677 19 -677 
C -122 -677 -211 -774 -211 -917 
C -211 -1177 70 -1344 397 -1344 
C 838 -1344 1165 -937 1165 -384 
L 1165 2816 
L 365 2745 
z
" transform="scale(0.015625)"/>
      <path id="CMR17-75" d="M 1882 2745 
L 1882 2579 
C 2259 2579 2317 2540 2317 2229 
L 2317 1053 
C 2317 510 2029 38 1555 38 
C 1030 38 986 355 986 691 
L 986 2816 
L 211 2745 
L 211 2579 
C 467 2579 640 2579 646 2320 
L 646 1079 
C 646 646 646 368 813 187 
C 896 103 1056 -64 1517 -64 
C 2061 -64 2272 400 2323 536 
L 2330 536 
L 2330 -64 
L 3091 -13 
L 3091 154 
C 2714 154 2656 193 2656 503 
L 2656 2816 
L 1882 2745 
z
" transform="scale(0.015625)"/>
      <path id="CMR17-73" d="M 1978 2688 
C 1978 2803 1971 2809 1933 2809 
C 1907 2809 1901 2803 1824 2707 
C 1805 2681 1747 2617 1728 2592 
C 1523 2809 1235 2816 1126 2816 
C 416 2816 160 2444 160 2073 
C 160 1497 813 1363 998 1324 
C 1402 1241 1542 1216 1677 1100 
C 1760 1024 1901 883 1901 652 
C 1901 384 1747 38 1158 38 
C 602 38 403 460 288 1024 
C 269 1113 269 1120 218 1120 
C 166 1120 160 1113 160 985 
L 160 64 
C 160 -52 166 -58 205 -58 
C 237 -58 243 -52 275 0 
C 314 57 410 211 448 275 
C 576 102 800 -64 1158 -64 
C 1792 -64 2131 281 2131 780 
C 2131 1107 1958 1280 1875 1356 
C 1683 1555 1459 1600 1190 1651 
C 838 1728 390 1817 390 2208 
C 390 2374 480 2726 1126 2726 
C 1811 2726 1850 2086 1862 1881 
C 1869 1849 1901 1843 1920 1843 
C 1978 1843 1978 1862 1978 1971 
L 1978 2688 
z
" transform="scale(0.015625)"/>
      <path id="CMR17-74" d="M 966 2585 
L 1862 2585 
L 1862 2752 
L 966 2752 
L 966 3968 
L 851 3968 
C 838 3292 614 2700 70 2687 
L 70 2585 
L 627 2585 
L 627 778 
C 627 655 627 -64 1370 -64 
C 1747 -64 1965 308 1965 784 
L 1965 1151 
L 1850 1151 
L 1850 790 
C 1850 347 1677 51 1408 51 
C 1222 51 966 179 966 765 
L 966 2585 
z
" transform="scale(0.015625)"/>
      <path id="CMR17-3a" d="M 1062 2489 
C 1062 2649 934 2752 800 2752 
C 672 2752 538 2649 538 2489 
C 538 2329 666 2227 800 2227 
C 928 2227 1062 2329 1062 2489 
z
M 1062 262 
C 1062 422 934 524 800 524 
C 672 524 538 422 538 262 
C 538 102 666 0 800 0 
C 928 0 1062 102 1062 262 
z
" transform="scale(0.015625)"/>
      <path id="CMR17-2e" d="M 1062 262 
C 1062 422 934 524 800 524 
C 672 524 538 422 538 262 
C 538 102 666 0 800 0 
C 928 0 1062 102 1062 262 
z
" transform="scale(0.015625)"/>
     </defs>
     <use xlink:href="#CMR17-41" transform="scale(0.996264)"/>
     <use xlink:href="#CMR17-64" transform="translate(69.07243 0) scale(0.996264)"/>
     <use xlink:href="#CMR17-6a" transform="translate(119.9678 0) scale(0.996264)"/>
     <use xlink:href="#CMR17-75" transform="translate(147.441312 0) scale(0.996264)"/>
     <use xlink:href="#CMR17-73" transform="translate(198.336682 0) scale(0.996264)"/>
     <use xlink:href="#CMR17-74" transform="translate(234.138019 0) scale(0.996264)"/>
     <use xlink:href="#CMR17-65" transform="translate(269.418787 0) scale(0.996264)"/>
     <use xlink:href="#CMR17-64" transform="translate(309.904448 0) scale(0.996264)"/>
     <use xlink:href="#CMR17-65" transform="translate(390.875784 0) scale(0.996264)"/>
     <use xlink:href="#CMR17-6e" transform="translate(431.361444 0) scale(0.996264)"/>
     <use xlink:href="#CMR17-65" transform="translate(482.256814 0) scale(0.996264)"/>
     <use xlink:href="#CMR17-72" transform="translate(522.742475 0) scale(0.996264)"/>
     <use xlink:href="#CMR17-67" transform="translate(558.023242 0) scale(0.996264)"/>
     <use xlink:href="#CMR17-79" transform="translate(603.713719 0) scale(0.996264)"/>
     <use xlink:href="#CMR17-3a" transform="translate(652.006635 0) scale(0.996264)"/>
     <use xlink:href="#CMR17-32" transform="translate(717.363354 0) scale(0.996264)"/>
     <use xlink:href="#CMR17-34" transform="translate(763.053831 0) scale(0.996264)"/>
     <use xlink:href="#CMR17-32" transform="translate(808.744308 0) scale(0.996264)"/>
     <use xlink:href="#CMR17-2e" transform="translate(854.434786 0) scale(0.996264)"/>
     <use xlink:href="#CMR17-36" transform="translate(879.305844 0) scale(0.996264)"/>
     <use xlink:href="#CMR17-30" transform="translate(924.996321 0) scale(0.996264)"/>
     <use xlink:href="#CMR17-4d" transform="translate(1000.762765 0) scale(0.996264)"/>
     <use xlink:href="#CMR17-65" transform="translate(1085.449705 0) scale(0.996264)"/>
     <use xlink:href="#CMR17-56" transform="translate(1125.935366 0) scale(0.996264)"/>
    </g>
   </g>
   <g id="legend_1">
    <g id="patch_8">
     <path d="M 60.933722 158.780596 
L 217.815957 158.780596 
Q 220.215957 158.780596 220.215957 156.380596 
L 220.215957 124.131404 
Q 220.215957 121.731404 217.815957 121.731404 
L 60.933722 121.731404 
Q 58.533722 121.731404 58.533722 124.131404 
L 58.533722 156.380596 
Q 58.533722 158.780596 60.933722 158.780596 
z
" style="fill: #ffffff; opacity: 0.8; stroke: #cccccc; stroke-width: 1.5; stroke-linejoin: miter"/>
    </g>
    <g id="patch_9">
     <path d="M 63.333722 134.931404 
L 87.333722 134.931404 
L 87.333722 126.531404 
L 63.333722 126.531404 
z
" style="fill: #3778bf; fill-opacity: 0.5; stroke: #3778bf; stroke-opacity: 0.5; stroke-width: 1.5; stroke-linejoin: miter"/>
    </g>
    <g id="text_13">
     <!-- Raw Measurement -->
     <g style="fill: #262626" transform="translate(96.933722 134.931404) scale(0.12 -0.12)">
      <defs>
       <path id="CMR17-52" d="M 2509 2156 
C 3117 2278 3629 2689 3629 3203 
C 3629 3806 2950 4352 2054 4352 
L 333 4352 
L 333 4185 
C 774 4185 845 4185 845 3896 
L 845 428 
C 845 140 774 140 333 140 
L 333 -26 
C 518 -13 851 -13 1050 -13 
C 1248 -13 1581 -13 1766 -26 
L 1766 140 
C 1325 140 1254 140 1254 428 
L 1254 2112 
L 2003 2112 
C 2368 2112 2573 1964 2662 1881 
C 2918 1632 2918 1459 2918 1024 
C 2918 595 2918 377 3110 160 
C 3354 -103 3680 -128 3821 -128 
C 4294 -128 4365 403 4365 512 
C 4365 550 4365 595 4307 595 
C 4256 595 4250 556 4250 531 
C 4218 115 4032 -26 3834 -26 
C 3482 -26 3443 377 3405 768 
C 3386 902 3373 998 3360 1139 
C 3322 1459 3270 1926 2509 2156 
z
M 1984 2214 
L 1254 2214 
L 1254 3935 
C 1254 4153 1267 4185 1523 4185 
L 1990 4185 
C 2522 4185 3142 3999 3142 3203 
C 3142 2374 2464 2214 1984 2214 
z
" transform="scale(0.015625)"/>
       <path id="CMR17-61" d="M 2304 1656 
C 2304 2048 2304 2275 2035 2534 
C 1798 2751 1523 2816 1306 2816 
C 800 2816 435 2408 435 1977 
C 435 1740 627 1728 666 1728 
C 749 1728 896 1779 896 1958 
C 896 2118 774 2188 666 2188 
C 640 2188 608 2182 589 2176 
C 723 2594 1069 2713 1293 2713 
C 1613 2713 1965 2421 1965 1875 
L 1965 1632 
C 1587 1619 1133 1568 774 1373 
C 371 1147 256 822 256 576 
C 256 77 832 -64 1171 -64 
C 1523 -64 1850 135 1990 505 
C 2003 219 2182 -39 2464 -39 
C 2598 -39 2938 51 2938 563 
L 2938 926 
L 2822 926 
L 2822 557 
C 2822 161 2650 109 2566 109 
C 2304 109 2304 446 2304 732 
L 2304 1656 
z
M 1965 887 
C 1965 323 1568 38 1216 38 
C 896 38 646 278 646 576 
C 646 771 730 1114 1101 1322 
C 1408 1497 1760 1523 1965 1536 
L 1965 887 
z
" transform="scale(0.015625)"/>
       <path id="CMR17-77" d="M 3725 2186 
C 3853 2566 4109 2579 4205 2585 
L 4205 2752 
C 4077 2745 3949 2739 3821 2739 
C 3699 2739 3424 2739 3315 2752 
L 3315 2585 
C 3514 2572 3622 2456 3622 2296 
C 3622 2251 3610 2193 3597 2148 
L 2995 398 
L 2342 2296 
C 2330 2341 2310 2392 2310 2418 
C 2310 2585 2528 2585 2630 2585 
L 2630 2752 
C 2483 2739 2214 2739 2061 2739 
C 1901 2739 1734 2739 1587 2752 
L 1587 2585 
C 1939 2585 1939 2572 2074 2167 
L 1485 443 
L 851 2302 
C 819 2386 819 2399 819 2418 
C 819 2585 1037 2585 1139 2585 
L 1139 2752 
C 986 2739 717 2739 557 2739 
C 416 2739 198 2739 64 2752 
L 64 2585 
C 346 2585 416 2566 486 2353 
L 1274 38 
C 1299 -45 1318 -64 1370 -64 
C 1414 -64 1440 -52 1472 44 
L 2131 1987 
L 2797 44 
C 2829 -52 2854 -64 2899 -64 
C 2950 -64 2970 -45 2995 38 
L 3725 2186 
z
" transform="scale(0.015625)"/>
       <path id="CMR17-6d" d="M 4326 1954 
C 4326 2276 4269 2816 3507 2816 
C 3072 2816 2771 2520 2656 2173 
L 2650 2173 
C 2573 2700 2195 2816 1837 2816 
C 1331 2816 1069 2424 973 2166 
L 966 2166 
L 966 2816 
L 211 2745 
L 211 2578 
C 589 2578 646 2540 646 2231 
L 646 443 
C 646 198 621 166 211 166 
L 211 0 
C 365 12 646 12 813 12 
C 979 12 1267 12 1421 0 
L 1421 166 
C 1011 166 986 192 986 443 
L 986 1678 
C 986 2269 1344 2713 1792 2713 
C 2266 2713 2317 2289 2317 1980 
L 2317 443 
C 2317 198 2291 166 1882 166 
L 1882 0 
C 2035 12 2317 12 2483 12 
C 2650 12 2938 12 3091 0 
L 3091 166 
C 2682 166 2656 192 2656 443 
L 2656 1678 
C 2656 2269 3014 2713 3462 2713 
C 3936 2713 3987 2289 3987 1980 
L 3987 443 
C 3987 198 3962 166 3552 166 
L 3552 0 
C 3706 12 3987 12 4154 12 
C 4320 12 4608 12 4762 0 
L 4762 166 
C 4352 166 4326 192 4326 443 
L 4326 1954 
z
" transform="scale(0.015625)"/>
      </defs>
      <use xlink:href="#CMR17-52" transform="scale(0.996264)"/>
      <use xlink:href="#CMR17-61" transform="translate(67.791102 0) scale(0.996264)"/>
      <use xlink:href="#CMR17-77" transform="translate(110.879125 0) scale(0.996264)"/>
      <use xlink:href="#CMR17-4d" transform="translate(207.464972 0) scale(0.996264)"/>
      <use xlink:href="#CMR17-65" transform="translate(292.151913 0) scale(0.996264)"/>
      <use xlink:href="#CMR17-61" transform="translate(332.637573 0) scale(0.996264)"/>
      <use xlink:href="#CMR17-73" transform="translate(378.32805 0) scale(0.996264)"/>
      <use xlink:href="#CMR17-75" transform="translate(414.129388 0) scale(0.996264)"/>
      <use xlink:href="#CMR17-72" transform="translate(465.024758 0) scale(0.996264)"/>
      <use xlink:href="#CMR17-65" transform="translate(500.305525 0) scale(0.996264)"/>
      <use xlink:href="#CMR17-6d" transform="translate(540.791186 0) scale(0.996264)"/>
      <use xlink:href="#CMR17-65" transform="translate(617.710776 0) scale(0.996264)"/>
      <use xlink:href="#CMR17-6e" transform="translate(658.196436 0) scale(0.996264)"/>
      <use xlink:href="#CMR17-74" transform="translate(706.489352 0) scale(0.996264)"/>
     </g>
    </g>
    <g id="patch_10">
     <path d="M 63.333722 151.656 
L 87.333722 151.656 
L 87.333722 143.256 
L 63.333722 143.256 
z
" style="fill: #feb308; fill-opacity: 0.5; stroke: #feb308; stroke-opacity: 0.5; stroke-width: 1.5; stroke-linejoin: miter"/>
    </g>
    <g id="text_14">
     <!-- Adjusted Measurement -->
     <g style="fill: #262626" transform="translate(96.933722 151.656) scale(0.12 -0.12)">
      <use xlink:href="#CMR17-41" transform="scale(0.996264)"/>
      <use xlink:href="#CMR17-64" transform="translate(69.07243 0) scale(0.996264)"/>
      <use xlink:href="#CMR17-6a" transform="translate(119.9678 0) scale(0.996264)"/>
      <use xlink:href="#CMR17-75" transform="translate(147.441312 0) scale(0.996264)"/>
      <use xlink:href="#CMR17-73" transform="translate(198.336682 0) scale(0.996264)"/>
      <use xlink:href="#CMR17-74" transform="translate(234.138019 0) scale(0.996264)"/>
      <use xlink:href="#CMR17-65" transform="translate(269.418787 0) scale(0.996264)"/>
      <use xlink:href="#CMR17-64" transform="translate(309.904448 0) scale(0.996264)"/>
      <use xlink:href="#CMR17-4d" transform="translate(390.875784 0) scale(0.996264)"/>
      <use xlink:href="#CMR17-65" transform="translate(475.562724 0) scale(0.996264)"/>
      <use xlink:href="#CMR17-61" transform="translate(516.048385 0) scale(0.996264)"/>
      <use xlink:href="#CMR17-73" transform="translate(561.738862 0) scale(0.996264)"/>
      <use xlink:href="#CMR17-75" transform="translate(597.5402 0) scale(0.996264)"/>
      <use xlink:href="#CMR17-72" transform="translate(648.435569 0) scale(0.996264)"/>
      <use xlink:href="#CMR17-65" transform="translate(683.716337 0) scale(0.996264)"/>
      <use xlink:href="#CMR17-6d" transform="translate(724.201998 0) scale(0.996264)"/>
      <use xlink:href="#CMR17-65" transform="translate(801.121588 0) scale(0.996264)"/>
      <use xlink:href="#CMR17-6e" transform="translate(841.607248 0) scale(0.996264)"/>
      <use xlink:href="#CMR17-74" transform="translate(889.900164 0) scale(0.996264)"/>
     </g>
    </g>
   </g>
  </g>
 </g>
 <defs>
  <clipPath id="pb428fc7c28">
   <rect x="52.533722" y="7.2" width="357.12" height="266.112"/>
  </clipPath>
 </defs>
</svg>
