<?xml version="1.0" encoding="utf-8" standalone="no"?>
<!DOCTYPE svg PUBLIC "-//W3C//DTD SVG 1.1//EN"
  "http://www.w3.org/Graphics/SVG/1.1/DTD/svg11.dtd">
<svg xmlns:xlink="http://www.w3.org/1999/xlink" width="416.853722pt" height="334.615296pt" viewBox="0 0 416.853722 334.615296" xmlns="http://www.w3.org/2000/svg" version="1.1">
 <metadata>
  <rdf:RDF xmlns:dc="http://purl.org/dc/elements/1.1/" xmlns:cc="http://creativecommons.org/ns#" xmlns:rdf="http://www.w3.org/1999/02/22-rdf-syntax-ns#">
   <cc:Work>
    <dc:type rdf:resource="http://purl.org/dc/dcmitype/StillImage"/>
    <dc:date>2023-02-26T16:48:28.094878</dc:date>
    <dc:format>image/svg+xml</dc:format>
    <dc:creator>
     <cc:Agent>
      <dc:title>Matplotlib v3.6.2, https://matplotlib.org/</dc:title>
     </cc:Agent>
    </dc:creator>
   </cc:Work>
  </rdf:RDF>
 </metadata>
 <defs>
  <style type="text/css">*{stroke-linejoin: round; stroke-linecap: butt}</style>
 </defs>
 <g id="figure_1">
  <g id="patch_1">
   <path d="M 0 334.615296 
L 416.853722 334.615296 
L 416.853722 -0 
L 0 -0 
z
" style="fill: #ffffff"/>
  </g>
  <g id="axes_1">
   <g id="patch_2">
    <path d="M 52.533722 273.312 
L 409.653722 273.312 
L 409.653722 7.2 
L 52.533722 7.2 
z
" style="fill: #ffffff"/>
   </g>
   <g id="matplotlib.axis_1">
    <g id="xtick_1">
     <g id="line2d_1">
      <defs>
       <path id="mb08720aff0" d="M 0 0 
L 0 9 
" style="stroke: #262626; stroke-width: 1.875"/>
      </defs>
      <g>
       <use xlink:href="#mb08720aff0" x="68.766449" y="273.312" style="fill: #262626; stroke: #262626; stroke-width: 1.875"/>
      </g>
     </g>
     <g id="text_1">
      <!-- $\mathdefault{140}$ -->
      <g style="fill: #262626" transform="translate(55.059306 299.648997) scale(0.2 -0.2)">
       <defs>
        <path id="CMR17-31" d="M 1702 4083 
C 1702 4217 1696 4224 1606 4224 
C 1357 3927 979 3833 621 3820 
C 602 3820 570 3820 563 3808 
C 557 3795 557 3782 557 3648 
C 755 3648 1088 3686 1344 3839 
L 1344 467 
C 1344 243 1331 166 781 166 
L 589 166 
L 589 0 
C 896 6 1216 12 1523 12 
C 1830 12 2150 6 2458 0 
L 2458 166 
L 2266 166 
C 1715 166 1702 236 1702 467 
L 1702 4083 
z
" transform="scale(0.015625)"/>
        <path id="CMR17-34" d="M 2150 4147 
C 2150 4281 2144 4288 2029 4288 
L 128 1254 
L 128 1088 
L 1779 1088 
L 1779 460 
C 1779 230 1766 166 1318 166 
L 1197 166 
L 1197 0 
C 1402 12 1747 12 1965 12 
C 2182 12 2528 12 2733 0 
L 2733 166 
L 2611 166 
C 2163 166 2150 230 2150 460 
L 2150 1088 
L 2803 1088 
L 2803 1254 
L 2150 1254 
L 2150 4147 
z
M 1798 3723 
L 1798 1254 
L 256 1254 
L 1798 3723 
z
" transform="scale(0.015625)"/>
        <path id="CMR17-30" d="M 2688 2038 
C 2688 2430 2682 3099 2413 3613 
C 2176 4063 1798 4224 1466 4224 
C 1158 4224 768 4082 525 3620 
C 269 3137 243 2539 243 2038 
C 243 1671 250 1112 448 623 
C 723 -39 1216 -128 1466 -128 
C 1760 -128 2208 -7 2470 604 
C 2662 1048 2688 1568 2688 2038 
z
M 1466 -26 
C 1056 -26 813 328 723 816 
C 653 1196 653 1749 653 2109 
C 653 2604 653 3015 736 3407 
C 858 3954 1216 4121 1466 4121 
C 1728 4121 2067 3947 2189 3420 
C 2272 3054 2278 2623 2278 2109 
C 2278 1691 2278 1176 2202 797 
C 2067 96 1690 -26 1466 -26 
z
" transform="scale(0.015625)"/>
       </defs>
       <use xlink:href="#CMR17-31" transform="scale(0.996264)"/>
       <use xlink:href="#CMR17-34" transform="translate(45.690477 0) scale(0.996264)"/>
       <use xlink:href="#CMR17-30" transform="translate(91.380954 0) scale(0.996264)"/>
      </g>
     </g>
    </g>
    <g id="xtick_2">
     <g id="line2d_2">
      <g>
       <use xlink:href="#mb08720aff0" x="140.911904" y="273.312" style="fill: #262626; stroke: #262626; stroke-width: 1.875"/>
      </g>
     </g>
     <g id="text_2">
      <!-- $\mathdefault{160}$ -->
      <g style="fill: #262626" transform="translate(127.20476 299.648997) scale(0.2 -0.2)">
       <defs>
        <path id="CMR17-36" d="M 678 2198 
C 678 3712 1395 4076 1811 4076 
C 1946 4076 2272 4049 2400 3782 
C 2298 3782 2106 3782 2106 3558 
C 2106 3385 2246 3328 2336 3328 
C 2394 3328 2566 3353 2566 3571 
C 2566 3987 2246 4224 1805 4224 
C 1043 4224 243 3411 243 2011 
C 243 257 966 -128 1478 -128 
C 2099 -128 2688 431 2688 1295 
C 2688 2101 2170 2688 1517 2688 
C 1126 2688 838 2430 678 1979 
L 678 2198 
z
M 1478 25 
C 691 25 691 1212 691 1450 
C 691 1914 909 2585 1504 2585 
C 1613 2585 1926 2585 2138 2140 
C 2253 1889 2253 1624 2253 1302 
C 2253 954 2253 696 2118 438 
C 1978 173 1773 25 1478 25 
z
" transform="scale(0.015625)"/>
       </defs>
       <use xlink:href="#CMR17-31" transform="scale(0.996264)"/>
       <use xlink:href="#CMR17-36" transform="translate(45.690477 0) scale(0.996264)"/>
       <use xlink:href="#CMR17-30" transform="translate(91.380954 0) scale(0.996264)"/>
      </g>
     </g>
    </g>
    <g id="xtick_3">
     <g id="line2d_3">
      <g>
       <use xlink:href="#mb08720aff0" x="213.057358" y="273.312" style="fill: #262626; stroke: #262626; stroke-width: 1.875"/>
      </g>
     </g>
     <g id="text_3">
      <!-- $\mathdefault{180}$ -->
      <g style="fill: #262626" transform="translate(199.350215 299.648997) scale(0.2 -0.2)">
       <defs>
        <path id="CMR17-38" d="M 1741 2289 
C 2144 2494 2554 2803 2554 3298 
C 2554 3884 1990 4224 1472 4224 
C 890 4224 378 3800 378 3215 
C 378 3054 416 2777 666 2533 
C 730 2469 998 2276 1171 2154 
C 883 2006 211 1652 211 945 
C 211 282 838 -128 1459 -128 
C 2144 -128 2720 366 2720 1022 
C 2720 1607 2330 1877 2074 2051 
L 1741 2289 
z
M 902 2855 
C 851 2887 595 3086 595 3388 
C 595 3781 998 4076 1459 4076 
C 1965 4076 2336 3716 2336 3298 
C 2336 2700 1670 2359 1638 2359 
C 1632 2359 1626 2359 1574 2398 
L 902 2855 
z
M 2080 1536 
C 2176 1466 2483 1253 2483 861 
C 2483 385 2010 25 1472 25 
C 890 25 448 443 448 951 
C 448 1459 838 1884 1280 2083 
L 2080 1536 
z
" transform="scale(0.015625)"/>
       </defs>
       <use xlink:href="#CMR17-31" transform="scale(0.996264)"/>
       <use xlink:href="#CMR17-38" transform="translate(45.690477 0) scale(0.996264)"/>
       <use xlink:href="#CMR17-30" transform="translate(91.380954 0) scale(0.996264)"/>
      </g>
     </g>
    </g>
    <g id="xtick_4">
     <g id="line2d_4">
      <g>
       <use xlink:href="#mb08720aff0" x="285.202813" y="273.312" style="fill: #262626; stroke: #262626; stroke-width: 1.875"/>
      </g>
     </g>
     <g id="text_4">
      <!-- $\mathdefault{200}$ -->
      <g style="fill: #262626" transform="translate(271.495669 299.648997) scale(0.2 -0.2)">
       <defs>
        <path id="CMR17-32" d="M 2669 990 
L 2554 990 
C 2490 537 2438 460 2413 422 
C 2381 371 1920 371 1830 371 
L 602 371 
C 832 620 1280 1073 1824 1596 
C 2214 1966 2669 2400 2669 3033 
C 2669 3788 2067 4224 1395 4224 
C 691 4224 262 3603 262 3027 
C 262 2777 448 2745 525 2745 
C 589 2745 781 2783 781 3007 
C 781 3206 614 3264 525 3264 
C 486 3264 448 3257 422 3244 
C 544 3788 915 4057 1306 4057 
C 1862 4057 2227 3616 2227 3033 
C 2227 2477 1901 1998 1536 1583 
L 262 147 
L 262 0 
L 2515 0 
L 2669 990 
z
" transform="scale(0.015625)"/>
       </defs>
       <use xlink:href="#CMR17-32" transform="scale(0.996264)"/>
       <use xlink:href="#CMR17-30" transform="translate(45.690477 0) scale(0.996264)"/>
       <use xlink:href="#CMR17-30" transform="translate(91.380954 0) scale(0.996264)"/>
      </g>
     </g>
    </g>
    <g id="xtick_5">
     <g id="line2d_5">
      <g>
       <use xlink:href="#mb08720aff0" x="357.348267" y="273.312" style="fill: #262626; stroke: #262626; stroke-width: 1.875"/>
      </g>
     </g>
     <g id="text_5">
      <!-- $\mathdefault{220}$ -->
      <g style="fill: #262626" transform="translate(343.641124 299.648997) scale(0.2 -0.2)">
       <use xlink:href="#CMR17-32" transform="scale(0.996264)"/>
       <use xlink:href="#CMR17-32" transform="translate(45.690477 0) scale(0.996264)"/>
       <use xlink:href="#CMR17-30" transform="translate(91.380954 0) scale(0.996264)"/>
      </g>
     </g>
    </g>
    <g id="text_6">
     <!-- Momentum (MeV/c) -->
     <g style="fill: #262626" transform="translate(147.070757 322.450652) scale(0.2 -0.2)">
      <defs>
       <path id="CMR17-4d" d="M 1338 4249 
C 1299 4345 1293 4352 1158 4352 
L 339 4352 
L 339 4185 
C 781 4185 851 4185 851 3898 
L 851 624 
C 851 465 851 166 339 166 
L 339 0 
C 486 12 755 12 915 12 
C 1075 12 1344 12 1491 0 
L 1491 166 
C 979 166 979 465 979 624 
L 979 4159 
L 986 4159 
L 2490 102 
C 2515 38 2528 0 2579 0 
C 2630 0 2643 38 2669 102 
L 4186 4191 
L 4192 4191 
L 4192 453 
C 4192 166 4122 166 3680 166 
L 3680 0 
C 3853 12 4198 12 4384 12 
C 4570 12 4922 12 5094 0 
L 5094 166 
C 4653 166 4582 166 4582 453 
L 4582 3898 
C 4582 4185 4653 4185 5094 4185 
L 5094 4352 
L 4282 4352 
C 4147 4352 4141 4345 4102 4249 
L 2720 516 
L 1338 4249 
z
" transform="scale(0.015625)"/>
       <path id="CMR17-6f" d="M 2758 1356 
C 2758 2176 2163 2816 1466 2816 
C 768 2816 173 2176 173 1356 
C 173 550 768 -64 1466 -64 
C 2163 -64 2758 550 2758 1356 
z
M 1466 51 
C 1165 51 909 230 762 480 
C 602 768 582 1126 582 1408 
C 582 1676 595 2009 762 2297 
C 890 2508 1139 2713 1466 2713 
C 1754 2713 1997 2553 2150 2329 
C 2349 2028 2349 1606 2349 1408 
C 2349 1158 2336 774 2163 467 
C 1984 172 1709 51 1466 51 
z
" transform="scale(0.015625)"/>
       <path id="CMR17-6d" d="M 4326 1954 
C 4326 2276 4269 2816 3507 2816 
C 3072 2816 2771 2520 2656 2173 
L 2650 2173 
C 2573 2700 2195 2816 1837 2816 
C 1331 2816 1069 2424 973 2166 
L 966 2166 
L 966 2816 
L 211 2745 
L 211 2578 
C 589 2578 646 2540 646 2231 
L 646 443 
C 646 198 621 166 211 166 
L 211 0 
C 365 12 646 12 813 12 
C 979 12 1267 12 1421 0 
L 1421 166 
C 1011 166 986 192 986 443 
L 986 1678 
C 986 2269 1344 2713 1792 2713 
C 2266 2713 2317 2289 2317 1980 
L 2317 443 
C 2317 198 2291 166 1882 166 
L 1882 0 
C 2035 12 2317 12 2483 12 
C 2650 12 2938 12 3091 0 
L 3091 166 
C 2682 166 2656 192 2656 443 
L 2656 1678 
C 2656 2269 3014 2713 3462 2713 
C 3936 2713 3987 2289 3987 1980 
L 3987 443 
C 3987 198 3962 166 3552 166 
L 3552 0 
C 3706 12 3987 12 4154 12 
C 4320 12 4608 12 4762 0 
L 4762 166 
C 4352 166 4326 192 4326 443 
L 4326 1954 
z
" transform="scale(0.015625)"/>
       <path id="CMR17-65" d="M 2438 1503 
C 2464 1529 2464 1542 2464 1606 
C 2464 2251 2118 2816 1389 2816 
C 710 2816 173 2175 173 1394 
C 173 554 781 -64 1459 -64 
C 2176 -64 2458 619 2458 755 
C 2458 800 2419 800 2406 800 
C 2362 800 2355 787 2330 709 
C 2189 270 1837 51 1504 51 
C 1229 51 954 206 781 490 
C 582 819 582 1200 582 1503 
L 2438 1503 
z
M 589 1600 
C 634 2511 1126 2713 1382 2713 
C 1818 2713 2112 2308 2118 1600 
L 589 1600 
z
" transform="scale(0.015625)"/>
       <path id="CMR17-6e" d="M 2656 1954 
C 2656 2282 2592 2816 1837 2816 
C 1331 2816 1069 2424 973 2166 
L 966 2166 
L 966 2816 
L 211 2745 
L 211 2578 
C 589 2578 646 2540 646 2231 
L 646 443 
C 646 198 621 166 211 166 
L 211 0 
C 365 12 646 12 813 12 
C 979 12 1267 12 1421 0 
L 1421 166 
C 1011 166 986 192 986 443 
L 986 1678 
C 986 2269 1344 2713 1792 2713 
C 2266 2713 2317 2289 2317 1980 
L 2317 443 
C 2317 198 2291 166 1882 166 
L 1882 0 
C 2035 12 2317 12 2483 12 
C 2650 12 2938 12 3091 0 
L 3091 166 
C 2682 166 2656 192 2656 443 
L 2656 1954 
z
" transform="scale(0.015625)"/>
       <path id="CMR17-74" d="M 966 2585 
L 1862 2585 
L 1862 2752 
L 966 2752 
L 966 3968 
L 851 3968 
C 838 3292 614 2700 70 2687 
L 70 2585 
L 627 2585 
L 627 778 
C 627 655 627 -64 1370 -64 
C 1747 -64 1965 308 1965 784 
L 1965 1151 
L 1850 1151 
L 1850 790 
C 1850 347 1677 51 1408 51 
C 1222 51 966 179 966 765 
L 966 2585 
z
" transform="scale(0.015625)"/>
       <path id="CMR17-75" d="M 1882 2745 
L 1882 2579 
C 2259 2579 2317 2540 2317 2229 
L 2317 1053 
C 2317 510 2029 38 1555 38 
C 1030 38 986 355 986 691 
L 986 2816 
L 211 2745 
L 211 2579 
C 467 2579 640 2579 646 2320 
L 646 1079 
C 646 646 646 368 813 187 
C 896 103 1056 -64 1517 -64 
C 2061 -64 2272 400 2323 536 
L 2330 536 
L 2330 -64 
L 3091 -13 
L 3091 154 
C 2714 154 2656 193 2656 503 
L 2656 2816 
L 1882 2745 
z
" transform="scale(0.015625)"/>
       <path id="CMR17-28" d="M 1958 -1562 
C 1958 -1556 1958 -1543 1939 -1524 
C 1645 -1223 858 -403 858 1596 
C 858 3595 1632 4408 1946 4729 
C 1946 4735 1958 4748 1958 4767 
C 1958 4787 1939 4800 1914 4800 
C 1843 4800 1299 4325 986 3620 
C 666 2909 576 2218 576 1603 
C 576 1141 621 360 1005 -467 
C 1312 -1133 1837 -1600 1914 -1600 
C 1946 -1600 1958 -1588 1958 -1562 
z
" transform="scale(0.015625)"/>
       <path id="CMR17-56" d="M 3776 3762 
C 3834 3903 3936 4179 4365 4185 
L 4365 4352 
C 4218 4339 4051 4339 3891 4339 
C 3738 4339 3475 4339 3328 4352 
L 3328 4185 
C 3648 4166 3661 3942 3661 3903 
C 3661 3833 3642 3788 3622 3737 
L 2362 448 
L 1043 3903 
C 1024 3948 1011 3980 1011 4012 
C 1011 4185 1267 4185 1402 4185 
L 1402 4352 
C 1197 4339 896 4339 685 4339 
C 518 4339 218 4339 64 4352 
L 64 4185 
C 435 4185 506 4160 582 3955 
L 2106 -26 
C 2138 -116 2144 -128 2214 -128 
C 2285 -128 2291 -116 2323 -26 
L 3776 3762 
z
" transform="scale(0.015625)"/>
       <path id="CMR17-2f" d="M 2605 4575 
C 2637 4658 2637 4671 2637 4684 
C 2637 4761 2579 4800 2528 4800 
C 2451 4800 2426 4748 2400 4671 
L 326 -1376 
C 294 -1460 294 -1472 294 -1485 
C 294 -1562 352 -1600 403 -1600 
C 480 -1600 506 -1549 531 -1472 
L 2605 4575 
z
" transform="scale(0.015625)"/>
       <path id="CMR17-63" d="M 2234 2240 
C 2112 2240 1933 2240 1933 2015 
C 1933 1836 2080 1785 2163 1785 
C 2208 1785 2394 1804 2394 2028 
C 2394 2476 1958 2816 1466 2816 
C 787 2816 211 2201 211 1379 
C 211 521 813 -64 1466 -64 
C 2259 -64 2458 676 2458 747 
C 2458 773 2451 792 2406 792 
C 2362 792 2355 786 2330 702 
C 2163 180 1798 51 1523 51 
C 1114 51 621 431 621 1385 
C 621 2358 1094 2700 1472 2700 
C 1722 2700 2093 2582 2234 2240 
z
" transform="scale(0.015625)"/>
       <path id="CMR17-29" d="M 1683 1596 
C 1683 2057 1638 2839 1254 3665 
C 947 4332 422 4800 346 4800 
C 326 4800 301 4793 301 4761 
C 301 4748 307 4742 314 4729 
C 621 4408 1402 3595 1402 1603 
C 1402 -396 627 -1210 314 -1530 
C 307 -1543 301 -1549 301 -1562 
C 301 -1594 326 -1600 346 -1600 
C 416 -1600 960 -1127 1274 -422 
C 1594 289 1683 981 1683 1596 
z
" transform="scale(0.015625)"/>
      </defs>
      <use xlink:href="#CMR17-4d" transform="scale(0.996264)"/>
      <use xlink:href="#CMR17-6f" transform="translate(84.686941 0) scale(0.996264)"/>
      <use xlink:href="#CMR17-6d" transform="translate(130.377418 0) scale(0.996264)"/>
      <use xlink:href="#CMR17-65" transform="translate(207.297008 0) scale(0.996264)"/>
      <use xlink:href="#CMR17-6e" transform="translate(247.782668 0) scale(0.996264)"/>
      <use xlink:href="#CMR17-74" transform="translate(296.075584 0) scale(0.996264)"/>
      <use xlink:href="#CMR17-75" transform="translate(331.356352 0) scale(0.996264)"/>
      <use xlink:href="#CMR17-6d" transform="translate(382.251721 0) scale(0.996264)"/>
      <use xlink:href="#CMR17-28" transform="translate(489.247278 0) scale(0.996264)"/>
      <use xlink:href="#CMR17-4d" transform="translate(524.528045 0) scale(0.996264)"/>
      <use xlink:href="#CMR17-65" transform="translate(609.214986 0) scale(0.996264)"/>
      <use xlink:href="#CMR17-56" transform="translate(649.700647 0) scale(0.996264)"/>
      <use xlink:href="#CMR17-2f" transform="translate(718.773076 0) scale(0.996264)"/>
      <use xlink:href="#CMR17-63" transform="translate(764.463553 0) scale(0.996264)"/>
      <use xlink:href="#CMR17-29" transform="translate(804.949214 0) scale(0.996264)"/>
     </g>
    </g>
   </g>
   <g id="matplotlib.axis_2">
    <g id="ytick_1">
     <g id="line2d_6">
      <defs>
       <path id="m0a7031425e" d="M 0 0 
L -9 0 
" style="stroke: #262626; stroke-width: 1.875"/>
      </defs>
      <g>
       <use xlink:href="#m0a7031425e" x="52.533722" y="261.216" style="fill: #262626; stroke: #262626; stroke-width: 1.875"/>
      </g>
     </g>
     <g id="text_7">
      <!-- $\mathdefault{0.00}$ -->
      <g style="fill: #262626" transform="translate(7.2 268.134498) scale(0.2 -0.2)">
       <defs>
        <path id="CMMI12-3a" d="M 1178 307 
C 1178 492 1024 620 870 620 
C 685 620 557 467 557 313 
C 557 128 710 0 864 0 
C 1050 0 1178 153 1178 307 
z
" transform="scale(0.015625)"/>
       </defs>
       <use xlink:href="#CMR17-30" transform="scale(0.996264)"/>
       <use xlink:href="#CMMI12-3a" transform="translate(45.690477 0) scale(0.996264)"/>
       <use xlink:href="#CMR17-30" transform="translate(72.787654 0) scale(0.996264)"/>
       <use xlink:href="#CMR17-30" transform="translate(118.478131 0) scale(0.996264)"/>
      </g>
     </g>
    </g>
    <g id="ytick_2">
     <g id="line2d_7">
      <g>
       <use xlink:href="#m0a7031425e" x="52.533722" y="204.89027" style="fill: #262626; stroke: #262626; stroke-width: 1.875"/>
      </g>
     </g>
     <g id="text_8">
      <!-- $\mathdefault{0.02}$ -->
      <g style="fill: #262626" transform="translate(7.2 211.808768) scale(0.2 -0.2)">
       <use xlink:href="#CMR17-30" transform="scale(0.996264)"/>
       <use xlink:href="#CMMI12-3a" transform="translate(45.690477 0) scale(0.996264)"/>
       <use xlink:href="#CMR17-30" transform="translate(72.787654 0) scale(0.996264)"/>
       <use xlink:href="#CMR17-32" transform="translate(118.478131 0) scale(0.996264)"/>
      </g>
     </g>
    </g>
    <g id="ytick_3">
     <g id="line2d_8">
      <g>
       <use xlink:href="#m0a7031425e" x="52.533722" y="148.56454" style="fill: #262626; stroke: #262626; stroke-width: 1.875"/>
      </g>
     </g>
     <g id="text_9">
      <!-- $\mathdefault{0.04}$ -->
      <g style="fill: #262626" transform="translate(7.2 155.483038) scale(0.2 -0.2)">
       <use xlink:href="#CMR17-30" transform="scale(0.996264)"/>
       <use xlink:href="#CMMI12-3a" transform="translate(45.690477 0) scale(0.996264)"/>
       <use xlink:href="#CMR17-30" transform="translate(72.787654 0) scale(0.996264)"/>
       <use xlink:href="#CMR17-34" transform="translate(118.478131 0) scale(0.996264)"/>
      </g>
     </g>
    </g>
    <g id="ytick_4">
     <g id="line2d_9">
      <g>
       <use xlink:href="#m0a7031425e" x="52.533722" y="92.238809" style="fill: #262626; stroke: #262626; stroke-width: 1.875"/>
      </g>
     </g>
     <g id="text_10">
      <!-- $\mathdefault{0.06}$ -->
      <g style="fill: #262626" transform="translate(7.2 99.157308) scale(0.2 -0.2)">
       <use xlink:href="#CMR17-30" transform="scale(0.996264)"/>
       <use xlink:href="#CMMI12-3a" transform="translate(45.690477 0) scale(0.996264)"/>
       <use xlink:href="#CMR17-30" transform="translate(72.787654 0) scale(0.996264)"/>
       <use xlink:href="#CMR17-36" transform="translate(118.478131 0) scale(0.996264)"/>
      </g>
     </g>
    </g>
    <g id="ytick_5">
     <g id="line2d_10">
      <g>
       <use xlink:href="#m0a7031425e" x="52.533722" y="35.913079" style="fill: #262626; stroke: #262626; stroke-width: 1.875"/>
      </g>
     </g>
     <g id="text_11">
      <!-- $\mathdefault{0.08}$ -->
      <g style="fill: #262626" transform="translate(7.2 42.831578) scale(0.2 -0.2)">
       <use xlink:href="#CMR17-30" transform="scale(0.996264)"/>
       <use xlink:href="#CMMI12-3a" transform="translate(45.690477 0) scale(0.996264)"/>
       <use xlink:href="#CMR17-30" transform="translate(72.787654 0) scale(0.996264)"/>
       <use xlink:href="#CMR17-38" transform="translate(118.478131 0) scale(0.996264)"/>
      </g>
     </g>
    </g>
   </g>
   <g id="PolyCollection_1">
    <defs>
     <path id="md201a37816" d="M 68.766449 -73.399296 
L 68.766449 -73.399296 
L 72.373722 -73.399296 
L 75.980994 -73.399296 
L 79.588267 -73.399296 
L 83.19554 -73.399296 
L 86.802813 -73.399296 
L 90.410085 -73.399296 
L 94.017358 -73.399296 
L 97.624631 -73.399296 
L 101.231904 -73.399296 
L 104.839176 -73.399296 
L 108.446449 -73.399296 
L 112.053722 -73.399296 
L 115.660994 -73.399296 
L 119.268267 -73.399296 
L 122.87554 -73.399296 
L 126.482813 -73.399296 
L 130.090085 -73.399296 
L 133.697358 -73.399296 
L 137.304631 -73.399296 
L 140.911904 -73.399296 
L 144.519176 -73.399296 
L 148.126449 -73.399296 
L 151.733722 -73.399296 
L 155.340994 -73.399296 
L 158.948267 -73.399296 
L 162.55554 -73.399296 
L 166.162813 -73.399296 
L 169.770085 -73.399296 
L 173.377358 -73.399297 
L 176.984631 -73.3993 
L 180.591904 -73.399307 
L 184.199176 -73.399331 
L 187.806449 -73.399401 
L 191.413722 -73.399598 
L 195.020994 -73.400134 
L 198.628267 -73.401527 
L 202.23554 -73.405008 
L 205.842813 -73.413345 
L 209.450085 -73.432496 
L 213.057358 -73.474677 
L 216.664631 -73.563737 
L 220.271904 -73.743954 
L 223.879176 -74.093353 
L 227.486449 -74.742151 
L 231.093722 -75.895567 
L 234.700994 -77.857732 
L 238.308267 -81.050003 
L 241.91554 -86.013179 
L 245.522813 -93.38062 
L 249.130085 -103.810102 
L 252.737358 -117.868549 
L 256.344631 -135.876266 
L 259.951904 -157.734384 
L 263.559176 -182.776009 
L 267.166449 -209.691073 
L 270.773722 -236.570178 
L 274.380994 -261.090487 
L 277.988267 -280.830142 
L 281.59554 -293.656949 
L 285.202813 -298.106448 
L 288.810085 -293.656949 
L 292.417358 -280.830142 
L 296.024631 -261.090487 
L 299.631904 -236.570178 
L 303.239176 -209.691073 
L 306.846449 -182.776009 
L 310.453722 -157.734384 
L 314.060994 -135.876266 
L 317.668267 -117.868549 
L 321.27554 -103.810102 
L 324.882813 -93.38062 
L 328.490085 -86.013179 
L 332.097358 -81.050003 
L 335.704631 -77.857732 
L 339.311904 -75.895567 
L 342.919176 -74.742151 
L 346.526449 -74.093353 
L 350.133722 -73.743954 
L 353.740994 -73.563737 
L 357.348267 -73.474677 
L 360.95554 -73.432496 
L 364.562813 -73.413345 
L 368.170085 -73.405008 
L 371.777358 -73.401527 
L 375.384631 -73.400134 
L 378.991904 -73.399598 
L 382.599176 -73.399401 
L 386.206449 -73.399331 
L 389.813722 -73.399307 
L 393.420994 -73.3993 
L 393.420994 -73.399296 
L 393.420994 -73.399296 
L 389.813722 -73.399296 
L 386.206449 -73.399296 
L 382.599176 -73.399296 
L 378.991904 -73.399296 
L 375.384631 -73.399296 
L 371.777358 -73.399296 
L 368.170085 -73.399296 
L 364.562813 -73.399296 
L 360.95554 -73.399296 
L 357.348267 -73.399296 
L 353.740994 -73.399296 
L 350.133722 -73.399296 
L 346.526449 -73.399296 
L 342.919176 -73.399296 
L 339.311904 -73.399296 
L 335.704631 -73.399296 
L 332.097358 -73.399296 
L 328.490085 -73.399296 
L 324.882813 -73.399296 
L 321.27554 -73.399296 
L 317.668267 -73.399296 
L 314.060994 -73.399296 
L 310.453722 -73.399296 
L 306.846449 -73.399296 
L 303.239176 -73.399296 
L 299.631904 -73.399296 
L 296.024631 -73.399296 
L 292.417358 -73.399296 
L 288.810085 -73.399296 
L 285.202813 -73.399296 
L 281.59554 -73.399296 
L 277.988267 -73.399296 
L 274.380994 -73.399296 
L 270.773722 -73.399296 
L 267.166449 -73.399296 
L 263.559176 -73.399296 
L 259.951904 -73.399296 
L 256.344631 -73.399296 
L 252.737358 -73.399296 
L 249.130085 -73.399296 
L 245.522813 -73.399296 
L 241.91554 -73.399296 
L 238.308267 -73.399296 
L 234.700994 -73.399296 
L 231.093722 -73.399296 
L 227.486449 -73.399296 
L 223.879176 -73.399296 
L 220.271904 -73.399296 
L 216.664631 -73.399296 
L 213.057358 -73.399296 
L 209.450085 -73.399296 
L 205.842813 -73.399296 
L 202.23554 -73.399296 
L 198.628267 -73.399296 
L 195.020994 -73.399296 
L 191.413722 -73.399296 
L 187.806449 -73.399296 
L 184.199176 -73.399296 
L 180.591904 -73.399296 
L 176.984631 -73.399296 
L 173.377358 -73.399296 
L 169.770085 -73.399296 
L 166.162813 -73.399296 
L 162.55554 -73.399296 
L 158.948267 -73.399296 
L 155.340994 -73.399296 
L 151.733722 -73.399296 
L 148.126449 -73.399296 
L 144.519176 -73.399296 
L 140.911904 -73.399296 
L 137.304631 -73.399296 
L 133.697358 -73.399296 
L 130.090085 -73.399296 
L 126.482813 -73.399296 
L 122.87554 -73.399296 
L 119.268267 -73.399296 
L 115.660994 -73.399296 
L 112.053722 -73.399296 
L 108.446449 -73.399296 
L 104.839176 -73.399296 
L 101.231904 -73.399296 
L 97.624631 -73.399296 
L 94.017358 -73.399296 
L 90.410085 -73.399296 
L 86.802813 -73.399296 
L 83.19554 -73.399296 
L 79.588267 -73.399296 
L 75.980994 -73.399296 
L 72.373722 -73.399296 
L 68.766449 -73.399296 
z
" style="stroke: #008000; stroke-opacity: 0.5; stroke-width: 1.5"/>
    </defs>
    <g clip-path="url(#pdf02d47376)">
     <use xlink:href="#md201a37816" x="0" y="334.615296" style="fill: #008000; fill-opacity: 0.5; stroke: #008000; stroke-opacity: 0.5; stroke-width: 1.5"/>
    </g>
   </g>
   <g id="PolyCollection_2">
    <defs>
     <path id="mfbab1d8679" d="M 68.766449 -73.399296 
L 68.766449 -73.484775 
L 72.373722 -73.510401 
L 75.980994 -73.543114 
L 79.588267 -73.584678 
L 83.19554 -73.637237 
L 86.802813 -73.703381 
L 90.410085 -73.786211 
L 94.017358 -73.88942 
L 97.624631 -74.01737 
L 101.231904 -74.175174 
L 104.839176 -74.368779 
L 108.446449 -74.60504 
L 112.053722 -74.891795 
L 115.660994 -75.237918 
L 119.268267 -75.65336 
L 122.87554 -76.149163 
L 126.482813 -76.73744 
L 130.090085 -77.431321 
L 133.697358 -78.244846 
L 137.304631 -79.192807 
L 140.911904 -80.290532 
L 144.519176 -81.553594 
L 148.126449 -82.997461 
L 151.733722 -84.637072 
L 155.340994 -86.486339 
L 158.948267 -88.557593 
L 162.55554 -90.860977 
L 166.162813 -93.403795 
L 169.770085 -96.189845 
L 173.377358 -99.218753 
L 176.984631 -102.485334 
L 180.591904 -105.979018 
L 184.199176 -109.683363 
L 187.806449 -113.575691 
L 191.413722 -117.626884 
L 195.020994 -121.801365 
L 198.628267 -126.057288 
L 202.23554 -130.346959 
L 205.842813 -134.617488 
L 209.450085 -138.81169 
L 213.057358 -142.869203 
L 216.664631 -146.727813 
L 220.271904 -150.324948 
L 223.879176 -153.599295 
L 227.486449 -156.492487 
L 231.093722 -158.950791 
L 234.700994 -160.92674 
L 238.308267 -162.380641 
L 241.91554 -163.281877 
L 245.522813 -163.609971 
L 249.130085 -163.355334 
L 252.737358 -162.519677 
L 256.344631 -161.116064 
L 259.951904 -159.16858 
L 263.559176 -156.711652 
L 267.166449 -153.78903 
L 270.773722 -150.452474 
L 274.380994 -146.760208 
L 277.988267 -142.775206 
L 281.59554 -138.563369 
L 285.202813 -134.191688 
L 288.810085 -129.726452 
L 292.417358 -125.231569 
L 296.024631 -120.767065 
L 299.631904 -116.387811 
L 303.239176 -112.142498 
L 306.846449 -108.072904 
L 310.453722 -104.213437 
L 314.060994 -100.59096 
L 317.668267 -97.224879 
L 321.27554 -94.127459 
L 324.882813 -91.304335 
L 328.490085 -88.755175 
L 332.097358 -86.474455 
L 335.704631 -84.452297 
L 339.311904 -82.675336 
L 342.919176 -81.12757 
L 346.526449 -79.791172 
L 350.133722 -78.647236 
L 353.740994 -77.676428 
L 357.348267 -76.859555 
L 360.95554 -76.178023 
L 364.562813 -75.614193 
L 368.170085 -75.151645 
L 371.777358 -74.775354 
L 375.384631 -74.471782 
L 378.991904 -74.228907 
L 382.599176 -74.036202 
L 386.206449 -73.884566 
L 389.813722 -73.766231 
L 393.420994 -73.674645 
L 393.420994 -73.399296 
L 393.420994 -73.399296 
L 389.813722 -73.399296 
L 386.206449 -73.399296 
L 382.599176 -73.399296 
L 378.991904 -73.399296 
L 375.384631 -73.399296 
L 371.777358 -73.399296 
L 368.170085 -73.399296 
L 364.562813 -73.399296 
L 360.95554 -73.399296 
L 357.348267 -73.399296 
L 353.740994 -73.399296 
L 350.133722 -73.399296 
L 346.526449 -73.399296 
L 342.919176 -73.399296 
L 339.311904 -73.399296 
L 335.704631 -73.399296 
L 332.097358 -73.399296 
L 328.490085 -73.399296 
L 324.882813 -73.399296 
L 321.27554 -73.399296 
L 317.668267 -73.399296 
L 314.060994 -73.399296 
L 310.453722 -73.399296 
L 306.846449 -73.399296 
L 303.239176 -73.399296 
L 299.631904 -73.399296 
L 296.024631 -73.399296 
L 292.417358 -73.399296 
L 288.810085 -73.399296 
L 285.202813 -73.399296 
L 281.59554 -73.399296 
L 277.988267 -73.399296 
L 274.380994 -73.399296 
L 270.773722 -73.399296 
L 267.166449 -73.399296 
L 263.559176 -73.399296 
L 259.951904 -73.399296 
L 256.344631 -73.399296 
L 252.737358 -73.399296 
L 249.130085 -73.399296 
L 245.522813 -73.399296 
L 241.91554 -73.399296 
L 238.308267 -73.399296 
L 234.700994 -73.399296 
L 231.093722 -73.399296 
L 227.486449 -73.399296 
L 223.879176 -73.399296 
L 220.271904 -73.399296 
L 216.664631 -73.399296 
L 213.057358 -73.399296 
L 209.450085 -73.399296 
L 205.842813 -73.399296 
L 202.23554 -73.399296 
L 198.628267 -73.399296 
L 195.020994 -73.399296 
L 191.413722 -73.399296 
L 187.806449 -73.399296 
L 184.199176 -73.399296 
L 180.591904 -73.399296 
L 176.984631 -73.399296 
L 173.377358 -73.399296 
L 169.770085 -73.399296 
L 166.162813 -73.399296 
L 162.55554 -73.399296 
L 158.948267 -73.399296 
L 155.340994 -73.399296 
L 151.733722 -73.399296 
L 148.126449 -73.399296 
L 144.519176 -73.399296 
L 140.911904 -73.399296 
L 137.304631 -73.399296 
L 133.697358 -73.399296 
L 130.090085 -73.399296 
L 126.482813 -73.399296 
L 122.87554 -73.399296 
L 119.268267 -73.399296 
L 115.660994 -73.399296 
L 112.053722 -73.399296 
L 108.446449 -73.399296 
L 104.839176 -73.399296 
L 101.231904 -73.399296 
L 97.624631 -73.399296 
L 94.017358 -73.399296 
L 90.410085 -73.399296 
L 86.802813 -73.399296 
L 83.19554 -73.399296 
L 79.588267 -73.399296 
L 75.980994 -73.399296 
L 72.373722 -73.399296 
L 68.766449 -73.399296 
z
" style="stroke: #3778bf; stroke-opacity: 0.5; stroke-width: 1.5"/>
    </defs>
    <g clip-path="url(#pdf02d47376)">
     <use xlink:href="#mfbab1d8679" x="0" y="334.615296" style="fill: #3778bf; fill-opacity: 0.5; stroke: #3778bf; stroke-opacity: 0.5; stroke-width: 1.5"/>
    </g>
   </g>
   <g id="PolyCollection_3">
    <defs>
     <path id="medcec62286" d="M 68.766449 -73.399296 
L 68.766449 -73.399296 
L 72.373722 -73.399296 
L 75.980994 -73.399296 
L 79.588267 -73.399296 
L 83.19554 -73.399296 
L 86.802813 -73.399296 
L 90.410085 -73.399296 
L 94.017358 -73.399296 
L 97.624631 -73.399296 
L 101.231904 -73.399296 
L 104.839176 -73.399296 
L 108.446449 -73.399296 
L 112.053722 -73.399296 
L 115.660994 -73.399296 
L 119.268267 -73.399296 
L 122.87554 -73.399296 
L 126.482813 -73.399296 
L 130.090085 -73.399296 
L 133.697358 -73.399296 
L 137.304631 -73.399296 
L 140.911904 -73.399296 
L 144.519176 -73.399296 
L 148.126449 -73.399296 
L 151.733722 -73.399296 
L 155.340994 -73.399296 
L 158.948267 -73.399296 
L 162.55554 -73.399296 
L 166.162813 -73.399296 
L 169.770085 -73.399296 
L 173.377358 -73.399297 
L 176.984631 -73.399298 
L 180.591904 -73.399302 
L 184.199176 -73.399317 
L 187.806449 -73.399367 
L 191.413722 -73.399521 
L 195.020994 -73.399977 
L 198.628267 -73.401271 
L 202.23554 -73.404764 
L 205.842813 -73.413754 
L 209.450085 -73.435804 
L 213.057358 -73.48733 
L 216.664631 -73.602005 
L 220.271904 -73.845003 
L 223.879176 -74.335044 
L 227.486449 -75.275087 
L 231.093722 -76.989417 
L 234.700994 -79.959488 
L 238.308267 -84.843623 
L 241.91554 -92.458909 
L 245.522813 -103.70134 
L 249.130085 -119.387664 
L 252.737358 -140.022669 
L 256.344631 -165.52744 
L 259.951904 -194.998247 
L 263.559176 -226.587043 
L 267.166449 -257.586727 
L 270.773722 -284.759374 
L 274.380994 -304.871239 
L 277.988267 -315.319296 
L 281.59554 -314.683544 
L 285.202813 -303.043703 
L 288.810085 -281.962925 
L 292.417358 -254.143064 
L 296.024631 -222.8564 
L 299.631904 -191.318583 
L 303.239176 -162.166985 
L 306.846449 -137.154208 
L 310.453722 -117.085882 
L 314.060994 -101.95846 
L 317.668267 -91.210493 
L 321.27554 -83.996188 
L 324.882813 -79.413654 
L 328.490085 -76.655512 
L 332.097358 -75.080956 
L 335.704631 -74.22772 
L 339.311904 -73.78856 
L 342.919176 -73.573758 
L 346.526449 -73.473874 
L 350.133722 -73.429703 
L 353.740994 -73.41112 
L 357.348267 -73.403681 
L 360.95554 -73.400847 
L 364.562813 -73.399819 
L 368.170085 -73.399464 
L 371.777358 -73.399348 
L 375.384631 -73.399311 
L 378.991904 -73.3993 
L 382.599176 -73.399297 
L 386.206449 -73.399296 
L 389.813722 -73.399296 
L 393.420994 -73.399296 
L 393.420994 -73.399296 
L 393.420994 -73.399296 
L 389.813722 -73.399296 
L 386.206449 -73.399296 
L 382.599176 -73.399296 
L 378.991904 -73.399296 
L 375.384631 -73.399296 
L 371.777358 -73.399296 
L 368.170085 -73.399296 
L 364.562813 -73.399296 
L 360.95554 -73.399296 
L 357.348267 -73.399296 
L 353.740994 -73.399296 
L 350.133722 -73.399296 
L 346.526449 -73.399296 
L 342.919176 -73.399296 
L 339.311904 -73.399296 
L 335.704631 -73.399296 
L 332.097358 -73.399296 
L 328.490085 -73.399296 
L 324.882813 -73.399296 
L 321.27554 -73.399296 
L 317.668267 -73.399296 
L 314.060994 -73.399296 
L 310.453722 -73.399296 
L 306.846449 -73.399296 
L 303.239176 -73.399296 
L 299.631904 -73.399296 
L 296.024631 -73.399296 
L 292.417358 -73.399296 
L 288.810085 -73.399296 
L 285.202813 -73.399296 
L 281.59554 -73.399296 
L 277.988267 -73.399296 
L 274.380994 -73.399296 
L 270.773722 -73.399296 
L 267.166449 -73.399296 
L 263.559176 -73.399296 
L 259.951904 -73.399296 
L 256.344631 -73.399296 
L 252.737358 -73.399296 
L 249.130085 -73.399296 
L 245.522813 -73.399296 
L 241.91554 -73.399296 
L 238.308267 -73.399296 
L 234.700994 -73.399296 
L 231.093722 -73.399296 
L 227.486449 -73.399296 
L 223.879176 -73.399296 
L 220.271904 -73.399296 
L 216.664631 -73.399296 
L 213.057358 -73.399296 
L 209.450085 -73.399296 
L 205.842813 -73.399296 
L 202.23554 -73.399296 
L 198.628267 -73.399296 
L 195.020994 -73.399296 
L 191.413722 -73.399296 
L 187.806449 -73.399296 
L 184.199176 -73.399296 
L 180.591904 -73.399296 
L 176.984631 -73.399296 
L 173.377358 -73.399296 
L 169.770085 -73.399296 
L 166.162813 -73.399296 
L 162.55554 -73.399296 
L 158.948267 -73.399296 
L 155.340994 -73.399296 
L 151.733722 -73.399296 
L 148.126449 -73.399296 
L 144.519176 -73.399296 
L 140.911904 -73.399296 
L 137.304631 -73.399296 
L 133.697358 -73.399296 
L 130.090085 -73.399296 
L 126.482813 -73.399296 
L 122.87554 -73.399296 
L 119.268267 -73.399296 
L 115.660994 -73.399296 
L 112.053722 -73.399296 
L 108.446449 -73.399296 
L 104.839176 -73.399296 
L 101.231904 -73.399296 
L 97.624631 -73.399296 
L 94.017358 -73.399296 
L 90.410085 -73.399296 
L 86.802813 -73.399296 
L 83.19554 -73.399296 
L 79.588267 -73.399296 
L 75.980994 -73.399296 
L 72.373722 -73.399296 
L 68.766449 -73.399296 
z
" style="stroke: #feb308; stroke-opacity: 0.5; stroke-width: 1.5"/>
    </defs>
    <g clip-path="url(#pdf02d47376)">
     <use xlink:href="#medcec62286" x="0" y="334.615296" style="fill: #feb308; fill-opacity: 0.5; stroke: #feb308; stroke-opacity: 0.5; stroke-width: 1.5"/>
    </g>
   </g>
   <g id="line2d_11">
    <path d="M 279.562428 273.312 
L 279.562428 7.2 
" clip-path="url(#pdf02d47376)" style="fill: none; stroke: #feb308; stroke-width: 2.25; stroke-linecap: round"/>
   </g>
   <g id="patch_3">
    <path d="M 52.533722 273.312 
L 52.533722 7.2 
" style="fill: none; stroke: #262626; stroke-width: 1.875; stroke-linejoin: miter; stroke-linecap: square"/>
   </g>
   <g id="patch_4">
    <path d="M 409.653722 273.312 
L 409.653722 7.2 
" style="fill: none; stroke: #262626; stroke-width: 1.875; stroke-linejoin: miter; stroke-linecap: square"/>
   </g>
   <g id="patch_5">
    <path d="M 52.533722 273.312 
L 409.653722 273.312 
" style="fill: none; stroke: #262626; stroke-width: 1.875; stroke-linejoin: miter; stroke-linecap: square"/>
   </g>
   <g id="patch_6">
    <path d="M 52.533722 7.2 
L 409.653722 7.2 
" style="fill: none; stroke: #262626; stroke-width: 1.875; stroke-linejoin: miter; stroke-linecap: square"/>
   </g>
   <g id="patch_7">
    <path d="M 327.756824 44.04641 
Q 309.354595 52.111247 290.952365 60.176085 
L 292.156559 62.923796 
Q 285.859493 63.49987 279.562428 64.075944 
Q 284.253902 59.836255 288.945376 55.596566 
L 290.149569 58.344277 
Q 308.551799 50.27944 326.954029 42.214602 
L 327.756824 44.04641 
z
" style="stroke: #ffffff; stroke-width: 1.5; stroke-linecap: round"/>
   </g>
   <g id="text_12">
    <!-- Adjusted momentum:  198.44 MeV/c -->
    <g transform="translate(68.766449 35.913079) scale(0.18 -0.18)">
     <defs>
      <path id="CMR17-41" d="M 2323 4441 
C 2291 4524 2278 4544 2214 4544 
C 2150 4544 2138 4524 2106 4441 
L 749 580 
C 627 236 371 166 147 166 
L 147 0 
C 262 12 518 12 640 12 
C 800 12 1056 12 1210 0 
L 1210 166 
C 909 179 864 382 864 459 
C 864 516 877 548 890 586 
L 1229 1536 
L 2906 1536 
L 3290 453 
C 3322 376 3322 363 3322 338 
C 3322 166 3046 166 2925 166 
L 2925 0 
C 3110 12 3443 12 3642 12 
C 3808 12 4128 12 4282 0 
L 4282 166 
C 3942 166 3827 166 3744 402 
L 2323 4441 
z
M 2067 3924 
L 2848 1702 
L 1286 1702 
L 2067 3924 
z
" transform="scale(0.015625)"/>
      <path id="CMR17-64" d="M 1869 4345 
L 1869 4179 
C 2246 4179 2304 4141 2304 3843 
L 2304 2371 
C 2278 2403 2016 2816 1498 2816 
C 845 2816 211 2228 211 1376 
C 211 529 806 -64 1434 -64 
C 1978 -64 2259 361 2291 406 
L 2291 -64 
L 3066 -13 
L 3066 154 
C 2688 154 2630 193 2630 503 
L 2630 4416 
L 1869 4345 
z
M 2291 762 
C 2291 568 2176 393 2029 264 
C 1811 70 1594 38 1472 38 
C 1286 38 621 135 621 1369 
C 621 2636 1363 2713 1530 2713 
C 1824 2713 2061 2545 2208 2313 
C 2291 2177 2291 2157 2291 2041 
L 2291 762 
z
" transform="scale(0.015625)"/>
      <path id="CMR17-6a" d="M 1165 3961 
C 1165 4102 1050 4224 902 4224 
C 762 4224 640 4108 640 3961 
C 640 3820 755 3699 902 3699 
C 1043 3699 1165 3814 1165 3961 
z
M 365 2745 
L 365 2579 
C 787 2579 838 2533 838 2221 
L 838 -410 
C 838 -735 781 -1242 403 -1242 
C 358 -1242 186 -1236 45 -1145 
C 90 -1138 250 -1093 250 -911 
C 250 -787 166 -677 19 -677 
C -122 -677 -211 -774 -211 -917 
C -211 -1177 70 -1344 397 -1344 
C 838 -1344 1165 -937 1165 -384 
L 1165 2816 
L 365 2745 
z
" transform="scale(0.015625)"/>
      <path id="CMR17-73" d="M 1978 2688 
C 1978 2803 1971 2809 1933 2809 
C 1907 2809 1901 2803 1824 2707 
C 1805 2681 1747 2617 1728 2592 
C 1523 2809 1235 2816 1126 2816 
C 416 2816 160 2444 160 2073 
C 160 1497 813 1363 998 1324 
C 1402 1241 1542 1216 1677 1100 
C 1760 1024 1901 883 1901 652 
C 1901 384 1747 38 1158 38 
C 602 38 403 460 288 1024 
C 269 1113 269 1120 218 1120 
C 166 1120 160 1113 160 985 
L 160 64 
C 160 -52 166 -58 205 -58 
C 237 -58 243 -52 275 0 
C 314 57 410 211 448 275 
C 576 102 800 -64 1158 -64 
C 1792 -64 2131 281 2131 780 
C 2131 1107 1958 1280 1875 1356 
C 1683 1555 1459 1600 1190 1651 
C 838 1728 390 1817 390 2208 
C 390 2374 480 2726 1126 2726 
C 1811 2726 1850 2086 1862 1881 
C 1869 1849 1901 1843 1920 1843 
C 1978 1843 1978 1862 1978 1971 
L 1978 2688 
z
" transform="scale(0.015625)"/>
      <path id="CMR17-3a" d="M 1062 2489 
C 1062 2649 934 2752 800 2752 
C 672 2752 538 2649 538 2489 
C 538 2329 666 2227 800 2227 
C 928 2227 1062 2329 1062 2489 
z
M 1062 262 
C 1062 422 934 524 800 524 
C 672 524 538 422 538 262 
C 538 102 666 0 800 0 
C 928 0 1062 102 1062 262 
z
" transform="scale(0.015625)"/>
      <path id="CMR17-39" d="M 2253 1871 
C 2253 448 1670 25 1190 25 
C 1043 25 685 43 538 281 
C 704 256 826 345 826 505 
C 826 678 685 736 595 736 
C 538 736 365 710 365 492 
C 365 68 742 -128 1203 -128 
C 1939 -128 2688 665 2688 2090 
C 2688 3857 1971 4224 1485 4224 
C 851 4224 243 3664 243 2800 
C 243 2000 762 1408 1414 1408 
C 1952 1408 2189 1910 2253 2122 
L 2253 1871 
z
M 1427 1510 
C 1254 1510 1011 1542 813 1929 
C 678 2181 678 2477 678 2793 
C 678 3174 678 3438 858 3722 
C 947 3857 1114 4076 1485 4076 
C 2240 4076 2240 2909 2240 2651 
C 2240 2193 2035 1510 1427 1510 
z
" transform="scale(0.015625)"/>
      <path id="CMR17-2e" d="M 1062 262 
C 1062 422 934 524 800 524 
C 672 524 538 422 538 262 
C 538 102 666 0 800 0 
C 928 0 1062 102 1062 262 
z
" transform="scale(0.015625)"/>
     </defs>
     <use xlink:href="#CMR17-41" transform="scale(0.996264)"/>
     <use xlink:href="#CMR17-64" transform="translate(69.07243 0) scale(0.996264)"/>
     <use xlink:href="#CMR17-6a" transform="translate(119.9678 0) scale(0.996264)"/>
     <use xlink:href="#CMR17-75" transform="translate(147.441312 0) scale(0.996264)"/>
     <use xlink:href="#CMR17-73" transform="translate(198.336682 0) scale(0.996264)"/>
     <use xlink:href="#CMR17-74" transform="translate(234.138019 0) scale(0.996264)"/>
     <use xlink:href="#CMR17-65" transform="translate(269.418787 0) scale(0.996264)"/>
     <use xlink:href="#CMR17-64" transform="translate(309.904448 0) scale(0.996264)"/>
     <use xlink:href="#CMR17-6d" transform="translate(390.875784 0) scale(0.996264)"/>
     <use xlink:href="#CMR17-6f" transform="translate(467.795374 0) scale(0.996264)"/>
     <use xlink:href="#CMR17-6d" transform="translate(513.485851 0) scale(0.996264)"/>
     <use xlink:href="#CMR17-65" transform="translate(590.405441 0) scale(0.996264)"/>
     <use xlink:href="#CMR17-6e" transform="translate(630.891101 0) scale(0.996264)"/>
     <use xlink:href="#CMR17-74" transform="translate(679.184017 0) scale(0.996264)"/>
     <use xlink:href="#CMR17-75" transform="translate(714.464785 0) scale(0.996264)"/>
     <use xlink:href="#CMR17-6d" transform="translate(765.360155 0) scale(0.996264)"/>
     <use xlink:href="#CMR17-3a" transform="translate(842.279744 0) scale(0.996264)"/>
     <use xlink:href="#CMR17-31" transform="translate(907.636463 0) scale(0.996264)"/>
     <use xlink:href="#CMR17-39" transform="translate(953.32694 0) scale(0.996264)"/>
     <use xlink:href="#CMR17-38" transform="translate(999.017418 0) scale(0.996264)"/>
     <use xlink:href="#CMR17-2e" transform="translate(1044.707895 0) scale(0.996264)"/>
     <use xlink:href="#CMR17-34" transform="translate(1069.578953 0) scale(0.996264)"/>
     <use xlink:href="#CMR17-34" transform="translate(1115.26943 0) scale(0.996264)"/>
     <use xlink:href="#CMR17-4d" transform="translate(1191.035874 0) scale(0.996264)"/>
     <use xlink:href="#CMR17-65" transform="translate(1275.722814 0) scale(0.996264)"/>
     <use xlink:href="#CMR17-56" transform="translate(1316.208475 0) scale(0.996264)"/>
     <use xlink:href="#CMR17-2f" transform="translate(1385.280905 0) scale(0.996264)"/>
     <use xlink:href="#CMR17-63" transform="translate(1430.971382 0) scale(0.996264)"/>
    </g>
   </g>
   <g id="legend_1">
    <g id="patch_8">
     <path d="M 60.933722 167.142894 
L 259.66198 167.142894 
Q 262.06198 167.142894 262.06198 164.742894 
L 262.06198 115.769106 
Q 262.06198 113.369106 259.66198 113.369106 
L 60.933722 113.369106 
Q 58.533722 113.369106 58.533722 115.769106 
L 58.533722 164.742894 
Q 58.533722 167.142894 60.933722 167.142894 
z
" style="fill: #ffffff; opacity: 0.8; stroke: #cccccc; stroke-width: 1.5; stroke-linejoin: miter"/>
    </g>
    <g id="patch_9">
     <path d="M 63.333722 126.569106 
L 87.333722 126.569106 
L 87.333722 118.169106 
L 63.333722 118.169106 
z
" style="fill: #008000; fill-opacity: 0.5; stroke: #008000; stroke-opacity: 0.5; stroke-width: 1.5; stroke-linejoin: miter"/>
    </g>
    <g id="text_13">
     <!-- Raw Measurement -->
     <g style="fill: #262626" transform="translate(96.933722 126.569106) scale(0.12 -0.12)">
      <defs>
       <path id="CMR17-52" d="M 2509 2156 
C 3117 2278 3629 2689 3629 3203 
C 3629 3806 2950 4352 2054 4352 
L 333 4352 
L 333 4185 
C 774 4185 845 4185 845 3896 
L 845 428 
C 845 140 774 140 333 140 
L 333 -26 
C 518 -13 851 -13 1050 -13 
C 1248 -13 1581 -13 1766 -26 
L 1766 140 
C 1325 140 1254 140 1254 428 
L 1254 2112 
L 2003 2112 
C 2368 2112 2573 1964 2662 1881 
C 2918 1632 2918 1459 2918 1024 
C 2918 595 2918 377 3110 160 
C 3354 -103 3680 -128 3821 -128 
C 4294 -128 4365 403 4365 512 
C 4365 550 4365 595 4307 595 
C 4256 595 4250 556 4250 531 
C 4218 115 4032 -26 3834 -26 
C 3482 -26 3443 377 3405 768 
C 3386 902 3373 998 3360 1139 
C 3322 1459 3270 1926 2509 2156 
z
M 1984 2214 
L 1254 2214 
L 1254 3935 
C 1254 4153 1267 4185 1523 4185 
L 1990 4185 
C 2522 4185 3142 3999 3142 3203 
C 3142 2374 2464 2214 1984 2214 
z
" transform="scale(0.015625)"/>
       <path id="CMR17-61" d="M 2304 1656 
C 2304 2048 2304 2275 2035 2534 
C 1798 2751 1523 2816 1306 2816 
C 800 2816 435 2408 435 1977 
C 435 1740 627 1728 666 1728 
C 749 1728 896 1779 896 1958 
C 896 2118 774 2188 666 2188 
C 640 2188 608 2182 589 2176 
C 723 2594 1069 2713 1293 2713 
C 1613 2713 1965 2421 1965 1875 
L 1965 1632 
C 1587 1619 1133 1568 774 1373 
C 371 1147 256 822 256 576 
C 256 77 832 -64 1171 -64 
C 1523 -64 1850 135 1990 505 
C 2003 219 2182 -39 2464 -39 
C 2598 -39 2938 51 2938 563 
L 2938 926 
L 2822 926 
L 2822 557 
C 2822 161 2650 109 2566 109 
C 2304 109 2304 446 2304 732 
L 2304 1656 
z
M 1965 887 
C 1965 323 1568 38 1216 38 
C 896 38 646 278 646 576 
C 646 771 730 1114 1101 1322 
C 1408 1497 1760 1523 1965 1536 
L 1965 887 
z
" transform="scale(0.015625)"/>
       <path id="CMR17-77" d="M 3725 2186 
C 3853 2566 4109 2579 4205 2585 
L 4205 2752 
C 4077 2745 3949 2739 3821 2739 
C 3699 2739 3424 2739 3315 2752 
L 3315 2585 
C 3514 2572 3622 2456 3622 2296 
C 3622 2251 3610 2193 3597 2148 
L 2995 398 
L 2342 2296 
C 2330 2341 2310 2392 2310 2418 
C 2310 2585 2528 2585 2630 2585 
L 2630 2752 
C 2483 2739 2214 2739 2061 2739 
C 1901 2739 1734 2739 1587 2752 
L 1587 2585 
C 1939 2585 1939 2572 2074 2167 
L 1485 443 
L 851 2302 
C 819 2386 819 2399 819 2418 
C 819 2585 1037 2585 1139 2585 
L 1139 2752 
C 986 2739 717 2739 557 2739 
C 416 2739 198 2739 64 2752 
L 64 2585 
C 346 2585 416 2566 486 2353 
L 1274 38 
C 1299 -45 1318 -64 1370 -64 
C 1414 -64 1440 -52 1472 44 
L 2131 1987 
L 2797 44 
C 2829 -52 2854 -64 2899 -64 
C 2950 -64 2970 -45 2995 38 
L 3725 2186 
z
" transform="scale(0.015625)"/>
       <path id="CMR17-72" d="M 960 1517 
C 960 2134 1222 2713 1702 2713 
C 1747 2713 1792 2707 1837 2687 
C 1837 2687 1696 2642 1696 2475 
C 1696 2321 1818 2257 1914 2257 
C 1990 2257 2131 2302 2131 2482 
C 2131 2687 1926 2816 1709 2816 
C 1222 2816 1011 2340 947 2115 
L 941 2115 
L 941 2816 
L 198 2745 
L 198 2578 
C 576 2578 634 2540 634 2231 
L 634 443 
C 634 198 608 166 198 166 
L 198 0 
C 352 12 646 12 813 12 
C 998 12 1325 12 1498 0 
L 1498 166 
C 1037 166 960 166 960 455 
L 960 1517 
z
" transform="scale(0.015625)"/>
      </defs>
      <use xlink:href="#CMR17-52" transform="scale(0.996264)"/>
      <use xlink:href="#CMR17-61" transform="translate(67.791102 0) scale(0.996264)"/>
      <use xlink:href="#CMR17-77" transform="translate(110.879125 0) scale(0.996264)"/>
      <use xlink:href="#CMR17-4d" transform="translate(207.464972 0) scale(0.996264)"/>
      <use xlink:href="#CMR17-65" transform="translate(292.151913 0) scale(0.996264)"/>
      <use xlink:href="#CMR17-61" transform="translate(332.637573 0) scale(0.996264)"/>
      <use xlink:href="#CMR17-73" transform="translate(378.32805 0) scale(0.996264)"/>
      <use xlink:href="#CMR17-75" transform="translate(414.129388 0) scale(0.996264)"/>
      <use xlink:href="#CMR17-72" transform="translate(465.024758 0) scale(0.996264)"/>
      <use xlink:href="#CMR17-65" transform="translate(500.305525 0) scale(0.996264)"/>
      <use xlink:href="#CMR17-6d" transform="translate(540.791186 0) scale(0.996264)"/>
      <use xlink:href="#CMR17-65" transform="translate(617.710776 0) scale(0.996264)"/>
      <use xlink:href="#CMR17-6e" transform="translate(658.196436 0) scale(0.996264)"/>
      <use xlink:href="#CMR17-74" transform="translate(706.489352 0) scale(0.996264)"/>
     </g>
    </g>
    <g id="patch_10">
     <path d="M 63.333722 143.293702 
L 87.333722 143.293702 
L 87.333722 134.893702 
L 63.333722 134.893702 
z
" style="fill: #3778bf; fill-opacity: 0.5; stroke: #3778bf; stroke-opacity: 0.5; stroke-width: 1.5; stroke-linejoin: miter"/>
    </g>
    <g id="text_14">
     <!-- Measured energy plus PDG $m_{\pi}$ -->
     <g style="fill: #262626" transform="translate(96.933722 143.293702) scale(0.12 -0.12)">
      <defs>
       <path id="CMR17-67" d="M 710 1165 
C 832 1068 1043 960 1299 960 
C 1805 960 2240 1359 2240 1895 
C 2240 2063 2189 2321 1997 2521 
C 2176 2713 2438 2777 2586 2777 
C 2611 2777 2650 2777 2682 2758 
C 2656 2751 2598 2726 2598 2623 
C 2598 2540 2656 2483 2739 2483 
C 2835 2483 2886 2547 2886 2630 
C 2886 2751 2790 2880 2586 2880 
C 2330 2880 2106 2758 1926 2591 
C 1734 2764 1504 2828 1299 2828 
C 794 2828 358 2431 358 1895 
C 358 1527 570 1294 634 1230 
C 442 1004 442 742 442 710 
C 442 544 506 300 723 166 
C 390 82 128 -184 128 -517 
C 128 -996 736 -1344 1466 -1344 
C 2170 -1344 2803 -1009 2803 -510 
C 2803 384 1856 384 1363 384 
C 1216 384 954 384 922 390 
C 723 422 589 601 589 825 
C 589 883 589 1024 710 1165 
z
M 1299 1068 
C 736 1068 736 1766 736 1895 
C 736 2024 736 2719 1299 2719 
C 1862 2719 1862 2024 1862 1895 
C 1862 1766 1862 1068 1299 1068 
z
M 1466 -1236 
C 826 -1236 384 -883 384 -517 
C 384 -311 493 -118 634 -11 
C 794 102 858 102 1293 102 
C 1818 102 2547 102 2547 -517 
C 2547 -883 2106 -1236 1466 -1236 
z
" transform="scale(0.015625)"/>
       <path id="CMR17-79" d="M 2496 2183 
C 2656 2579 2944 2585 3034 2585 
L 3034 2752 
C 2912 2745 2752 2739 2630 2739 
C 2496 2739 2285 2739 2157 2752 
L 2157 2585 
C 2400 2566 2406 2384 2406 2332 
C 2406 2268 2394 2235 2362 2158 
L 1664 409 
L 902 2300 
C 870 2378 870 2423 870 2430 
C 870 2572 1018 2585 1171 2585 
L 1171 2752 
C 1018 2739 742 2739 582 2739 
C 410 2739 205 2739 64 2752 
L 64 2585 
C 410 2585 448 2553 531 2345 
L 1485 -31 
C 1197 -795 1030 -1242 627 -1242 
C 557 -1242 397 -1223 282 -1106 
C 429 -1093 493 -1002 493 -892 
C 493 -782 416 -685 288 -685 
C 147 -685 77 -782 77 -899 
C 77 -1158 339 -1344 627 -1344 
C 998 -1344 1229 -983 1357 -659 
L 2496 2183 
z
" transform="scale(0.015625)"/>
       <path id="CMR17-70" d="M 1408 -1114 
C 998 -1114 973 -1088 973 -834 
L 973 380 
C 1158 109 1427 -64 1766 -64 
C 2406 -64 3053 503 3053 1382 
C 3053 2196 2496 2816 1837 2816 
C 1453 2816 1139 2603 960 2345 
L 960 2816 
L 198 2745 
L 198 2577 
C 576 2577 634 2539 634 2228 
L 634 -834 
C 634 -1081 608 -1114 198 -1114 
L 198 -1280 
C 352 -1268 634 -1268 800 -1268 
C 966 -1268 1254 -1268 1408 -1280 
L 1408 -1114 
z
M 973 2015 
C 973 2106 973 2241 1222 2481 
C 1254 2506 1472 2700 1792 2700 
C 2259 2700 2643 2112 2643 1376 
C 2643 639 2234 38 1728 38 
C 1498 38 1248 148 1056 451 
C 973 594 973 632 973 736 
L 973 2015 
z
" transform="scale(0.015625)"/>
       <path id="CMR17-6c" d="M 979 4416 
L 218 4345 
L 218 4179 
C 595 4179 653 4141 653 3835 
L 653 439 
C 653 198 627 166 218 166 
L 218 0 
C 371 12 653 12 813 12 
C 979 12 1261 12 1414 0 
L 1414 166 
C 1005 166 979 191 979 439 
L 979 4416 
z
" transform="scale(0.015625)"/>
       <path id="CMR17-50" d="M 1267 2048 
L 2291 2048 
C 3117 2048 3718 2583 3718 3187 
C 3718 3791 3130 4352 2291 4352 
L 333 4352 
L 333 4185 
C 774 4185 845 4185 845 3899 
L 845 453 
C 845 166 774 166 333 166 
L 333 0 
C 518 12 858 12 1056 12 
C 1254 12 1594 12 1779 0 
L 1779 166 
C 1338 166 1267 166 1267 453 
L 1267 2048 
z
M 1254 2182 
L 1254 3937 
C 1254 4153 1267 4185 1523 4185 
L 2170 4185 
C 2995 4185 3232 3715 3232 3187 
C 3232 2608 2950 2182 2170 2182 
L 1254 2182 
z
" transform="scale(0.015625)"/>
       <path id="CMR17-44" d="M 333 4352 
L 333 4185 
C 774 4185 845 4185 845 3898 
L 845 453 
C 845 166 774 166 333 166 
L 333 0 
L 2368 0 
C 3398 0 4224 943 4224 2140 
C 4224 3344 3411 4352 2368 4352 
L 333 4352 
z
M 1523 166 
C 1267 166 1254 198 1254 414 
L 1254 3936 
C 1254 4153 1267 4185 1523 4185 
L 2240 4185 
C 2771 4185 3750 3873 3750 2140 
C 3750 1242 3488 879 3366 707 
C 3213 510 2848 166 2240 166 
L 1523 166 
z
" transform="scale(0.015625)"/>
       <path id="CMR17-47" d="M 3974 1258 
C 3974 1503 3994 1536 4390 1536 
L 4390 1702 
C 4237 1689 3891 1689 3718 1689 
C 3539 1689 3040 1696 2797 1702 
L 2797 1536 
L 2989 1536 
C 3539 1536 3552 1464 3552 1232 
L 3552 806 
C 3552 96 2720 38 2522 38 
C 1862 38 781 496 781 2179 
C 781 3862 1843 4313 2464 4313 
C 3187 4313 3712 3681 3834 2785 
C 3846 2708 3846 2695 3904 2695 
C 3974 2695 3974 2708 3974 2824 
L 3974 4351 
C 3974 4467 3968 4473 3930 4473 
C 3904 4473 3898 4467 3853 4390 
L 3571 3849 
C 3258 4249 2874 4480 2381 4480 
C 1286 4480 294 3507 294 2179 
C 294 858 1267 -128 2394 -128 
C 2912 -128 3418 57 3616 425 
C 3725 161 3904 -20 3936 -20 
C 3968 -20 3974 -13 3974 102 
L 3974 1258 
z
" transform="scale(0.015625)"/>
       <path id="CMMI12-6d" d="M 1318 1870 
C 1331 1909 1491 2228 1728 2432 
C 1894 2585 2112 2687 2362 2687 
C 2618 2687 2707 2496 2707 2241 
C 2707 2202 2707 2075 2630 1775 
L 2470 1117 
C 2419 925 2298 453 2285 383 
C 2259 287 2221 121 2221 95 
C 2221 6 2291 -64 2387 -64 
C 2579 -64 2611 83 2669 313 
L 3053 1838 
C 3066 1890 3398 2687 4102 2687 
C 4358 2687 4448 2496 4448 2241 
C 4448 1883 4198 1187 4058 804 
C 4000 651 3968 568 3968 453 
C 3968 166 4166 -64 4474 -64 
C 5069 -64 5293 874 5293 913 
C 5293 945 5267 970 5229 970 
C 5171 970 5165 951 5133 842 
C 4986 332 4749 64 4493 64 
C 4429 64 4326 70 4326 274 
C 4326 440 4403 645 4429 715 
C 4544 1021 4832 1775 4832 2145 
C 4832 2528 4608 2816 4122 2816 
C 3693 2816 3347 2573 3091 2196 
C 3072 2541 2861 2816 2381 2816 
C 1811 2816 1510 2413 1395 2253 
C 1376 2617 1114 2816 832 2816 
C 646 2816 499 2726 378 2483 
C 262 2253 173 1864 173 1838 
C 173 1813 198 1781 243 1781 
C 294 1781 301 1787 339 1934 
C 435 2311 557 2687 813 2687 
C 960 2687 1011 2585 1011 2394 
C 1011 2253 947 2004 902 1807 
L 723 1117 
C 698 996 627 708 595 593 
C 550 427 480 127 480 95 
C 480 6 550 -64 646 -64 
C 723 -64 813 -26 864 70 
C 877 102 934 325 966 453 
L 1107 1028 
L 1318 1870 
z
" transform="scale(0.015625)"/>
       <path id="CMMI12-19" d="M 1658 2406 
L 2381 2406 
C 2208 1691 2099 1225 2099 715 
C 2099 625 2099 -64 2362 -64 
C 2496 -64 2611 57 2611 166 
C 2611 198 2611 210 2566 306 
C 2394 746 2394 1295 2394 1340 
C 2394 1378 2394 1832 2528 2406 
L 3245 2406 
C 3328 2406 3539 2406 3539 2611 
C 3539 2752 3418 2752 3302 2752 
L 1197 2752 
C 1050 2752 832 2752 538 2438 
C 371 2253 166 1915 166 1876 
C 166 1838 198 1825 237 1825 
C 282 1825 288 1844 320 1883 
C 653 2406 986 2406 1146 2406 
L 1510 2406 
C 1370 1927 1210 1372 685 255 
C 634 153 634 140 634 102 
C 634 -32 749 -64 806 -64 
C 992 -64 1043 102 1120 370 
C 1222 695 1222 708 1286 964 
L 1658 2406 
z
" transform="scale(0.015625)"/>
      </defs>
      <use xlink:href="#CMR17-4d" transform="scale(0.996264)"/>
      <use xlink:href="#CMR17-65" transform="translate(84.686941 0) scale(0.996264)"/>
      <use xlink:href="#CMR17-61" transform="translate(125.172601 0) scale(0.996264)"/>
      <use xlink:href="#CMR17-73" transform="translate(170.863078 0) scale(0.996264)"/>
      <use xlink:href="#CMR17-75" transform="translate(206.664416 0) scale(0.996264)"/>
      <use xlink:href="#CMR17-72" transform="translate(257.559786 0) scale(0.996264)"/>
      <use xlink:href="#CMR17-65" transform="translate(292.840553 0) scale(0.996264)"/>
      <use xlink:href="#CMR17-64" transform="translate(333.326214 0) scale(0.996264)"/>
      <use xlink:href="#CMR17-65" transform="translate(414.29755 0) scale(0.996264)"/>
      <use xlink:href="#CMR17-6e" transform="translate(454.78321 0) scale(0.996264)"/>
      <use xlink:href="#CMR17-65" transform="translate(505.67858 0) scale(0.996264)"/>
      <use xlink:href="#CMR17-72" transform="translate(546.164241 0) scale(0.996264)"/>
      <use xlink:href="#CMR17-67" transform="translate(581.445008 0) scale(0.996264)"/>
      <use xlink:href="#CMR17-79" transform="translate(627.135486 0) scale(0.996264)"/>
      <use xlink:href="#CMR17-70" transform="translate(705.504368 0) scale(0.996264)"/>
      <use xlink:href="#CMR17-6c" transform="translate(756.399738 0) scale(0.996264)"/>
      <use xlink:href="#CMR17-75" transform="translate(781.270796 0) scale(0.996264)"/>
      <use xlink:href="#CMR17-73" transform="translate(832.166166 0) scale(0.996264)"/>
      <use xlink:href="#CMR17-50" transform="translate(898.04347 0) scale(0.996264)"/>
      <use xlink:href="#CMR17-44" transform="translate(960.62977 0) scale(0.996264)"/>
      <use xlink:href="#CMR17-47" transform="translate(1031.023326 0) scale(0.996264)"/>
      <use xlink:href="#CMMI12-6d" transform="translate(1133.454638 0) scale(0.996264)"/>
      <use xlink:href="#CMMI12-19" transform="translate(1218.781863 -14.943915) scale(0.697382)"/>
     </g>
    </g>
    <g id="patch_11">
     <path d="M 63.333722 160.018298 
L 87.333722 160.018298 
L 87.333722 151.618298 
L 63.333722 151.618298 
z
" style="fill: #feb308; fill-opacity: 0.5; stroke: #feb308; stroke-opacity: 0.5; stroke-width: 1.5; stroke-linejoin: miter"/>
    </g>
    <g id="text_15">
     <!-- Adjusted Measurement -->
     <g style="fill: #262626" transform="translate(96.933722 160.018298) scale(0.12 -0.12)">
      <use xlink:href="#CMR17-41" transform="scale(0.996264)"/>
      <use xlink:href="#CMR17-64" transform="translate(69.07243 0) scale(0.996264)"/>
      <use xlink:href="#CMR17-6a" transform="translate(119.9678 0) scale(0.996264)"/>
      <use xlink:href="#CMR17-75" transform="translate(147.441312 0) scale(0.996264)"/>
      <use xlink:href="#CMR17-73" transform="translate(198.336682 0) scale(0.996264)"/>
      <use xlink:href="#CMR17-74" transform="translate(234.138019 0) scale(0.996264)"/>
      <use xlink:href="#CMR17-65" transform="translate(269.418787 0) scale(0.996264)"/>
      <use xlink:href="#CMR17-64" transform="translate(309.904448 0) scale(0.996264)"/>
      <use xlink:href="#CMR17-4d" transform="translate(390.875784 0) scale(0.996264)"/>
      <use xlink:href="#CMR17-65" transform="translate(475.562724 0) scale(0.996264)"/>
      <use xlink:href="#CMR17-61" transform="translate(516.048385 0) scale(0.996264)"/>
      <use xlink:href="#CMR17-73" transform="translate(561.738862 0) scale(0.996264)"/>
      <use xlink:href="#CMR17-75" transform="translate(597.5402 0) scale(0.996264)"/>
      <use xlink:href="#CMR17-72" transform="translate(648.435569 0) scale(0.996264)"/>
      <use xlink:href="#CMR17-65" transform="translate(683.716337 0) scale(0.996264)"/>
      <use xlink:href="#CMR17-6d" transform="translate(724.201998 0) scale(0.996264)"/>
      <use xlink:href="#CMR17-65" transform="translate(801.121588 0) scale(0.996264)"/>
      <use xlink:href="#CMR17-6e" transform="translate(841.607248 0) scale(0.996264)"/>
      <use xlink:href="#CMR17-74" transform="translate(889.900164 0) scale(0.996264)"/>
     </g>
    </g>
   </g>
  </g>
 </g>
 <defs>
  <clipPath id="pdf02d47376">
   <rect x="52.533722" y="7.2" width="357.12" height="266.112"/>
  </clipPath>
 </defs>
</svg>
