<?xml version="1.0" encoding="utf-8" standalone="no"?>
<!DOCTYPE svg PUBLIC "-//W3C//DTD SVG 1.1//EN"
  "http://www.w3.org/Graphics/SVG/1.1/DTD/svg11.dtd">
<svg xmlns:xlink="http://www.w3.org/1999/xlink" width="641.758974pt" height="442.560611pt" viewBox="0 0 641.758974 442.560611" xmlns="http://www.w3.org/2000/svg" version="1.1">
 <metadata>
  <rdf:RDF xmlns:dc="http://purl.org/dc/elements/1.1/" xmlns:cc="http://creativecommons.org/ns#" xmlns:rdf="http://www.w3.org/1999/02/22-rdf-syntax-ns#">
   <cc:Work>
    <dc:type rdf:resource="http://purl.org/dc/dcmitype/StillImage"/>
    <dc:date>2023-02-26T16:48:33.139872</dc:date>
    <dc:format>image/svg+xml</dc:format>
    <dc:creator>
     <cc:Agent>
      <dc:title>Matplotlib v3.6.2, https://matplotlib.org/</dc:title>
     </cc:Agent>
    </dc:creator>
   </cc:Work>
  </rdf:RDF>
 </metadata>
 <defs>
  <style type="text/css">*{stroke-linejoin: round; stroke-linecap: butt}</style>
 </defs>
 <g id="figure_1">
  <g id="patch_1">
   <path d="M 0 442.560611 
L 641.758974 442.560611 
L 641.758974 -0 
L 0 -0 
z
" style="fill: #ffffff"/>
  </g>
  <g id="axes_1">
   <g id="patch_2">
    <path d="M 20.355484 381.257315 
L 617.464174 381.257315 
L 617.464174 91.839132 
L 20.355484 91.839132 
z
" style="fill: #ffffff"/>
   </g>
   <g id="axes_2">
    <g id="patch_3">
     <path d="M 20.355484 91.839132 
L 617.464174 91.839132 
L 617.464174 91.839132 
L 20.355484 91.839132 
z
" style="fill: #ffffff"/>
    </g>
    <g id="matplotlib.axis_1">
     <g id="xtick_1">
      <g id="line2d_1">
       <defs>
        <path id="m003e26ee90" d="M 0 0 
L 0 -9 
" style="stroke: #262626; stroke-width: 1.875"/>
       </defs>
       <g>
        <use xlink:href="#m003e26ee90" x="76.56438" y="91.839132" style="fill: #262626; stroke: #262626; stroke-width: 1.875"/>
       </g>
      </g>
      <g id="text_1">
       <!-- $\mathdefault{200}$ -->
       <g style="fill: #262626" transform="translate(62.857237 75.463498) scale(0.2 -0.2)">
        <defs>
         <path id="CMR17-32" d="M 2669 990 
L 2554 990 
C 2490 537 2438 460 2413 422 
C 2381 371 1920 371 1830 371 
L 602 371 
C 832 620 1280 1073 1824 1596 
C 2214 1966 2669 2400 2669 3033 
C 2669 3788 2067 4224 1395 4224 
C 691 4224 262 3603 262 3027 
C 262 2777 448 2745 525 2745 
C 589 2745 781 2783 781 3007 
C 781 3206 614 3264 525 3264 
C 486 3264 448 3257 422 3244 
C 544 3788 915 4057 1306 4057 
C 1862 4057 2227 3616 2227 3033 
C 2227 2477 1901 1998 1536 1583 
L 262 147 
L 262 0 
L 2515 0 
L 2669 990 
z
" transform="scale(0.015625)"/>
         <path id="CMR17-30" d="M 2688 2038 
C 2688 2430 2682 3099 2413 3613 
C 2176 4063 1798 4224 1466 4224 
C 1158 4224 768 4082 525 3620 
C 269 3137 243 2539 243 2038 
C 243 1671 250 1112 448 623 
C 723 -39 1216 -128 1466 -128 
C 1760 -128 2208 -7 2470 604 
C 2662 1048 2688 1568 2688 2038 
z
M 1466 -26 
C 1056 -26 813 328 723 816 
C 653 1196 653 1749 653 2109 
C 653 2604 653 3015 736 3407 
C 858 3954 1216 4121 1466 4121 
C 1728 4121 2067 3947 2189 3420 
C 2272 3054 2278 2623 2278 2109 
C 2278 1691 2278 1176 2202 797 
C 2067 96 1690 -26 1466 -26 
z
" transform="scale(0.015625)"/>
        </defs>
        <use xlink:href="#CMR17-32" transform="scale(0.996264)"/>
        <use xlink:href="#CMR17-30" transform="translate(45.690477 0) scale(0.996264)"/>
        <use xlink:href="#CMR17-30" transform="translate(91.380954 0) scale(0.996264)"/>
       </g>
      </g>
     </g>
     <g id="xtick_2">
      <g id="line2d_2">
       <g>
        <use xlink:href="#m003e26ee90" x="172.629167" y="91.839132" style="fill: #262626; stroke: #262626; stroke-width: 1.875"/>
       </g>
      </g>
      <g id="text_2">
       <!-- $\mathdefault{400}$ -->
       <g style="fill: #262626" transform="translate(158.922024 75.463498) scale(0.2 -0.2)">
        <defs>
         <path id="CMR17-34" d="M 2150 4147 
C 2150 4281 2144 4288 2029 4288 
L 128 1254 
L 128 1088 
L 1779 1088 
L 1779 460 
C 1779 230 1766 166 1318 166 
L 1197 166 
L 1197 0 
C 1402 12 1747 12 1965 12 
C 2182 12 2528 12 2733 0 
L 2733 166 
L 2611 166 
C 2163 166 2150 230 2150 460 
L 2150 1088 
L 2803 1088 
L 2803 1254 
L 2150 1254 
L 2150 4147 
z
M 1798 3723 
L 1798 1254 
L 256 1254 
L 1798 3723 
z
" transform="scale(0.015625)"/>
        </defs>
        <use xlink:href="#CMR17-34" transform="scale(0.996264)"/>
        <use xlink:href="#CMR17-30" transform="translate(45.690477 0) scale(0.996264)"/>
        <use xlink:href="#CMR17-30" transform="translate(91.380954 0) scale(0.996264)"/>
       </g>
      </g>
     </g>
     <g id="xtick_3">
      <g id="line2d_3">
       <g>
        <use xlink:href="#m003e26ee90" x="258.141784" y="91.839132" style="fill: #262626; stroke: #262626; stroke-width: 1.875"/>
       </g>
      </g>
      <g id="text_3">
       <!-- $\mathdefault{600}$ -->
       <g style="fill: #262626" transform="translate(244.434641 75.463498) scale(0.2 -0.2)">
        <defs>
         <path id="CMR17-36" d="M 678 2198 
C 678 3712 1395 4076 1811 4076 
C 1946 4076 2272 4049 2400 3782 
C 2298 3782 2106 3782 2106 3558 
C 2106 3385 2246 3328 2336 3328 
C 2394 3328 2566 3353 2566 3571 
C 2566 3987 2246 4224 1805 4224 
C 1043 4224 243 3411 243 2011 
C 243 257 966 -128 1478 -128 
C 2099 -128 2688 431 2688 1295 
C 2688 2101 2170 2688 1517 2688 
C 1126 2688 838 2430 678 1979 
L 678 2198 
z
M 1478 25 
C 691 25 691 1212 691 1450 
C 691 1914 909 2585 1504 2585 
C 1613 2585 1926 2585 2138 2140 
C 2253 1889 2253 1624 2253 1302 
C 2253 954 2253 696 2118 438 
C 1978 173 1773 25 1478 25 
z
" transform="scale(0.015625)"/>
        </defs>
        <use xlink:href="#CMR17-36" transform="scale(0.996264)"/>
        <use xlink:href="#CMR17-30" transform="translate(45.690477 0) scale(0.996264)"/>
        <use xlink:href="#CMR17-30" transform="translate(91.380954 0) scale(0.996264)"/>
       </g>
      </g>
     </g>
     <g id="xtick_4">
      <g id="line2d_4">
       <g>
        <use xlink:href="#m003e26ee90" x="335.964786" y="91.839132" style="fill: #262626; stroke: #262626; stroke-width: 1.875"/>
       </g>
      </g>
      <g id="text_4">
       <!-- $\mathdefault{800}$ -->
       <g style="fill: #262626" transform="translate(322.257643 75.463498) scale(0.2 -0.2)">
        <defs>
         <path id="CMR17-38" d="M 1741 2289 
C 2144 2494 2554 2803 2554 3298 
C 2554 3884 1990 4224 1472 4224 
C 890 4224 378 3800 378 3215 
C 378 3054 416 2777 666 2533 
C 730 2469 998 2276 1171 2154 
C 883 2006 211 1652 211 945 
C 211 282 838 -128 1459 -128 
C 2144 -128 2720 366 2720 1022 
C 2720 1607 2330 1877 2074 2051 
L 1741 2289 
z
M 902 2855 
C 851 2887 595 3086 595 3388 
C 595 3781 998 4076 1459 4076 
C 1965 4076 2336 3716 2336 3298 
C 2336 2700 1670 2359 1638 2359 
C 1632 2359 1626 2359 1574 2398 
L 902 2855 
z
M 2080 1536 
C 2176 1466 2483 1253 2483 861 
C 2483 385 2010 25 1472 25 
C 890 25 448 443 448 951 
C 448 1459 838 1884 1280 2083 
L 2080 1536 
z
" transform="scale(0.015625)"/>
        </defs>
        <use xlink:href="#CMR17-38" transform="scale(0.996264)"/>
        <use xlink:href="#CMR17-30" transform="translate(45.690477 0) scale(0.996264)"/>
        <use xlink:href="#CMR17-30" transform="translate(91.380954 0) scale(0.996264)"/>
       </g>
      </g>
     </g>
     <g id="xtick_5">
      <g id="line2d_5">
       <g>
        <use xlink:href="#m003e26ee90" x="407.861516" y="91.839132" style="fill: #262626; stroke: #262626; stroke-width: 1.875"/>
       </g>
      </g>
      <g id="text_5">
       <!-- $\mathdefault{1000}$ -->
       <g style="fill: #262626" transform="translate(389.585325 75.463498) scale(0.2 -0.2)">
        <defs>
         <path id="CMR17-31" d="M 1702 4083 
C 1702 4217 1696 4224 1606 4224 
C 1357 3927 979 3833 621 3820 
C 602 3820 570 3820 563 3808 
C 557 3795 557 3782 557 3648 
C 755 3648 1088 3686 1344 3839 
L 1344 467 
C 1344 243 1331 166 781 166 
L 589 166 
L 589 0 
C 896 6 1216 12 1523 12 
C 1830 12 2150 6 2458 0 
L 2458 166 
L 2266 166 
C 1715 166 1702 236 1702 467 
L 1702 4083 
z
" transform="scale(0.015625)"/>
        </defs>
        <use xlink:href="#CMR17-31" transform="scale(0.996264)"/>
        <use xlink:href="#CMR17-30" transform="translate(45.690477 0) scale(0.996264)"/>
        <use xlink:href="#CMR17-30" transform="translate(91.380954 0) scale(0.996264)"/>
        <use xlink:href="#CMR17-30" transform="translate(137.071431 0) scale(0.996264)"/>
       </g>
      </g>
     </g>
     <g id="xtick_6">
      <g id="line2d_6">
       <g>
        <use xlink:href="#m003e26ee90" x="475.009468" y="91.839132" style="fill: #262626; stroke: #262626; stroke-width: 1.875"/>
       </g>
      </g>
      <g id="text_6">
       <!-- $\mathdefault{1200}$ -->
       <g style="fill: #262626" transform="translate(456.733277 75.463498) scale(0.2 -0.2)">
        <use xlink:href="#CMR17-31" transform="scale(0.996264)"/>
        <use xlink:href="#CMR17-32" transform="translate(45.690477 0) scale(0.996264)"/>
        <use xlink:href="#CMR17-30" transform="translate(91.380954 0) scale(0.996264)"/>
        <use xlink:href="#CMR17-30" transform="translate(137.071431 0) scale(0.996264)"/>
       </g>
      </g>
     </g>
     <g id="xtick_7">
      <g id="line2d_7">
       <g>
        <use xlink:href="#m003e26ee90" x="538.241231" y="91.839132" style="fill: #262626; stroke: #262626; stroke-width: 1.875"/>
       </g>
      </g>
      <g id="text_7">
       <!-- $\mathdefault{1400}$ -->
       <g style="fill: #262626" transform="translate(519.96504 75.463498) scale(0.2 -0.2)">
        <use xlink:href="#CMR17-31" transform="scale(0.996264)"/>
        <use xlink:href="#CMR17-34" transform="translate(45.690477 0) scale(0.996264)"/>
        <use xlink:href="#CMR17-30" transform="translate(91.380954 0) scale(0.996264)"/>
        <use xlink:href="#CMR17-30" transform="translate(137.071431 0) scale(0.996264)"/>
       </g>
      </g>
     </g>
     <g id="xtick_8">
      <g id="line2d_8">
       <g>
        <use xlink:href="#m003e26ee90" x="598.171266" y="91.839132" style="fill: #262626; stroke: #262626; stroke-width: 1.875"/>
       </g>
      </g>
      <g id="text_8">
       <!-- $\mathdefault{1600}$ -->
       <g style="fill: #262626" transform="translate(579.895075 75.463498) scale(0.2 -0.2)">
        <use xlink:href="#CMR17-31" transform="scale(0.996264)"/>
        <use xlink:href="#CMR17-36" transform="translate(45.690477 0) scale(0.996264)"/>
        <use xlink:href="#CMR17-30" transform="translate(91.380954 0) scale(0.996264)"/>
        <use xlink:href="#CMR17-30" transform="translate(137.071431 0) scale(0.996264)"/>
       </g>
      </g>
     </g>
     <g id="text_9">
      <!-- $E_{\gamma}$ [MeV] -->
      <g style="fill: #262626" transform="translate(280.112075 57.626501) scale(0.2 -0.2)">
       <defs>
        <path id="CMMI12-45" d="M 4448 1489 
C 4454 1508 4474 1553 4474 1578 
C 4474 1611 4448 1643 4410 1643 
C 4384 1643 4371 1636 4352 1617 
C 4339 1611 4339 1598 4282 1469 
C 3904 570 3629 185 2605 185 
L 1670 185 
C 1581 185 1568 185 1530 192 
C 1459 198 1453 211 1453 262 
C 1453 307 1466 346 1478 403 
L 1920 2176 
L 2554 2176 
C 3053 2176 3091 2066 3091 1874 
C 3091 1810 3091 1752 3046 1559 
C 3034 1534 3027 1508 3027 1489 
C 3027 1444 3059 1424 3098 1424 
C 3155 1424 3162 1469 3187 1559 
L 3552 3036 
C 3552 3068 3526 3099 3488 3099 
C 3430 3099 3424 3074 3398 2986 
C 3270 2500 3142 2361 2573 2361 
L 1965 2361 
L 2362 3913 
C 2419 4134 2432 4153 2694 4153 
L 3610 4153 
C 4397 4153 4557 3945 4557 3465 
C 4557 3459 4557 3282 4531 3074 
C 4525 3049 4518 3011 4518 2998 
C 4518 2948 4550 2929 4589 2929 
C 4634 2929 4659 2954 4672 3068 
L 4806 4172 
C 4806 4191 4819 4255 4819 4268 
C 4819 4339 4762 4339 4646 4339 
L 1523 4339 
C 1402 4339 1338 4339 1338 4223 
C 1338 4153 1382 4153 1491 4153 
C 1888 4153 1888 4109 1888 4039 
C 1888 4008 1882 3983 1862 3913 
L 998 474 
C 941 249 928 185 480 185 
C 358 185 294 185 294 70 
C 294 0 333 0 461 0 
L 3674 0 
C 3814 0 3821 6 3866 108 
L 4448 1489 
z
" transform="scale(0.015625)"/>
        <path id="CMMI12-d" d="M 2419 785 
C 2406 1097 2394 1586 2150 2158 
C 2022 2476 1805 2816 1338 2816 
C 550 2816 122 1815 122 1649 
C 122 1592 166 1592 186 1592 
C 243 1592 243 1605 275 1688 
C 410 2081 819 2393 1261 2393 
C 2150 2393 2278 1408 2278 779 
C 2278 378 2234 245 2195 118 
C 2074 -276 1862 -1064 1862 -1242 
C 1862 -1293 1882 -1351 1933 -1351 
C 2029 -1351 2086 -1140 2157 -886 
C 2310 -327 2349 -47 2381 207 
C 2400 360 2765 1409 3270 2407 
C 3315 2509 3405 2681 3405 2700 
C 3405 2707 3398 2752 3341 2752 
C 3328 2752 3296 2752 3283 2726 
C 3270 2713 3046 2280 2854 1848 
C 2758 1630 2630 1344 2419 785 
z
" transform="scale(0.015625)"/>
        <path id="CMR17-5b" d="M 1504 -1600 
L 1504 -1376 
L 902 -1376 
L 902 4575 
L 1504 4575 
L 1504 4800 
L 678 4800 
L 678 -1600 
L 1504 -1600 
z
" transform="scale(0.015625)"/>
        <path id="CMR17-4d" d="M 1338 4249 
C 1299 4345 1293 4352 1158 4352 
L 339 4352 
L 339 4185 
C 781 4185 851 4185 851 3898 
L 851 624 
C 851 465 851 166 339 166 
L 339 0 
C 486 12 755 12 915 12 
C 1075 12 1344 12 1491 0 
L 1491 166 
C 979 166 979 465 979 624 
L 979 4159 
L 986 4159 
L 2490 102 
C 2515 38 2528 0 2579 0 
C 2630 0 2643 38 2669 102 
L 4186 4191 
L 4192 4191 
L 4192 453 
C 4192 166 4122 166 3680 166 
L 3680 0 
C 3853 12 4198 12 4384 12 
C 4570 12 4922 12 5094 0 
L 5094 166 
C 4653 166 4582 166 4582 453 
L 4582 3898 
C 4582 4185 4653 4185 5094 4185 
L 5094 4352 
L 4282 4352 
C 4147 4352 4141 4345 4102 4249 
L 2720 516 
L 1338 4249 
z
" transform="scale(0.015625)"/>
        <path id="CMR17-65" d="M 2438 1503 
C 2464 1529 2464 1542 2464 1606 
C 2464 2251 2118 2816 1389 2816 
C 710 2816 173 2175 173 1394 
C 173 554 781 -64 1459 -64 
C 2176 -64 2458 619 2458 755 
C 2458 800 2419 800 2406 800 
C 2362 800 2355 787 2330 709 
C 2189 270 1837 51 1504 51 
C 1229 51 954 206 781 490 
C 582 819 582 1200 582 1503 
L 2438 1503 
z
M 589 1600 
C 634 2511 1126 2713 1382 2713 
C 1818 2713 2112 2308 2118 1600 
L 589 1600 
z
" transform="scale(0.015625)"/>
        <path id="CMR17-56" d="M 3776 3762 
C 3834 3903 3936 4179 4365 4185 
L 4365 4352 
C 4218 4339 4051 4339 3891 4339 
C 3738 4339 3475 4339 3328 4352 
L 3328 4185 
C 3648 4166 3661 3942 3661 3903 
C 3661 3833 3642 3788 3622 3737 
L 2362 448 
L 1043 3903 
C 1024 3948 1011 3980 1011 4012 
C 1011 4185 1267 4185 1402 4185 
L 1402 4352 
C 1197 4339 896 4339 685 4339 
C 518 4339 218 4339 64 4352 
L 64 4185 
C 435 4185 506 4160 582 3955 
L 2106 -26 
C 2138 -116 2144 -128 2214 -128 
C 2285 -128 2291 -116 2323 -26 
L 3776 3762 
z
" transform="scale(0.015625)"/>
        <path id="CMR17-5d" d="M 915 4800 
L 90 4800 
L 90 4575 
L 691 4575 
L 691 -1376 
L 90 -1376 
L 90 -1600 
L 915 -1600 
L 915 4800 
z
" transform="scale(0.015625)"/>
       </defs>
       <use xlink:href="#CMMI12-45" transform="scale(0.996264)"/>
       <use xlink:href="#CMMI12-d" transform="translate(72.211218 -14.943915) scale(0.697382)"/>
       <use xlink:href="#CMR17-5b" transform="translate(141.998116 0) scale(0.996264)"/>
       <use xlink:href="#CMR17-4d" transform="translate(166.869175 0) scale(0.996264)"/>
       <use xlink:href="#CMR17-65" transform="translate(251.556115 0) scale(0.996264)"/>
       <use xlink:href="#CMR17-56" transform="translate(292.041776 0) scale(0.996264)"/>
       <use xlink:href="#CMR17-5d" transform="translate(361.114206 0) scale(0.996264)"/>
      </g>
     </g>
    </g>
    <g id="matplotlib.axis_2"/>
    <g id="patch_4">
     <path d="M 20.355484 91.839132 
L 617.464174 91.839132 
" style="fill: none; stroke: #262626; stroke-width: 1.875; stroke-linejoin: miter; stroke-linecap: square"/>
    </g>
   </g>
   <g id="matplotlib.axis_3">
    <g id="xtick_9">
     <g id="line2d_9">
      <defs>
       <path id="m5cb360ba09" d="M 0 0 
L 0 9 
" style="stroke: #262626; stroke-width: 1.875"/>
      </defs>
      <g>
       <use xlink:href="#m5cb360ba09" x="125.315157" y="381.257315" style="fill: #262626; stroke: #262626; stroke-width: 1.875"/>
      </g>
     </g>
     <g id="text_10">
      <!-- $\mathdefault{1200}$ -->
      <g style="fill: #262626" transform="translate(107.038966 407.594311) scale(0.2 -0.2)">
       <use xlink:href="#CMR17-31" transform="scale(0.996264)"/>
       <use xlink:href="#CMR17-32" transform="translate(45.690477 0) scale(0.996264)"/>
       <use xlink:href="#CMR17-30" transform="translate(91.380954 0) scale(0.996264)"/>
       <use xlink:href="#CMR17-30" transform="translate(137.071431 0) scale(0.996264)"/>
      </g>
     </g>
    </g>
    <g id="xtick_10">
     <g id="line2d_10">
      <g>
       <use xlink:href="#m5cb360ba09" x="248.057063" y="381.257315" style="fill: #262626; stroke: #262626; stroke-width: 1.875"/>
      </g>
     </g>
     <g id="text_11">
      <!-- $\mathdefault{1400}$ -->
      <g style="fill: #262626" transform="translate(229.780872 407.594311) scale(0.2 -0.2)">
       <use xlink:href="#CMR17-31" transform="scale(0.996264)"/>
       <use xlink:href="#CMR17-34" transform="translate(45.690477 0) scale(0.996264)"/>
       <use xlink:href="#CMR17-30" transform="translate(91.380954 0) scale(0.996264)"/>
       <use xlink:href="#CMR17-30" transform="translate(137.071431 0) scale(0.996264)"/>
      </g>
     </g>
    </g>
    <g id="xtick_11">
     <g id="line2d_11">
      <g>
       <use xlink:href="#m5cb360ba09" x="370.79897" y="381.257315" style="fill: #262626; stroke: #262626; stroke-width: 1.875"/>
      </g>
     </g>
     <g id="text_12">
      <!-- $\mathdefault{1600}$ -->
      <g style="fill: #262626" transform="translate(352.522779 407.594311) scale(0.2 -0.2)">
       <use xlink:href="#CMR17-31" transform="scale(0.996264)"/>
       <use xlink:href="#CMR17-36" transform="translate(45.690477 0) scale(0.996264)"/>
       <use xlink:href="#CMR17-30" transform="translate(91.380954 0) scale(0.996264)"/>
       <use xlink:href="#CMR17-30" transform="translate(137.071431 0) scale(0.996264)"/>
      </g>
     </g>
    </g>
    <g id="xtick_12">
     <g id="line2d_12">
      <g>
       <use xlink:href="#m5cb360ba09" x="493.540876" y="381.257315" style="fill: #262626; stroke: #262626; stroke-width: 1.875"/>
      </g>
     </g>
     <g id="text_13">
      <!-- $\mathdefault{1800}$ -->
      <g style="fill: #262626" transform="translate(475.264685 407.594311) scale(0.2 -0.2)">
       <use xlink:href="#CMR17-31" transform="scale(0.996264)"/>
       <use xlink:href="#CMR17-38" transform="translate(45.690477 0) scale(0.996264)"/>
       <use xlink:href="#CMR17-30" transform="translate(91.380954 0) scale(0.996264)"/>
       <use xlink:href="#CMR17-30" transform="translate(137.071431 0) scale(0.996264)"/>
      </g>
     </g>
    </g>
    <g id="xtick_13">
     <g id="line2d_13">
      <g>
       <use xlink:href="#m5cb360ba09" x="616.282783" y="381.257315" style="fill: #262626; stroke: #262626; stroke-width: 1.875"/>
      </g>
     </g>
     <g id="text_14">
      <!-- $\mathdefault{2000}$ -->
      <g style="fill: #262626" transform="translate(598.006592 407.594311) scale(0.2 -0.2)">
       <use xlink:href="#CMR17-32" transform="scale(0.996264)"/>
       <use xlink:href="#CMR17-30" transform="translate(45.690477 0) scale(0.996264)"/>
       <use xlink:href="#CMR17-30" transform="translate(91.380954 0) scale(0.996264)"/>
       <use xlink:href="#CMR17-30" transform="translate(137.071431 0) scale(0.996264)"/>
      </g>
     </g>
    </g>
    <g id="text_15">
     <!-- $W$ [MeV] -->
     <g style="fill: #262626" transform="translate(280.939083 430.395967) scale(0.2 -0.2)">
      <defs>
       <path id="CMMI12-57" d="M 5779 3644 
C 5926 3892 6067 4127 6451 4166 
C 6509 4172 6566 4179 6566 4281 
C 6566 4352 6509 4352 6490 4352 
C 6477 4352 6432 4339 6010 4339 
C 5818 4339 5619 4352 5434 4352 
C 5395 4352 5318 4352 5318 4230 
C 5318 4172 5370 4166 5408 4166 
C 5536 4159 5741 4121 5741 3924 
C 5741 3841 5715 3797 5651 3689 
L 3904 648 
L 3674 3962 
C 3674 4038 3744 4159 4102 4166 
C 4186 4166 4250 4166 4250 4287 
C 4250 4352 4186 4352 4154 4352 
C 3930 4352 3693 4339 3462 4339 
L 3130 4339 
C 3034 4339 2918 4352 2822 4352 
C 2784 4352 2707 4352 2707 4230 
C 2707 4166 2752 4166 2861 4166 
C 3155 4166 3155 4159 3181 3771 
L 3200 3542 
L 1542 648 
L 1306 3930 
C 1306 4000 1306 4159 1741 4166 
C 1811 4166 1882 4166 1882 4281 
C 1882 4352 1824 4352 1786 4352 
C 1562 4352 1325 4339 1094 4339 
L 762 4339 
C 666 4339 550 4352 454 4352 
C 416 4352 339 4352 339 4230 
C 339 4166 390 4166 480 4166 
C 781 4166 787 4127 800 3924 
L 1082 19 
C 1088 -90 1094 -128 1171 -128 
C 1235 -128 1248 -103 1306 -7 
L 3213 3307 
L 3450 19 
C 3456 -90 3462 -128 3539 -128 
C 3603 -128 3622 -96 3674 -7 
L 5779 3644 
z
" transform="scale(0.015625)"/>
      </defs>
      <use xlink:href="#CMMI12-57" transform="scale(0.996264)"/>
      <use xlink:href="#CMR17-5b" transform="translate(135.720464 0) scale(0.996264)"/>
      <use xlink:href="#CMR17-4d" transform="translate(160.591523 0) scale(0.996264)"/>
      <use xlink:href="#CMR17-65" transform="translate(245.278463 0) scale(0.996264)"/>
      <use xlink:href="#CMR17-56" transform="translate(285.764124 0) scale(0.996264)"/>
      <use xlink:href="#CMR17-5d" transform="translate(354.836553 0) scale(0.996264)"/>
     </g>
    </g>
   </g>
   <g id="LineCollection_1">
    <path d="M 48.29461 245.16186 
L 48.29461 184.866405 
" clip-path="url(#pd8ab94a362)" style="fill: none; stroke: #1f77b4; stroke-width: 2.25"/>
    <path d="M 50.319852 245.16186 
L 50.319852 305.457314 
" clip-path="url(#pd8ab94a362)" style="fill: none; stroke: #1f77b4; stroke-width: 2.25"/>
    <path d="M 131.145397 245.16186 
L 131.145397 167.639132 
" clip-path="url(#pd8ab94a362)" style="fill: none; stroke: #1f77b4; stroke-width: 2.25"/>
    <path d="M 301.695276 245.16186 
L 301.695276 322.684587 
" clip-path="url(#pd8ab94a362)" style="fill: none; stroke: #1f77b4; stroke-width: 2.25"/>
    <path d="M 378.961306 245.16186 
L 378.961306 150.411859 
" clip-path="url(#pd8ab94a362)" style="fill: none; stroke: #1f77b4; stroke-width: 2.25"/>
    <path d="M 426.216941 245.16186 
L 426.216941 339.91186 
" clip-path="url(#pd8ab94a362)" style="fill: none; stroke: #1f77b4; stroke-width: 2.25"/>
    <path d="M 426.707908 245.16186 
L 426.707908 133.184586 
" clip-path="url(#pd8ab94a362)" style="fill: none; stroke: #1f77b4; stroke-width: 2.25"/>
    <path d="M 445.794275 245.16186 
L 445.794275 357.139133 
" clip-path="url(#pd8ab94a362)" style="fill: none; stroke: #1f77b4; stroke-width: 2.25"/>
    <path d="M 553.254814 245.16186 
L 553.254814 115.957314 
" clip-path="url(#pd8ab94a362)" style="fill: none; stroke: #1f77b4; stroke-width: 2.25"/>
   </g>
   <g id="line2d_14">
    <path d="M 48.29461 245.16186 
L 50.319852 245.16186 
L 131.145397 245.16186 
L 301.695276 245.16186 
L 378.961306 245.16186 
L 426.216941 245.16186 
L 426.707908 245.16186 
L 445.794275 245.16186 
L 553.254814 245.16186 
" clip-path="url(#pd8ab94a362)" style="fill: none; stroke: #000000; stroke-width: 2.25; stroke-linecap: round"/>
    <defs>
     <path id="mf66d87d653" d="M 0 4.5 
C 1.193414 4.5 2.338109 4.025852 3.181981 3.181981 
C 4.025852 2.338109 4.5 1.193414 4.5 0 
C 4.5 -1.193414 4.025852 -2.338109 3.181981 -3.181981 
C 2.338109 -4.025852 1.193414 -4.5 0 -4.5 
C -1.193414 -4.5 -2.338109 -4.025852 -3.181981 -3.181981 
C -4.025852 -2.338109 -4.5 -1.193414 -4.5 0 
C -4.5 1.193414 -4.025852 2.338109 -3.181981 3.181981 
C -2.338109 4.025852 -1.193414 4.5 0 4.5 
z
" style="stroke: #000000"/>
    </defs>
    <g clip-path="url(#pd8ab94a362)">
     <use xlink:href="#mf66d87d653" x="48.29461" y="245.16186" style="fill: #ffffff; stroke: #000000"/>
     <use xlink:href="#mf66d87d653" x="50.319852" y="245.16186" style="fill: #ffffff; stroke: #000000"/>
     <use xlink:href="#mf66d87d653" x="131.145397" y="245.16186" style="fill: #ffffff; stroke: #000000"/>
     <use xlink:href="#mf66d87d653" x="301.695276" y="245.16186" style="fill: #ffffff; stroke: #000000"/>
     <use xlink:href="#mf66d87d653" x="378.961306" y="245.16186" style="fill: #ffffff; stroke: #000000"/>
     <use xlink:href="#mf66d87d653" x="426.216941" y="245.16186" style="fill: #ffffff; stroke: #000000"/>
     <use xlink:href="#mf66d87d653" x="426.707908" y="245.16186" style="fill: #ffffff; stroke: #000000"/>
     <use xlink:href="#mf66d87d653" x="445.794275" y="245.16186" style="fill: #ffffff; stroke: #000000"/>
     <use xlink:href="#mf66d87d653" x="553.254814" y="245.16186" style="fill: #ffffff; stroke: #000000"/>
    </g>
   </g>
   <g id="LineCollection_2">
    <path d="M 47.496788 245.16186 
L 47.496788 236.548223 
" clip-path="url(#pd8ab94a362)" style="fill: none; stroke: #d62728; stroke-width: 2.25"/>
    <path d="M 51.117674 245.16186 
L 51.117674 253.775496 
" clip-path="url(#pd8ab94a362)" style="fill: none; stroke: #d62728; stroke-width: 2.25"/>
    <path d="M 130.347575 245.16186 
L 130.347575 219.32095 
" clip-path="url(#pd8ab94a362)" style="fill: none; stroke: #d62728; stroke-width: 2.25"/>
    <path d="M 133.968461 245.16186 
L 133.968461 271.002769 
" clip-path="url(#pd8ab94a362)" style="fill: none; stroke: #d62728; stroke-width: 2.25"/>
    <path d="M 135.993702 245.16186 
L 135.993702 202.093678 
" clip-path="url(#pd8ab94a362)" style="fill: none; stroke: #d62728; stroke-width: 2.25"/>
    <path d="M 300.897454 245.16186 
L 300.897454 288.230042 
" clip-path="url(#pd8ab94a362)" style="fill: none; stroke: #d62728; stroke-width: 2.25"/>
    <path d="M 376.567839 245.16186 
L 376.567839 184.866405 
" clip-path="url(#pd8ab94a362)" style="fill: none; stroke: #d62728; stroke-width: 2.25"/>
    <path d="M 383.748241 245.16186 
L 383.748241 305.457314 
" clip-path="url(#pd8ab94a362)" style="fill: none; stroke: #d62728; stroke-width: 2.25"/>
    <path d="M 423.762102 245.16186 
L 423.762102 167.639132 
" clip-path="url(#pd8ab94a362)" style="fill: none; stroke: #d62728; stroke-width: 2.25"/>
    <path d="M 424.191699 245.16186 
L 424.191699 322.684587 
" clip-path="url(#pd8ab94a362)" style="fill: none; stroke: #d62728; stroke-width: 2.25"/>
    <path d="M 440.455002 245.16186 
L 440.455002 236.548223 
" clip-path="url(#pd8ab94a362)" style="fill: none; stroke: #d62728; stroke-width: 2.25"/>
    <path d="M 444.996452 245.16186 
L 444.996452 253.775496 
" clip-path="url(#pd8ab94a362)" style="fill: none; stroke: #d62728; stroke-width: 2.25"/>
    <path d="M 552.518362 245.16186 
L 552.518362 219.32095 
" clip-path="url(#pd8ab94a362)" style="fill: none; stroke: #d62728; stroke-width: 2.25"/>
    <path d="M 570.622794 245.16186 
L 570.622794 271.002769 
" clip-path="url(#pd8ab94a362)" style="fill: none; stroke: #d62728; stroke-width: 2.25"/>
    <path d="M 590.32287 245.16186 
L 590.32287 202.093678 
" clip-path="url(#pd8ab94a362)" style="fill: none; stroke: #d62728; stroke-width: 2.25"/>
   </g>
   <g id="line2d_15">
    <path d="M 47.496788 245.16186 
L 51.117674 245.16186 
L 130.347575 245.16186 
L 133.968461 245.16186 
L 135.993702 245.16186 
L 300.897454 245.16186 
L 376.567839 245.16186 
L 383.748241 245.16186 
L 423.762102 245.16186 
L 424.191699 245.16186 
L 440.455002 245.16186 
L 444.996452 245.16186 
L 552.518362 245.16186 
L 570.622794 245.16186 
L 590.32287 245.16186 
" clip-path="url(#pd8ab94a362)" style="fill: none; stroke: #000000; stroke-width: 2.25; stroke-linecap: round"/>
    <g clip-path="url(#pd8ab94a362)">
     <use xlink:href="#mf66d87d653" x="47.496788" y="245.16186" style="fill: #ffffff; stroke: #000000"/>
     <use xlink:href="#mf66d87d653" x="51.117674" y="245.16186" style="fill: #ffffff; stroke: #000000"/>
     <use xlink:href="#mf66d87d653" x="130.347575" y="245.16186" style="fill: #ffffff; stroke: #000000"/>
     <use xlink:href="#mf66d87d653" x="133.968461" y="245.16186" style="fill: #ffffff; stroke: #000000"/>
     <use xlink:href="#mf66d87d653" x="135.993702" y="245.16186" style="fill: #ffffff; stroke: #000000"/>
     <use xlink:href="#mf66d87d653" x="300.897454" y="245.16186" style="fill: #ffffff; stroke: #000000"/>
     <use xlink:href="#mf66d87d653" x="376.567839" y="245.16186" style="fill: #ffffff; stroke: #000000"/>
     <use xlink:href="#mf66d87d653" x="383.748241" y="245.16186" style="fill: #ffffff; stroke: #000000"/>
     <use xlink:href="#mf66d87d653" x="423.762102" y="245.16186" style="fill: #ffffff; stroke: #000000"/>
     <use xlink:href="#mf66d87d653" x="424.191699" y="245.16186" style="fill: #ffffff; stroke: #000000"/>
     <use xlink:href="#mf66d87d653" x="440.455002" y="245.16186" style="fill: #ffffff; stroke: #000000"/>
     <use xlink:href="#mf66d87d653" x="444.996452" y="245.16186" style="fill: #ffffff; stroke: #000000"/>
     <use xlink:href="#mf66d87d653" x="552.518362" y="245.16186" style="fill: #ffffff; stroke: #000000"/>
     <use xlink:href="#mf66d87d653" x="570.622794" y="245.16186" style="fill: #ffffff; stroke: #000000"/>
     <use xlink:href="#mf66d87d653" x="590.32287" y="245.16186" style="fill: #ffffff; stroke: #000000"/>
    </g>
   </g>
   <g id="patch_5">
    <path d="M 20.355484 381.257315 
L 617.464174 381.257315 
" style="fill: none; stroke: #262626; stroke-width: 1.875; stroke-linejoin: miter; stroke-linecap: square"/>
   </g>
   <g id="text_16">
    <!-- $\gamma p \rightarrow \pi^0 p$ -->
    <g style="fill: #262626" transform="translate(8.070877 230.060159) scale(0.18 -0.18)">
     <defs>
      <path id="CMMI12-70" d="M 275 -794 
C 230 -981 205 -1031 -58 -1031 
C -135 -1031 -199 -1031 -199 -1152 
C -199 -1165 -192 -1216 -122 -1216 
C -39 -1216 51 -1204 134 -1204 
L 410 -1204 
C 544 -1204 870 -1216 1005 -1216 
C 1043 -1216 1120 -1216 1120 -1101 
C 1120 -1031 1075 -1031 966 -1031 
C 672 -1031 653 -987 653 -937 
C 653 -863 941 217 979 364 
C 1050 185 1222 -64 1555 -64 
C 2278 -64 3059 874 3059 1813 
C 3059 2400 2726 2816 2246 2816 
C 1837 2816 1491 2419 1421 2330 
C 1370 2649 1120 2816 864 2816 
C 678 2816 531 2726 410 2483 
C 294 2253 205 1864 205 1838 
C 205 1813 230 1781 275 1781 
C 326 1781 333 1787 371 1934 
C 467 2311 589 2687 845 2687 
C 992 2687 1043 2585 1043 2394 
C 1043 2241 1024 2177 998 2062 
L 275 -794 
z
M 1382 1992 
C 1427 2170 1606 2356 1709 2445 
C 1779 2509 1990 2687 2234 2687 
C 2515 2687 2643 2407 2643 2075 
C 2643 1768 2464 1047 2304 715 
C 2144 370 1850 64 1555 64 
C 1120 64 1050 613 1050 638 
C 1050 657 1062 708 1069 740 
L 1382 1992 
z
" transform="scale(0.015625)"/>
      <path id="CMSY10-21" d="M 5338 1472 
C 4986 1203 4813 940 4762 857 
C 4474 415 4422 12 4422 6 
C 4422 -71 4499 -71 4550 -71 
C 4659 -71 4666 -58 4691 57 
C 4838 684 5216 1222 5939 1516 
C 6016 1542 6035 1555 6035 1600 
C 6035 1644 5997 1664 5984 1670 
C 5702 1779 4928 2099 4685 3174 
C 4666 3251 4659 3270 4550 3270 
C 4499 3270 4422 3270 4422 3193 
C 4422 3180 4480 2777 4749 2348 
C 4877 2156 5062 1932 5338 1728 
L 582 1728 
C 467 1728 352 1728 352 1600 
C 352 1472 467 1472 582 1472 
L 5338 1472 
z
" transform="scale(0.015625)"/>
      <path id="CMMI12-19" d="M 1658 2406 
L 2381 2406 
C 2208 1691 2099 1225 2099 715 
C 2099 625 2099 -64 2362 -64 
C 2496 -64 2611 57 2611 166 
C 2611 198 2611 210 2566 306 
C 2394 746 2394 1295 2394 1340 
C 2394 1378 2394 1832 2528 2406 
L 3245 2406 
C 3328 2406 3539 2406 3539 2611 
C 3539 2752 3418 2752 3302 2752 
L 1197 2752 
C 1050 2752 832 2752 538 2438 
C 371 2253 166 1915 166 1876 
C 166 1838 198 1825 237 1825 
C 282 1825 288 1844 320 1883 
C 653 2406 986 2406 1146 2406 
L 1510 2406 
C 1370 1927 1210 1372 685 255 
C 634 153 634 140 634 102 
C 634 -32 749 -64 806 -64 
C 992 -64 1043 102 1120 370 
C 1222 695 1222 708 1286 964 
L 1658 2406 
z
" transform="scale(0.015625)"/>
     </defs>
     <use xlink:href="#CMMI12-d" transform="scale(0.996264)"/>
     <use xlink:href="#CMMI12-70" transform="translate(56.018568 0) scale(0.996264)"/>
     <use xlink:href="#CMSY10-21" transform="translate(132.652091 0) scale(0.996264)"/>
     <use xlink:href="#CMMI12-19" transform="translate(259.952774 0) scale(0.996264)"/>
     <use xlink:href="#CMR17-30" transform="translate(318.863375 36.153639) scale(0.697382)"/>
     <use xlink:href="#CMMI12-70" transform="translate(351.344689 0) scale(0.996264)"/>
    </g>
   </g>
   <g id="text_17">
    <!-- $\gamma p \rightarrow \pi^+ n$ -->
    <g style="fill: #262626" transform="translate(9.150299 270.517284) scale(0.18 -0.18)">
     <defs>
      <path id="CMR17-2b" d="M 2413 1472 
L 4109 1472 
C 4198 1472 4307 1472 4307 1580 
C 4307 1696 4205 1696 4109 1696 
L 2413 1696 
L 2413 3385 
C 2413 3475 2413 3584 2304 3584 
C 2189 3584 2189 3481 2189 3385 
L 2189 1696 
L 493 1696 
C 403 1696 294 1696 294 1587 
C 294 1472 397 1472 493 1472 
L 2189 1472 
L 2189 -194 
C 2189 -282 2189 -391 2298 -391 
C 2413 -391 2413 -289 2413 -194 
L 2413 1472 
z
" transform="scale(0.015625)"/>
      <path id="CMMI12-6e" d="M 1318 1870 
C 1331 1909 1491 2228 1728 2432 
C 1894 2585 2112 2687 2362 2687 
C 2618 2687 2707 2496 2707 2241 
C 2707 1877 2445 1149 2317 804 
C 2259 651 2227 568 2227 453 
C 2227 166 2426 -64 2733 -64 
C 3328 -64 3552 874 3552 913 
C 3552 945 3526 970 3488 970 
C 3430 970 3424 951 3392 842 
C 3245 319 3002 64 2752 64 
C 2688 64 2586 70 2586 274 
C 2586 434 2656 625 2694 715 
C 2822 1066 3091 1781 3091 2145 
C 3091 2528 2867 2816 2381 2816 
C 1811 2816 1510 2413 1395 2253 
C 1376 2617 1114 2816 832 2816 
C 627 2816 486 2694 378 2477 
C 262 2247 173 1864 173 1838 
C 173 1813 198 1781 243 1781 
C 294 1781 301 1787 339 1934 
C 442 2324 557 2687 813 2687 
C 960 2687 1011 2585 1011 2394 
C 1011 2253 947 2004 902 1807 
L 723 1117 
C 698 996 627 708 595 593 
C 550 427 480 127 480 95 
C 480 6 550 -64 646 -64 
C 723 -64 813 -26 864 70 
C 877 102 934 325 966 453 
L 1107 1028 
L 1318 1870 
z
" transform="scale(0.015625)"/>
     </defs>
     <use xlink:href="#CMMI12-d" transform="scale(0.996264)"/>
     <use xlink:href="#CMMI12-70" transform="translate(56.018568 0) scale(0.996264)"/>
     <use xlink:href="#CMSY10-21" transform="translate(132.652091 0) scale(0.996264)"/>
     <use xlink:href="#CMMI12-19" transform="translate(259.952774 0) scale(0.996264)"/>
     <use xlink:href="#CMR17-2b" transform="translate(318.863375 36.153639) scale(0.697382)"/>
     <use xlink:href="#CMMI12-6e" transform="translate(369.561638 0) scale(0.996264)"/>
    </g>
   </g>
   <g id="text_18">
    <!-- $\gamma p \rightarrow \pi^0 \pi^0 p$ -->
    <g style="fill: #262626" transform="translate(82.297845 212.832886) scale(0.18 -0.18)">
     <use xlink:href="#CMMI12-d" transform="scale(0.996264)"/>
     <use xlink:href="#CMMI12-70" transform="translate(56.018568 0) scale(0.996264)"/>
     <use xlink:href="#CMSY10-21" transform="translate(132.652091 0) scale(0.996264)"/>
     <use xlink:href="#CMMI12-19" transform="translate(259.952774 0) scale(0.996264)"/>
     <use xlink:href="#CMR17-30" transform="translate(318.863375 36.153639) scale(0.697382)"/>
     <use xlink:href="#CMMI12-19" transform="translate(351.344689 0) scale(0.996264)"/>
     <use xlink:href="#CMR17-30" transform="translate(410.25529 36.153639) scale(0.697382)"/>
     <use xlink:href="#CMMI12-70" transform="translate(442.736604 0) scale(0.996264)"/>
    </g>
   </g>
   <g id="text_19">
    <!-- $\gamma p \rightarrow \pi^+ \pi^0 n$ -->
    <g style="fill: #262626" transform="translate(83.377267 288.598897) scale(0.18 -0.18)">
     <use xlink:href="#CMMI12-d" transform="scale(0.996264)"/>
     <use xlink:href="#CMMI12-70" transform="translate(56.018568 0) scale(0.996264)"/>
     <use xlink:href="#CMSY10-21" transform="translate(132.652091 0) scale(0.996264)"/>
     <use xlink:href="#CMMI12-19" transform="translate(259.952774 0) scale(0.996264)"/>
     <use xlink:href="#CMR17-2b" transform="translate(318.863375 36.153639) scale(0.697382)"/>
     <use xlink:href="#CMMI12-19" transform="translate(369.561638 0) scale(0.996264)"/>
     <use xlink:href="#CMR17-30" transform="translate(428.472239 36.153639) scale(0.697382)"/>
     <use xlink:href="#CMMI12-6e" transform="translate(460.953553 0) scale(0.996264)"/>
    </g>
   </g>
   <g id="text_20">
    <!-- $\gamma p \rightarrow \pi^+ \pi^- p$ -->
    <g style="fill: #262626" transform="translate(84.427975 195.605613) scale(0.18 -0.18)">
     <defs>
      <path id="CMSY10-0" d="M 4218 1472 
C 4326 1472 4442 1472 4442 1600 
C 4442 1728 4326 1728 4218 1728 
L 755 1728 
C 646 1728 531 1728 531 1600 
C 531 1472 646 1472 755 1472 
L 4218 1472 
z
" transform="scale(0.015625)"/>
     </defs>
     <use xlink:href="#CMMI12-d" transform="scale(0.996264)"/>
     <use xlink:href="#CMMI12-70" transform="translate(56.018568 0) scale(0.996264)"/>
     <use xlink:href="#CMSY10-21" transform="translate(132.652091 0) scale(0.996264)"/>
     <use xlink:href="#CMMI12-19" transform="translate(259.952774 0) scale(0.996264)"/>
     <use xlink:href="#CMR17-2b" transform="translate(318.863375 36.153639) scale(0.697382)"/>
     <use xlink:href="#CMMI12-19" transform="translate(369.561638 0) scale(0.996264)"/>
     <use xlink:href="#CMSY10-0" transform="translate(428.472239 36.153639) scale(0.697382)"/>
     <use xlink:href="#CMMI12-70" transform="translate(483.211364 0) scale(0.996264)"/>
    </g>
   </g>
   <g id="text_21">
    <!-- $\gamma p \rightarrow \eta p$ -->
    <g style="fill: #262626" transform="translate(265.442029 303.683342) scale(0.18 -0.18)">
     <defs>
      <path id="CMMI12-11" d="M 3040 1768 
C 3072 1896 3091 1973 3091 2145 
C 3091 2528 2867 2816 2381 2816 
C 1811 2816 1510 2413 1395 2253 
C 1376 2617 1114 2816 832 2816 
C 646 2816 499 2726 378 2483 
C 262 2253 173 1864 173 1838 
C 173 1813 198 1781 243 1781 
C 294 1781 301 1787 339 1934 
C 435 2311 557 2687 813 2687 
C 960 2687 1011 2586 1011 2394 
C 1011 2253 947 2004 902 1807 
L 723 1117 
C 698 996 627 708 595 593 
C 550 427 480 127 480 95 
C 480 6 550 -64 646 -64 
C 723 -64 813 -26 864 70 
C 877 102 934 325 966 453 
L 1107 1028 
L 1318 1870 
C 1331 1909 1491 2228 1728 2432 
C 1894 2586 2112 2687 2362 2687 
C 2618 2687 2707 2496 2707 2241 
C 2707 2056 2682 1953 2650 1832 
L 1907 -1085 
C 1901 -1116 1888 -1154 1888 -1191 
C 1888 -1287 1965 -1351 2061 -1351 
C 2118 -1351 2253 -1325 2304 -1135 
L 3040 1768 
z
" transform="scale(0.015625)"/>
     </defs>
     <use xlink:href="#CMMI12-d" transform="scale(0.996264)"/>
     <use xlink:href="#CMMI12-70" transform="translate(56.018568 0) scale(0.996264)"/>
     <use xlink:href="#CMSY10-21" transform="translate(132.652091 0) scale(0.996264)"/>
     <use xlink:href="#CMMI12-11" transform="translate(259.952774 0) scale(0.996264)"/>
     <use xlink:href="#CMMI12-70" transform="translate(311.65659 0) scale(0.996264)"/>
    </g>
   </g>
   <g id="text_22">
    <!-- $\gamma p \rightarrow K^+ \Lambda$ -->
    <g style="fill: #262626" transform="translate(331.281771 178.378341) scale(0.18 -0.18)">
     <defs>
      <path id="CMMI12-4b" d="M 3200 2574 
C 3194 2593 3168 2644 3168 2663 
C 3168 2669 3174 2675 3283 2758 
L 3904 3242 
C 4762 3905 5043 4128 5485 4166 
C 5530 4172 5594 4172 5594 4281 
C 5594 4319 5574 4352 5523 4352 
C 5453 4352 5376 4339 5306 4339 
L 5062 4339 
C 4864 4339 4653 4352 4461 4352 
C 4416 4352 4339 4352 4339 4236 
C 4339 4172 4384 4166 4422 4166 
C 4493 4159 4576 4134 4576 4045 
C 4576 3917 4384 3765 4333 3726 
L 1824 1784 
L 2355 3886 
C 2413 4102 2426 4166 2880 4166 
C 3002 4166 3059 4166 3059 4287 
C 3059 4352 2995 4352 2963 4352 
C 2848 4352 2714 4339 2592 4339 
L 1837 4339 
C 1722 4339 1581 4352 1466 4352 
C 1414 4352 1344 4352 1344 4230 
C 1344 4166 1402 4166 1498 4166 
C 1888 4166 1888 4115 1888 4045 
C 1888 4032 1888 3994 1862 3898 
L 998 472 
C 941 249 928 185 480 185 
C 358 185 294 185 294 70 
C 294 0 352 0 390 0 
C 512 0 640 12 762 12 
L 1510 12 
C 1632 12 1766 0 1888 0 
C 1939 0 2010 0 2010 121 
C 2010 185 1952 185 1856 185 
C 1466 185 1466 236 1466 300 
C 1466 344 1504 504 1530 605 
L 1779 1593 
L 2752 2351 
C 2938 1943 3277 1128 3539 504 
C 3558 465 3571 427 3571 383 
C 3571 191 3315 185 3258 185 
C 3200 185 3136 185 3136 64 
C 3136 0 3206 0 3226 0 
C 3450 0 3686 12 3910 12 
L 4218 12 
C 4314 12 4422 0 4518 0 
C 4557 0 4627 0 4627 121 
C 4627 185 4570 185 4506 185 
C 4269 191 4186 242 4090 472 
L 3200 2574 
z
" transform="scale(0.015625)"/>
      <path id="CMR17-3" d="M 2150 4435 
C 2118 4537 2112 4544 2048 4544 
C 1984 4544 1978 4537 1946 4435 
L 685 590 
C 570 249 358 172 147 166 
L 147 0 
C 256 6 480 12 595 12 
C 755 12 1005 12 1158 0 
L 1158 166 
C 819 179 800 423 800 468 
C 800 513 813 552 832 616 
L 1894 3862 
L 3008 468 
C 3040 378 3040 365 3040 346 
C 3040 166 2771 166 2637 166 
L 2637 0 
C 2822 12 3149 12 3347 12 
C 3507 12 3802 12 3949 0 
L 3949 166 
C 3667 166 3552 166 3475 391 
L 2150 4435 
z
" transform="scale(0.015625)"/>
     </defs>
     <use xlink:href="#CMMI12-d" transform="scale(0.996264)"/>
     <use xlink:href="#CMMI12-70" transform="translate(56.018568 0) scale(0.996264)"/>
     <use xlink:href="#CMSY10-21" transform="translate(132.652091 0) scale(0.996264)"/>
     <use xlink:href="#CMMI12-4b" transform="translate(259.952774 0) scale(0.996264)"/>
     <use xlink:href="#CMR17-2b" transform="translate(350.100195 36.153639) scale(0.697382)"/>
     <use xlink:href="#CMR17-3" transform="translate(400.798458 0) scale(0.996264)"/>
    </g>
   </g>
   <g id="text_23">
    <!-- $\gamma p \rightarrow \pi^0 \eta p$ -->
    <g style="fill: #262626" transform="translate(339.668996 323.053443) scale(0.18 -0.18)">
     <use xlink:href="#CMMI12-d" transform="scale(0.996264)"/>
     <use xlink:href="#CMMI12-70" transform="translate(56.018568 0) scale(0.996264)"/>
     <use xlink:href="#CMSY10-21" transform="translate(132.652091 0) scale(0.996264)"/>
     <use xlink:href="#CMMI12-19" transform="translate(259.952774 0) scale(0.996264)"/>
     <use xlink:href="#CMR17-30" transform="translate(318.863375 36.153639) scale(0.697382)"/>
     <use xlink:href="#CMMI12-11" transform="translate(351.344689 0) scale(0.996264)"/>
     <use xlink:href="#CMMI12-70" transform="translate(403.048505 0) scale(0.996264)"/>
    </g>
   </g>
   <g id="text_24">
    <!-- $\gamma p \rightarrow K^+ \Sigma^0$ -->
    <g style="fill: #262626" transform="translate(375.16542 161.151068) scale(0.18 -0.18)">
     <defs>
      <path id="CMR17-6" d="M 2067 2096 
C 2112 2147 2112 2160 2112 2179 
C 2112 2204 2086 2243 2080 2255 
L 819 4185 
L 2368 4185 
C 3430 4185 3750 3956 3859 2943 
L 3974 2943 
L 3821 4352 
L 435 4352 
C 301 4352 294 4345 294 4211 
L 1773 1943 
L 346 121 
C 301 64 301 57 301 44 
C 301 0 339 0 435 0 
L 3821 0 
L 3974 1459 
L 3859 1459 
C 3757 427 3392 217 2355 217 
L 589 217 
L 2067 2096 
z
" transform="scale(0.015625)"/>
     </defs>
     <use xlink:href="#CMMI12-d" transform="scale(0.996264)"/>
     <use xlink:href="#CMMI12-70" transform="translate(56.018568 0) scale(0.996264)"/>
     <use xlink:href="#CMSY10-21" transform="translate(132.652091 0) scale(0.996264)"/>
     <use xlink:href="#CMMI12-4b" transform="translate(259.952774 0) scale(0.996264)"/>
     <use xlink:href="#CMR17-2b" transform="translate(350.100195 36.153639) scale(0.697382)"/>
     <use xlink:href="#CMR17-6" transform="translate(400.798458 0) scale(0.996264)"/>
     <use xlink:href="#CMR17-30" transform="translate(467.308339 36.153639) scale(0.697382)"/>
    </g>
   </g>
   <g id="text_25">
    <!-- $\gamma p \rightarrow K^0 \Sigma^+$ -->
    <g style="fill: #262626" transform="translate(375.595017 340.280715) scale(0.18 -0.18)">
     <use xlink:href="#CMMI12-d" transform="scale(0.996264)"/>
     <use xlink:href="#CMMI12-70" transform="translate(56.018568 0) scale(0.996264)"/>
     <use xlink:href="#CMSY10-21" transform="translate(132.652091 0) scale(0.996264)"/>
     <use xlink:href="#CMMI12-4b" transform="translate(259.952774 0) scale(0.996264)"/>
     <use xlink:href="#CMR17-30" transform="translate(350.100195 36.153639) scale(0.697382)"/>
     <use xlink:href="#CMR17-6" transform="translate(382.581509 0) scale(0.996264)"/>
     <use xlink:href="#CMR17-2b" transform="translate(449.091389 36.153639) scale(0.697382)"/>
    </g>
   </g>
   <g id="text_26">
    <!-- $\gamma p \rightarrow \rho p$ -->
    <g style="fill: #262626" transform="translate(405.124619 230.060159) scale(0.18 -0.18)">
     <defs>
      <path id="CMMI12-1a" d="M 198 -1085 
C 192 -1116 179 -1154 179 -1191 
C 179 -1287 256 -1351 352 -1351 
C 448 -1351 538 -1287 576 -1198 
C 602 -1141 781 -390 986 389 
C 1114 70 1350 -64 1600 -64 
C 2323 -64 3142 830 3142 1794 
C 3142 2477 2726 2816 2285 2816 
C 1722 2816 1037 2234 826 1385 
L 198 -1085 
z
M 1594 64 
C 1158 64 1050 568 1050 645 
C 1050 683 1210 1289 1229 1385 
C 1555 2656 2182 2687 2278 2687 
C 2566 2687 2726 2426 2726 2049 
C 2726 1724 2554 1091 2445 823 
C 2253 383 1920 64 1594 64 
z
" transform="scale(0.015625)"/>
     </defs>
     <use xlink:href="#CMMI12-d" transform="scale(0.996264)"/>
     <use xlink:href="#CMMI12-70" transform="translate(56.018568 0) scale(0.996264)"/>
     <use xlink:href="#CMSY10-21" transform="translate(132.652091 0) scale(0.996264)"/>
     <use xlink:href="#CMMI12-1a" transform="translate(259.952774 0) scale(0.996264)"/>
     <use xlink:href="#CMMI12-70" transform="translate(310.267147 0) scale(0.996264)"/>
    </g>
   </g>
   <g id="text_27">
    <!-- $\gamma p \rightarrow \omega p$ -->
    <g style="fill: #262626" transform="translate(408.40572 269.228796) scale(0.18 -0.18)">
     <defs>
      <path id="CMMI12-21" d="M 3802 2406 
C 3802 2592 3750 2828 3526 2828 
C 3398 2828 3251 2668 3251 2540 
C 3251 2483 3277 2444 3328 2387 
C 3424 2278 3546 2105 3546 1804 
C 3546 1574 3405 1209 3302 1011 
C 3123 659 2829 358 2496 358 
C 2093 358 1939 614 1869 972 
C 1939 1139 2086 1555 2086 1721 
C 2086 1792 2061 1849 1978 1849 
C 1933 1849 1882 1824 1850 1772 
C 1760 1632 1677 1126 1683 992 
C 1562 755 1216 358 806 358 
C 378 358 262 736 262 1100 
C 262 1766 678 2348 794 2508 
C 858 2604 902 2668 902 2681 
C 902 2726 877 2796 819 2796 
C 717 2796 685 2713 634 2636 
C 307 2131 77 1420 77 806 
C 77 409 224 -64 704 -64 
C 1235 -64 1568 390 1702 633 
C 1754 275 1946 -64 2413 -64 
C 2899 -64 3206 364 3437 883 
C 3603 1254 3802 2054 3802 2406 
z
" transform="scale(0.015625)"/>
     </defs>
     <use xlink:href="#CMMI12-d" transform="scale(0.996264)"/>
     <use xlink:href="#CMMI12-70" transform="translate(56.018568 0) scale(0.996264)"/>
     <use xlink:href="#CMSY10-21" transform="translate(132.652091 0) scale(0.996264)"/>
     <use xlink:href="#CMMI12-21" transform="translate(259.952774 0) scale(0.996264)"/>
     <use xlink:href="#CMMI12-70" transform="translate(324.27112 0) scale(0.996264)"/>
    </g>
   </g>
   <g id="text_28">
    <!-- $\gamma p \rightarrow \eta^{\prime} p$ -->
    <g style="fill: #262626" transform="translate(515.087861 212.832886) scale(0.18 -0.18)">
     <defs>
      <path id="CMSY10-30" d="M 1619 3048 
C 1651 3125 1677 3182 1677 3246 
C 1677 3430 1510 3584 1312 3584 
C 1133 3584 1018 3462 973 3297 
L 211 517 
C 211 505 186 435 186 428 
C 186 358 352 313 403 313 
C 442 313 448 332 486 415 
L 1619 3048 
z
" transform="scale(0.015625)"/>
     </defs>
     <use xlink:href="#CMMI12-d" transform="scale(0.996264)"/>
     <use xlink:href="#CMMI12-70" transform="translate(56.018568 0) scale(0.996264)"/>
     <use xlink:href="#CMSY10-21" transform="translate(132.652091 0) scale(0.996264)"/>
     <use xlink:href="#CMMI12-11" transform="translate(259.952774 0) scale(0.996264)"/>
     <use xlink:href="#CMSY10-30" transform="translate(311.65659 36.153639) scale(0.697382)"/>
     <use xlink:href="#CMMI12-70" transform="translate(331.332682 0) scale(0.996264)"/>
    </g>
   </g>
   <g id="text_29">
    <!-- $\gamma p \rightarrow K^+ K^- p$ -->
    <g style="fill: #262626" transform="translate(513.434429 287.831785) scale(0.18 -0.18)">
     <use xlink:href="#CMMI12-d" transform="scale(0.996264)"/>
     <use xlink:href="#CMMI12-70" transform="translate(56.018568 0) scale(0.996264)"/>
     <use xlink:href="#CMSY10-21" transform="translate(132.652091 0) scale(0.996264)"/>
     <use xlink:href="#CMMI12-4b" transform="translate(259.952774 0) scale(0.996264)"/>
     <use xlink:href="#CMR17-2b" transform="translate(350.100195 36.153639) scale(0.697382)"/>
     <use xlink:href="#CMMI12-4b" transform="translate(400.798458 0) scale(0.996264)"/>
     <use xlink:href="#CMSY10-0" transform="translate(490.945879 36.153639) scale(0.697382)"/>
     <use xlink:href="#CMMI12-70" transform="translate(545.685004 0) scale(0.996264)"/>
    </g>
   </g>
   <g id="text_30">
    <!-- $\gamma p \rightarrow \phi p$ -->
    <g style="fill: #262626" transform="translate(554.324703 195.605613) scale(0.18 -0.18)">
     <defs>
      <path id="CMMI12-1e" d="M 2752 4358 
C 2752 4416 2707 4416 2688 4416 
C 2630 4416 2624 4403 2598 4294 
L 2253 2924 
C 2234 2841 2227 2835 2221 2828 
C 2214 2816 2170 2809 2157 2809 
C 1107 2720 301 1863 301 1071 
C 301 387 832 -32 1498 -71 
C 1446 -266 1402 -467 1350 -662 
C 1261 -995 1210 -1204 1210 -1229 
C 1210 -1242 1210 -1280 1274 -1280 
C 1293 -1280 1318 -1280 1331 -1255 
C 1344 -1242 1382 -1089 1408 -1008 
L 1645 -71 
C 2739 -13 3571 875 3571 1673 
C 3571 2313 3085 2771 2374 2816 
L 2752 4358 
z
M 2336 2688 
C 2758 2662 3181 2428 3181 1806 
C 3181 1090 2675 140 1677 64 
L 2336 2688 
z
M 1530 57 
C 1216 76 691 241 691 938 
C 691 1737 1274 2624 2195 2681 
L 1530 57 
z
" transform="scale(0.015625)"/>
     </defs>
     <use xlink:href="#CMMI12-d" transform="scale(0.996264)"/>
     <use xlink:href="#CMMI12-70" transform="translate(56.018568 0) scale(0.996264)"/>
     <use xlink:href="#CMSY10-21" transform="translate(132.652091 0) scale(0.996264)"/>
     <use xlink:href="#CMMI12-1e" transform="translate(259.952774 0) scale(0.996264)"/>
     <use xlink:href="#CMMI12-70" transform="translate(317.686955 0) scale(0.996264)"/>
    </g>
   </g>
   <g id="text_31">
    <!-- $\gamma n \rightarrow \pi^0 n$ -->
    <g style="fill: #262626" transform="translate(7.2 178.378341) scale(0.18 -0.18)">
     <use xlink:href="#CMMI12-d" transform="scale(0.996264)"/>
     <use xlink:href="#CMMI12-6e" transform="translate(56.018568 0) scale(0.996264)"/>
     <use xlink:href="#CMSY10-21" transform="translate(141.922624 0) scale(0.996264)"/>
     <use xlink:href="#CMMI12-19" transform="translate(269.223307 0) scale(0.996264)"/>
     <use xlink:href="#CMR17-30" transform="translate(328.133908 36.153639) scale(0.697382)"/>
     <use xlink:href="#CMMI12-6e" transform="translate(360.615222 0) scale(0.996264)"/>
    </g>
   </g>
   <g id="text_32">
    <!-- $\gamma n \rightarrow \pi^- p$ -->
    <g style="fill: #262626" transform="translate(8.250708 322.28633) scale(0.18 -0.18)">
     <use xlink:href="#CMMI12-d" transform="scale(0.996264)"/>
     <use xlink:href="#CMMI12-6e" transform="translate(56.018568 0) scale(0.996264)"/>
     <use xlink:href="#CMSY10-21" transform="translate(141.922624 0) scale(0.996264)"/>
     <use xlink:href="#CMMI12-19" transform="translate(269.223307 0) scale(0.996264)"/>
     <use xlink:href="#CMSY10-0" transform="translate(328.133908 36.153639) scale(0.697382)"/>
     <use xlink:href="#CMMI12-70" transform="translate(382.873033 0) scale(0.996264)"/>
    </g>
   </g>
   <g id="text_33">
    <!-- $\gamma n \rightarrow \pi^0 \pi^0 n$ -->
    <g style="fill: #262626" transform="translate(81.426968 161.151068) scale(0.18 -0.18)">
     <use xlink:href="#CMMI12-d" transform="scale(0.996264)"/>
     <use xlink:href="#CMMI12-6e" transform="translate(56.018568 0) scale(0.996264)"/>
     <use xlink:href="#CMSY10-21" transform="translate(141.922624 0) scale(0.996264)"/>
     <use xlink:href="#CMMI12-19" transform="translate(269.223307 0) scale(0.996264)"/>
     <use xlink:href="#CMR17-30" transform="translate(328.133908 36.153639) scale(0.697382)"/>
     <use xlink:href="#CMMI12-19" transform="translate(360.615222 0) scale(0.996264)"/>
     <use xlink:href="#CMR17-30" transform="translate(419.525823 36.153639) scale(0.697382)"/>
     <use xlink:href="#CMMI12-6e" transform="translate(452.007137 0) scale(0.996264)"/>
    </g>
   </g>
   <g id="text_34">
    <!-- $\gamma n \rightarrow \eta n$ -->
    <g style="fill: #262626" transform="translate(264.571151 338.137887) scale(0.18 -0.18)">
     <use xlink:href="#CMMI12-d" transform="scale(0.996264)"/>
     <use xlink:href="#CMMI12-6e" transform="translate(56.018568 0) scale(0.996264)"/>
     <use xlink:href="#CMSY10-21" transform="translate(141.922624 0) scale(0.996264)"/>
     <use xlink:href="#CMMI12-11" transform="translate(269.223307 0) scale(0.996264)"/>
     <use xlink:href="#CMMI12-6e" transform="translate(320.927123 0) scale(0.996264)"/>
    </g>
   </g>
   <g id="text_35">
    <!-- $\gamma n \rightarrow K^0 \Lambda$ -->
    <g style="fill: #262626" transform="translate(334.548003 143.923795) scale(0.18 -0.18)">
     <use xlink:href="#CMMI12-d" transform="scale(0.996264)"/>
     <use xlink:href="#CMMI12-6e" transform="translate(56.018568 0) scale(0.996264)"/>
     <use xlink:href="#CMSY10-21" transform="translate(141.922624 0) scale(0.996264)"/>
     <use xlink:href="#CMMI12-4b" transform="translate(269.223307 0) scale(0.996264)"/>
     <use xlink:href="#CMR17-30" transform="translate(359.370728 36.153639) scale(0.697382)"/>
     <use xlink:href="#CMR17-3" transform="translate(391.852042 0) scale(0.996264)"/>
    </g>
   </g>
   <g id="text_36">
    <!-- $\gamma n \rightarrow K^0 \Sigma^0$ -->
    <g style="fill: #262626" transform="translate(378.493023 357.507988) scale(0.18 -0.18)">
     <use xlink:href="#CMMI12-d" transform="scale(0.996264)"/>
     <use xlink:href="#CMMI12-6e" transform="translate(56.018568 0) scale(0.996264)"/>
     <use xlink:href="#CMSY10-21" transform="translate(141.922624 0) scale(0.996264)"/>
     <use xlink:href="#CMMI12-4b" transform="translate(269.223307 0) scale(0.996264)"/>
     <use xlink:href="#CMR17-30" transform="translate(359.370728 36.153639) scale(0.697382)"/>
     <use xlink:href="#CMR17-6" transform="translate(391.852042 0) scale(0.996264)"/>
     <use xlink:href="#CMR17-30" transform="translate(458.361923 36.153639) scale(0.697382)"/>
    </g>
   </g>
   <g id="text_37">
    <!-- $\gamma n \rightarrow K^+ \Sigma^-$ -->
    <g style="fill: #262626" transform="translate(375.467993 126.696522) scale(0.18 -0.18)">
     <use xlink:href="#CMMI12-d" transform="scale(0.996264)"/>
     <use xlink:href="#CMMI12-6e" transform="translate(56.018568 0) scale(0.996264)"/>
     <use xlink:href="#CMSY10-21" transform="translate(141.922624 0) scale(0.996264)"/>
     <use xlink:href="#CMMI12-4b" transform="translate(269.223307 0) scale(0.996264)"/>
     <use xlink:href="#CMR17-2b" transform="translate(359.370728 36.153639) scale(0.697382)"/>
     <use xlink:href="#CMR17-6" transform="translate(410.068992 0) scale(0.996264)"/>
     <use xlink:href="#CMSY10-0" transform="translate(476.578872 36.153639) scale(0.697382)"/>
    </g>
   </g>
   <g id="text_38">
    <!-- $\gamma n \rightarrow \omega n$ -->
    <g style="fill: #262626" transform="translate(407.534843 372.592433) scale(0.18 -0.18)">
     <use xlink:href="#CMMI12-d" transform="scale(0.996264)"/>
     <use xlink:href="#CMMI12-6e" transform="translate(56.018568 0) scale(0.996264)"/>
     <use xlink:href="#CMSY10-21" transform="translate(141.922624 0) scale(0.996264)"/>
     <use xlink:href="#CMMI12-21" transform="translate(269.223307 0) scale(0.996264)"/>
     <use xlink:href="#CMMI12-6e" transform="translate(333.541653 0) scale(0.996264)"/>
    </g>
   </g>
   <g id="text_39">
    <!-- $\gamma n \rightarrow \eta^{\prime} n$ -->
    <g style="fill: #262626" transform="translate(514.155612 109.469249) scale(0.18 -0.18)">
     <use xlink:href="#CMMI12-d" transform="scale(0.996264)"/>
     <use xlink:href="#CMMI12-6e" transform="translate(56.018568 0) scale(0.996264)"/>
     <use xlink:href="#CMSY10-21" transform="translate(141.922624 0) scale(0.996264)"/>
     <use xlink:href="#CMMI12-11" transform="translate(269.223307 0) scale(0.996264)"/>
     <use xlink:href="#CMSY10-30" transform="translate(320.927123 36.153639) scale(0.697382)"/>
     <use xlink:href="#CMMI12-6e" transform="translate(340.603216 0) scale(0.996264)"/>
    </g>
   </g>
   <g id="text_40">
    <!-- Meson Photoproduction Thresholds -->
    <g style="fill: #262626" transform="translate(104.640151 27.955495) scale(0.3 -0.3)">
     <defs>
      <path id="CMR17-73" d="M 1978 2688 
C 1978 2803 1971 2809 1933 2809 
C 1907 2809 1901 2803 1824 2707 
C 1805 2681 1747 2617 1728 2592 
C 1523 2809 1235 2816 1126 2816 
C 416 2816 160 2444 160 2073 
C 160 1497 813 1363 998 1324 
C 1402 1241 1542 1216 1677 1100 
C 1760 1024 1901 883 1901 652 
C 1901 384 1747 38 1158 38 
C 602 38 403 460 288 1024 
C 269 1113 269 1120 218 1120 
C 166 1120 160 1113 160 985 
L 160 64 
C 160 -52 166 -58 205 -58 
C 237 -58 243 -52 275 0 
C 314 57 410 211 448 275 
C 576 102 800 -64 1158 -64 
C 1792 -64 2131 281 2131 780 
C 2131 1107 1958 1280 1875 1356 
C 1683 1555 1459 1600 1190 1651 
C 838 1728 390 1817 390 2208 
C 390 2374 480 2726 1126 2726 
C 1811 2726 1850 2086 1862 1881 
C 1869 1849 1901 1843 1920 1843 
C 1978 1843 1978 1862 1978 1971 
L 1978 2688 
z
" transform="scale(0.015625)"/>
      <path id="CMR17-6f" d="M 2758 1356 
C 2758 2176 2163 2816 1466 2816 
C 768 2816 173 2176 173 1356 
C 173 550 768 -64 1466 -64 
C 2163 -64 2758 550 2758 1356 
z
M 1466 51 
C 1165 51 909 230 762 480 
C 602 768 582 1126 582 1408 
C 582 1676 595 2009 762 2297 
C 890 2508 1139 2713 1466 2713 
C 1754 2713 1997 2553 2150 2329 
C 2349 2028 2349 1606 2349 1408 
C 2349 1158 2336 774 2163 467 
C 1984 172 1709 51 1466 51 
z
" transform="scale(0.015625)"/>
      <path id="CMR17-6e" d="M 2656 1954 
C 2656 2282 2592 2816 1837 2816 
C 1331 2816 1069 2424 973 2166 
L 966 2166 
L 966 2816 
L 211 2745 
L 211 2578 
C 589 2578 646 2540 646 2231 
L 646 443 
C 646 198 621 166 211 166 
L 211 0 
C 365 12 646 12 813 12 
C 979 12 1267 12 1421 0 
L 1421 166 
C 1011 166 986 192 986 443 
L 986 1678 
C 986 2269 1344 2713 1792 2713 
C 2266 2713 2317 2289 2317 1980 
L 2317 443 
C 2317 198 2291 166 1882 166 
L 1882 0 
C 2035 12 2317 12 2483 12 
C 2650 12 2938 12 3091 0 
L 3091 166 
C 2682 166 2656 192 2656 443 
L 2656 1954 
z
" transform="scale(0.015625)"/>
      <path id="CMR17-50" d="M 1267 2048 
L 2291 2048 
C 3117 2048 3718 2583 3718 3187 
C 3718 3791 3130 4352 2291 4352 
L 333 4352 
L 333 4185 
C 774 4185 845 4185 845 3899 
L 845 453 
C 845 166 774 166 333 166 
L 333 0 
C 518 12 858 12 1056 12 
C 1254 12 1594 12 1779 0 
L 1779 166 
C 1338 166 1267 166 1267 453 
L 1267 2048 
z
M 1254 2182 
L 1254 3937 
C 1254 4153 1267 4185 1523 4185 
L 2170 4185 
C 2995 4185 3232 3715 3232 3187 
C 3232 2608 2950 2182 2170 2182 
L 1254 2182 
z
" transform="scale(0.015625)"/>
      <path id="CMR17-68" d="M 2656 1954 
C 2656 2282 2592 2816 1837 2816 
C 1312 2816 1056 2392 979 2179 
L 973 2179 
L 973 4416 
L 211 4345 
L 211 4179 
C 589 4179 646 4141 646 3843 
L 646 443 
C 646 198 621 166 211 166 
L 211 0 
C 365 12 646 12 813 12 
C 979 12 1267 12 1421 0 
L 1421 166 
C 1011 166 986 192 986 443 
L 986 1678 
C 986 2269 1344 2713 1792 2713 
C 2266 2713 2317 2289 2317 1980 
L 2317 443 
C 2317 198 2291 166 1882 166 
L 1882 0 
C 2035 12 2317 12 2483 12 
C 2650 12 2938 12 3091 0 
L 3091 166 
C 2682 166 2656 192 2656 443 
L 2656 1954 
z
" transform="scale(0.015625)"/>
      <path id="CMR17-74" d="M 966 2585 
L 1862 2585 
L 1862 2752 
L 966 2752 
L 966 3968 
L 851 3968 
C 838 3292 614 2700 70 2687 
L 70 2585 
L 627 2585 
L 627 778 
C 627 655 627 -64 1370 -64 
C 1747 -64 1965 308 1965 784 
L 1965 1151 
L 1850 1151 
L 1850 790 
C 1850 347 1677 51 1408 51 
C 1222 51 966 179 966 765 
L 966 2585 
z
" transform="scale(0.015625)"/>
      <path id="CMR17-70" d="M 1408 -1114 
C 998 -1114 973 -1088 973 -834 
L 973 380 
C 1158 109 1427 -64 1766 -64 
C 2406 -64 3053 503 3053 1382 
C 3053 2196 2496 2816 1837 2816 
C 1453 2816 1139 2603 960 2345 
L 960 2816 
L 198 2745 
L 198 2577 
C 576 2577 634 2539 634 2228 
L 634 -834 
C 634 -1081 608 -1114 198 -1114 
L 198 -1280 
C 352 -1268 634 -1268 800 -1268 
C 966 -1268 1254 -1268 1408 -1280 
L 1408 -1114 
z
M 973 2015 
C 973 2106 973 2241 1222 2481 
C 1254 2506 1472 2700 1792 2700 
C 2259 2700 2643 2112 2643 1376 
C 2643 639 2234 38 1728 38 
C 1498 38 1248 148 1056 451 
C 973 594 973 632 973 736 
L 973 2015 
z
" transform="scale(0.015625)"/>
      <path id="CMR17-72" d="M 960 1517 
C 960 2134 1222 2713 1702 2713 
C 1747 2713 1792 2707 1837 2687 
C 1837 2687 1696 2642 1696 2475 
C 1696 2321 1818 2257 1914 2257 
C 1990 2257 2131 2302 2131 2482 
C 2131 2687 1926 2816 1709 2816 
C 1222 2816 1011 2340 947 2115 
L 941 2115 
L 941 2816 
L 198 2745 
L 198 2578 
C 576 2578 634 2540 634 2231 
L 634 443 
C 634 198 608 166 198 166 
L 198 0 
C 352 12 646 12 813 12 
C 998 12 1325 12 1498 0 
L 1498 166 
C 1037 166 960 166 960 455 
L 960 1517 
z
" transform="scale(0.015625)"/>
      <path id="CMR17-64" d="M 1869 4345 
L 1869 4179 
C 2246 4179 2304 4141 2304 3843 
L 2304 2371 
C 2278 2403 2016 2816 1498 2816 
C 845 2816 211 2228 211 1376 
C 211 529 806 -64 1434 -64 
C 1978 -64 2259 361 2291 406 
L 2291 -64 
L 3066 -13 
L 3066 154 
C 2688 154 2630 193 2630 503 
L 2630 4416 
L 1869 4345 
z
M 2291 762 
C 2291 568 2176 393 2029 264 
C 1811 70 1594 38 1472 38 
C 1286 38 621 135 621 1369 
C 621 2636 1363 2713 1530 2713 
C 1824 2713 2061 2545 2208 2313 
C 2291 2177 2291 2157 2291 2041 
L 2291 762 
z
" transform="scale(0.015625)"/>
      <path id="CMR17-75" d="M 1882 2745 
L 1882 2579 
C 2259 2579 2317 2540 2317 2229 
L 2317 1053 
C 2317 510 2029 38 1555 38 
C 1030 38 986 355 986 691 
L 986 2816 
L 211 2745 
L 211 2579 
C 467 2579 640 2579 646 2320 
L 646 1079 
C 646 646 646 368 813 187 
C 896 103 1056 -64 1517 -64 
C 2061 -64 2272 400 2323 536 
L 2330 536 
L 2330 -64 
L 3091 -13 
L 3091 154 
C 2714 154 2656 193 2656 503 
L 2656 2816 
L 1882 2745 
z
" transform="scale(0.015625)"/>
      <path id="CMR17-63" d="M 2234 2240 
C 2112 2240 1933 2240 1933 2015 
C 1933 1836 2080 1785 2163 1785 
C 2208 1785 2394 1804 2394 2028 
C 2394 2476 1958 2816 1466 2816 
C 787 2816 211 2201 211 1379 
C 211 521 813 -64 1466 -64 
C 2259 -64 2458 676 2458 747 
C 2458 773 2451 792 2406 792 
C 2362 792 2355 786 2330 702 
C 2163 180 1798 51 1523 51 
C 1114 51 621 431 621 1385 
C 621 2358 1094 2700 1472 2700 
C 1722 2700 2093 2582 2234 2240 
z
" transform="scale(0.015625)"/>
      <path id="CMR17-69" d="M 992 3961 
C 992 4102 877 4224 730 4224 
C 589 4224 467 4108 467 3961 
C 467 3820 582 3699 730 3699 
C 870 3699 992 3814 992 3961 
z
M 243 2745 
L 243 2579 
C 602 2579 653 2540 653 2231 
L 653 443 
C 653 198 627 166 218 166 
L 218 0 
C 371 12 646 12 806 12 
C 960 12 1222 12 1370 0 
L 1370 166 
C 992 166 979 205 979 436 
L 979 2816 
L 243 2745 
z
" transform="scale(0.015625)"/>
      <path id="CMR17-54" d="M 3981 4332 
L 288 4332 
L 179 2924 
L 294 2924 
C 378 3981 467 4166 1453 4166 
C 1568 4166 1754 4166 1805 4159 
C 1926 4140 1926 4064 1926 3917 
L 1926 465 
C 1926 236 1907 166 1376 166 
L 1197 166 
L 1197 0 
C 1504 6 1824 12 2138 12 
C 2451 12 2771 6 3078 0 
L 3078 166 
L 2899 166 
C 2368 166 2349 236 2349 465 
L 2349 3917 
C 2349 4057 2349 4134 2464 4159 
C 2515 4166 2701 4166 2816 4166 
C 3795 4166 3891 3981 3974 2924 
L 4090 2924 
L 3981 4332 
z
" transform="scale(0.015625)"/>
      <path id="CMR17-6c" d="M 979 4416 
L 218 4345 
L 218 4179 
C 595 4179 653 4141 653 3835 
L 653 439 
C 653 198 627 166 218 166 
L 218 0 
C 371 12 653 12 813 12 
C 979 12 1261 12 1414 0 
L 1414 166 
C 1005 166 979 191 979 439 
L 979 4416 
z
" transform="scale(0.015625)"/>
     </defs>
     <use xlink:href="#CMR17-4d" transform="scale(0.996264)"/>
     <use xlink:href="#CMR17-65" transform="translate(84.686941 0) scale(0.996264)"/>
     <use xlink:href="#CMR17-73" transform="translate(125.172601 0) scale(0.996264)"/>
     <use xlink:href="#CMR17-6f" transform="translate(160.973939 0) scale(0.996264)"/>
     <use xlink:href="#CMR17-6e" transform="translate(206.664416 0) scale(0.996264)"/>
     <use xlink:href="#CMR17-50" transform="translate(287.635752 0) scale(0.996264)"/>
     <use xlink:href="#CMR17-68" transform="translate(350.222052 0) scale(0.996264)"/>
     <use xlink:href="#CMR17-6f" transform="translate(401.117422 0) scale(0.996264)"/>
     <use xlink:href="#CMR17-74" transform="translate(446.807899 0) scale(0.996264)"/>
     <use xlink:href="#CMR17-6f" transform="translate(482.088667 0) scale(0.996264)"/>
     <use xlink:href="#CMR17-70" transform="translate(527.779144 0) scale(0.996264)"/>
     <use xlink:href="#CMR17-72" transform="translate(578.674514 0) scale(0.996264)"/>
     <use xlink:href="#CMR17-6f" transform="translate(613.955282 0) scale(0.996264)"/>
     <use xlink:href="#CMR17-64" transform="translate(662.248198 0) scale(0.996264)"/>
     <use xlink:href="#CMR17-75" transform="translate(713.143567 0) scale(0.996264)"/>
     <use xlink:href="#CMR17-63" transform="translate(764.038937 0) scale(0.996264)"/>
     <use xlink:href="#CMR17-74" transform="translate(804.524598 0) scale(0.996264)"/>
     <use xlink:href="#CMR17-69" transform="translate(839.805365 0) scale(0.996264)"/>
     <use xlink:href="#CMR17-6f" transform="translate(864.676424 0) scale(0.996264)"/>
     <use xlink:href="#CMR17-6e" transform="translate(910.366901 0) scale(0.996264)"/>
     <use xlink:href="#CMR17-54" transform="translate(991.338237 0) scale(0.996264)"/>
     <use xlink:href="#CMR17-68" transform="translate(1057.848118 0) scale(0.996264)"/>
     <use xlink:href="#CMR17-72" transform="translate(1108.743488 0) scale(0.996264)"/>
     <use xlink:href="#CMR17-65" transform="translate(1144.024255 0) scale(0.996264)"/>
     <use xlink:href="#CMR17-73" transform="translate(1184.509916 0) scale(0.996264)"/>
     <use xlink:href="#CMR17-68" transform="translate(1220.311253 0) scale(0.996264)"/>
     <use xlink:href="#CMR17-6f" transform="translate(1271.206623 0) scale(0.996264)"/>
     <use xlink:href="#CMR17-6c" transform="translate(1316.8971 0) scale(0.996264)"/>
     <use xlink:href="#CMR17-64" transform="translate(1341.768159 0) scale(0.996264)"/>
     <use xlink:href="#CMR17-73" transform="translate(1392.663529 0) scale(0.996264)"/>
    </g>
   </g>
  </g>
 </g>
 <defs>
  <clipPath id="pd8ab94a362">
   <rect x="20.355484" y="91.839132" width="597.10869" height="289.418183"/>
  </clipPath>
 </defs>
</svg>
